<svg width="9" height="14" viewBox="0 0 9 14" fill="none" xmlns="http://www.w3.org/2000/svg">
<path d="M7.5001 13.8751C7.33444 13.8728 7.17561 13.8088 7.05479 13.6954L0.804786 7.44541C0.687422 7.32691 0.621582 7.16688 0.621582 7.0001C0.621582 6.83332 0.687422 6.67328 0.804786 6.55479L7.05479 0.304786C7.17622 0.205121 7.33038 0.154189 7.48729 0.161895C7.6442 0.169602 7.79263 0.235396 7.90372 0.34648C8.0148 0.457564 8.0806 0.605996 8.0883 0.762903C8.09601 0.919811 8.04507 1.07398 7.94541 1.19541L2.13291 7.0001L7.94541 12.8048C8.06277 12.9233 8.12861 13.0833 8.12861 13.2501C8.12861 13.4169 8.06277 13.5769 7.94541 13.6954C7.82458 13.8088 7.66575 13.8728 7.5001 13.8751Z" fill="#E5C592"/>
</svg>
