<svg width="9" height="14" viewBox="0 0 9 14" fill="none" xmlns="http://www.w3.org/2000/svg">
<path d="M1.50002 0.124902C1.66568 0.127152 1.82451 0.191242 1.94534 0.304589L8.19534 6.55459C8.3127 6.67309 8.37854 6.83312 8.37854 6.9999C8.37854 7.16668 8.3127 7.32672 8.19534 7.44521L1.94534 13.6952C1.8239 13.7949 1.66974 13.8458 1.51283 13.8381C1.35592 13.8304 1.20749 13.7646 1.09641 13.6535C0.985321 13.5424 0.919527 13.394 0.91182 13.2371C0.904114 13.0802 0.955047 12.926 1.05471 12.8046L6.86721 6.9999L1.05471 1.19521C0.937348 1.07672 0.871509 0.916682 0.871509 0.749902C0.871509 0.583122 0.937348 0.423085 1.05471 0.304589C1.17554 0.191242 1.33437 0.127152 1.50002 0.124902V0.124902Z" fill="#E5C592"/>
</svg>
