<svg width="20" height="20" viewBox="0 0 20 20" fill="none" xmlns="http://www.w3.org/2000/svg">
<path d="M7.39853 12.0823C7.61656 12.0823 7.82567 12.1689 7.97985 12.323C8.13402 12.4772 8.22064 12.6863 8.22064 12.9044V15.0967C8.22064 15.3147 8.13402 15.5238 7.97985 15.678C7.82567 15.8322 7.61656 15.9188 7.39853 15.9188C7.18049 15.9188 6.97138 15.8322 6.81721 15.678C6.66303 15.5238 6.57642 15.3147 6.57642 15.0967V12.9044C6.57642 12.6863 6.66303 12.4772 6.81721 12.323C6.97138 12.1689 7.18049 12.0823 7.39853 12.0823ZM12.6052 12.9044C12.6052 12.6863 12.5186 12.4772 12.3644 12.323C12.2103 12.1689 12.0012 12.0823 11.7831 12.0823C11.5651 12.0823 11.356 12.1689 11.2018 12.323C11.0476 12.4772 10.961 12.6863 10.961 12.9044V15.0967C10.961 15.3147 11.0476 15.5238 11.2018 15.678C11.356 15.8322 11.5651 15.9188 11.7831 15.9188C12.0012 15.9188 12.2103 15.8322 12.3644 15.678C12.5186 15.5238 12.6052 15.3147 12.6052 15.0967V12.9044Z" fill="#E5C592"/>
<path fill-rule="evenodd" clip-rule="evenodd" d="M7.01487 1.25781C7.12389 1.06884 7.15338 0.844306 7.09685 0.6336C7.04032 0.422893 6.9024 0.243273 6.71344 0.134255C6.52447 0.0252361 6.29994 -0.00425087 6.08923 0.0522802C5.87852 0.108811 5.6989 0.24673 5.58988 0.435695L3.39759 4.23275C3.36559 4.28843 3.34021 4.34766 3.32196 4.40923H3.01394C2.39193 4.40932 1.78519 4.60183 1.27691 4.96036C0.768625 5.31888 0.383695 5.82586 0.174904 6.41177C-0.0338882 6.99768 -0.0563177 7.63384 0.110691 8.233C0.2777 8.83217 0.625969 9.365 1.10774 9.75843L1.83887 14.7843L2.32885 17.0785C2.47193 17.7496 2.81809 18.3603 3.32032 18.8278C3.82254 19.2954 4.4565 19.597 5.13608 19.6917C8.09239 20.1028 11.0893 20.1028 14.0456 19.6917C14.7251 19.597 15.3591 19.2954 15.8613 18.8278C16.3636 18.3603 16.7097 17.7496 16.8528 17.0785L17.3428 14.7843L18.0739 9.75843C18.5557 9.365 18.9039 8.83217 19.071 8.233C19.238 7.63384 19.2155 6.99768 19.0067 6.41177C18.7979 5.82586 18.413 5.31888 17.9047 4.96036C17.3965 4.60183 16.7897 4.40932 16.1677 4.40923H15.8597C15.841 4.34799 15.8152 4.28914 15.783 4.23384L13.5907 0.435695C13.5388 0.338289 13.4678 0.252323 13.382 0.182921C13.2962 0.11352 13.1973 0.0621032 13.0912 0.0317366C12.9851 0.00137006 12.874 -0.00732497 12.7645 0.00616981C12.655 0.0196646 12.5493 0.0550729 12.4537 0.110284C12.3582 0.165496 12.2747 0.23938 12.2083 0.327533C12.1419 0.415686 12.094 0.516303 12.0673 0.623387C12.0406 0.73047 12.0358 0.841829 12.0531 0.950825C12.0703 1.05982 12.1094 1.16422 12.1679 1.25781L13.9875 4.40923H5.19527L7.01487 1.25781ZM16.3146 10.4347C16.2657 10.437 16.2167 10.4381 16.1677 10.438H3.01394C2.96461 10.438 2.91529 10.4369 2.86815 10.4347L3.45788 14.4938L3.93689 16.7354C4.00961 17.0763 4.18547 17.3865 4.4406 17.624C4.69573 17.8615 5.01777 18.0147 5.36298 18.0628C8.16802 18.4531 11.0136 18.4531 13.8187 18.0628C14.1637 18.0148 14.4857 17.8617 14.7408 17.6245C14.9959 17.3872 15.1718 17.0772 15.2447 16.7365L15.7238 14.4938L16.3146 10.4347ZM1.64375 7.42363C1.64375 6.66729 2.2576 6.05345 3.01394 6.05345H16.1677C16.5311 6.05345 16.8796 6.19781 17.1366 6.45477C17.3935 6.71173 17.5379 7.06024 17.5379 7.42363C17.5379 7.78703 17.3935 8.13554 17.1366 8.3925C16.8796 8.64946 16.5311 8.79382 16.1677 8.79382H3.01394C2.2576 8.79382 1.64375 8.17997 1.64375 7.42363Z" fill="#E5C592"/>
</svg>
