<svg width="18" height="22" viewBox="0 0 18 22" fill="none" xmlns="http://www.w3.org/2000/svg">
<path d="M15.7594 20H11.1281C11.9085 19.3031 12.6443 18.5579 13.3313 17.7687C15.9 14.8156 17.2594 11.6938 17.2594 8.75C17.2594 6.56196 16.3902 4.46354 14.843 2.91637C13.2959 1.36919 11.1974 0.5 9.0094 0.5C6.82136 0.5 4.72294 1.36919 3.17577 2.91637C1.62859 4.46354 0.759399 6.56196 0.759399 8.75C0.759399 11.6938 2.11877 14.8156 4.6969 17.7687C5.38137 18.5602 6.11735 19.3055 6.90002 20H2.2594C2.06049 20 1.86972 20.079 1.72907 20.2197C1.58842 20.3603 1.5094 20.5511 1.5094 20.75C1.5094 20.9489 1.58842 21.1397 1.72907 21.2803C1.86972 21.421 2.06049 21.5 2.2594 21.5H15.7594C15.9583 21.5 16.1491 21.421 16.2897 21.2803C16.4304 21.1397 16.5094 20.9489 16.5094 20.75C16.5094 20.5511 16.4304 20.3603 16.2897 20.2197C16.1491 20.079 15.9583 20 15.7594 20ZM9.0094 5.75C9.60274 5.75 10.1828 5.92595 10.6761 6.25559C11.1695 6.58524 11.554 7.05377 11.781 7.60195C12.0081 8.15013 12.0675 8.75333 11.9518 9.33527C11.836 9.91721 11.5503 10.4518 11.1307 10.8713C10.7112 11.2909 10.1766 11.5766 9.59467 11.6924C9.01273 11.8081 8.40953 11.7487 7.86135 11.5216C7.31317 11.2946 6.84464 10.9101 6.51499 10.4167C6.18535 9.92336 6.0094 9.34334 6.0094 8.75C6.0094 7.95435 6.32547 7.19129 6.88808 6.62868C7.45069 6.06607 8.21375 5.75 9.0094 5.75Z" fill="#E5C592"/>
</svg>
