<svg width="21" height="20" viewBox="0 0 21 20" fill="none" xmlns="http://www.w3.org/2000/svg">
<path d="M19.9125 18.3109L16.2025 14.6309C17.6426 12.8353 18.34 10.5562 18.1514 8.2622C17.9627 5.9682 16.9022 3.83368 15.1881 2.29754C13.4739 0.761407 11.2363 -0.0595894 8.93546 0.00337096C6.63458 0.0663314 4.44526 1.00846 2.81768 2.63604C1.1901 4.26362 0.247972 6.45294 0.185012 8.75382C0.122051 11.0547 0.943047 13.2923 2.47919 15.0064C4.01532 16.7206 6.14984 17.781 8.44384 17.9697C10.7378 18.1584 13.017 17.461 14.8125 16.0209L18.4925 19.7009C18.5855 19.7946 18.6961 19.869 18.818 19.9198C18.9398 19.9706 19.0705 19.9967 19.2025 19.9967C19.3346 19.9967 19.4653 19.9706 19.5871 19.9198C19.709 19.869 19.8196 19.7946 19.9125 19.7009C20.0928 19.5144 20.1935 19.2652 20.1935 19.0059C20.1935 18.7466 20.0928 18.4974 19.9125 18.3109ZM9.20254 16.0209C7.81807 16.0209 6.46469 15.6104 5.31355 14.8412C4.16241 14.072 3.2652 12.9788 2.73538 11.6997C2.20557 10.4206 2.06695 9.01314 2.33704 7.65527C2.60714 6.2974 3.27383 5.05012 4.25279 4.07115C5.23176 3.09219 6.47904 2.4255 7.83691 2.1554C9.19478 1.88531 10.6022 2.02393 11.8813 2.55374C13.1604 3.08356 14.2537 3.98076 15.0228 5.13191C15.792 6.28305 16.2025 7.63643 16.2025 9.0209C16.2025 10.8774 15.465 12.6579 14.1523 13.9706C12.8395 15.2834 11.0591 16.0209 9.20254 16.0209Z" fill="#E5C592"/>
</svg>
