<svg width="201" height="334" viewBox="0 0 201 334" fill="#ffffff" xmlns="http://www.w3.org/2000/svg">
<g>
<path d="M181.843 315.142L187.96 315.151C169.695 301.265 152.994 283.833 138.795 263.756C141.185 261.787 143.125 259.266 144.407 256.442C144.628 255.951 144.932 255.21 144.997 254.447C145.041 253.943 144.982 253.473 144.822 253.051C144.47 252.141 143.621 251.426 142.549 251.145C142.112 251.033 141.636 250.991 141.117 251.011C142.256 248.157 142.989 245.118 143.264 242.029C143.495 239.443 143.405 236.871 142.996 234.368L142.864 233.57L142.697 233.645C145.115 226.759 146.685 219.573 147.331 212.305C147.381 211.705 147.431 211.106 147.475 210.503L146.865 210.463C146.823 211.059 146.78 211.661 146.726 212.253C146.067 219.677 144.438 227.01 141.922 234.016C141.433 234.25 140.952 234.501 140.479 234.769C140.897 233.064 141.199 231.311 141.357 229.528C141.797 224.616 141.159 219.66 139.525 215.201L139.457 215.016C142.29 209.441 145.522 204.065 149.15 198.898L148.65 198.546C145.009 203.729 141.768 209.131 138.921 214.728L138.646 214.89C138.133 215.193 137.63 215.506 137.129 215.834C137.447 214.452 137.681 213.054 137.809 211.633C138.008 209.436 137.952 207.247 137.664 205.117C142.372 198.199 145.021 191.633 145.567 185.524C145.745 183.523 145.701 181.578 145.425 179.676L144.819 179.764C145.881 187.2 143.384 195.483 137.418 204.384L136.984 204.42C134.654 204.628 132.349 205.202 130.164 206.072C131.852 201.517 132.868 196.781 133.794 192.14C135.63 189.175 137.167 186.027 138.24 182.679C139.141 179.861 139.739 176.872 140.019 173.686C140.561 167.59 139.971 160.784 138.253 153.101L137.659 153.235C140.253 164.821 140.262 174.39 137.662 182.489C136.785 185.239 135.584 187.853 134.153 190.344L134.211 190.041L133.402 190.106C129.913 190.381 126.493 191.431 123.408 193.105C125.379 189.1 126.64 184.724 127.048 180.201C127.232 178.126 127.228 176.047 127.031 174.019L126.982 173.482C128.528 168.394 129.557 163.143 130.031 157.857C130.427 153.407 130.426 148.929 130.007 144.507L129.398 144.565C130.308 154.221 129.208 164.114 126.342 173.467L126.256 173.492C123.174 174.36 120.245 175.83 117.647 177.753C117.766 177.395 117.883 177.044 117.99 176.681C118.972 173.393 119.618 169.888 119.969 165.963C120.299 162.261 120.354 158.182 120.153 153.219C120.754 150.119 121.211 146.989 121.487 143.837C122.186 135.978 121.867 128.026 120.488 120.218L119.882 120.326C121.704 130.621 121.656 141.167 119.864 151.411L119.232 151.714C117.729 152.439 116.288 153.284 114.913 154.222C115.734 151.993 116.264 149.731 116.463 147.513C116.613 145.833 116.575 144.17 116.36 142.571L116.276 141.973L115.675 142.048C115.49 142.074 115.304 142.106 115.125 142.134C117.323 136.251 118.746 130.08 119.301 123.847C119.677 119.615 119.656 115.354 119.212 111.141L118.607 111.207C119.713 121.642 118.18 132.364 114.436 142.241C111.11 142.847 107.917 144.189 105.112 146.102C108.253 140.489 110.259 134.195 110.834 127.745C111.005 125.826 111.042 123.888 110.96 121.992C113.45 115.279 115.06 108.24 115.694 101.144C116.008 97.5847 116.08 94.0167 115.894 90.4629L115.287 90.4939C115.822 100.761 114.19 111.189 110.69 120.949L110.134 121.152C107.166 122.236 104.402 123.792 101.934 125.726C101.966 125.654 101.999 125.581 102.027 125.5C103.623 121.565 104.61 117.549 104.965 113.576C105.234 110.541 105.12 107.56 104.636 104.714C108.492 94.0839 111.114 82.9958 112.389 71.7894L111.782 71.722C110.546 82.5983 108.032 93.3597 104.346 103.707L103.707 104.049C102.92 104.472 102.147 104.936 101.398 105.429C103.347 101.29 104.473 97.4138 104.803 93.6704C104.809 93.5742 104.815 93.478 104.823 93.3755C108.098 86.3646 110.174 78.7963 110.863 71.067C111.063 68.7866 111.149 66.4938 111.102 64.1964L110.488 64.2105C110.663 73.6844 108.689 83.1136 104.888 91.7354C104.89 91.5533 104.899 91.3672 104.9 91.1851L104.893 90.3894L104.126 90.5955C101.74 91.2395 99.4736 92.2414 97.3775 93.5353C100.081 88.5469 101.735 82.8928 102.195 77.7846C102.322 76.3906 102.345 75.0302 102.292 73.7272C105.67 64.8507 107.852 55.509 108.691 46.0994C108.754 45.4054 108.807 44.7156 108.855 44.0235L108.245 43.9833C107.593 53.5784 105.522 63.1419 102.19 72.2453C102.17 72.0628 102.161 71.87 102.139 71.6938L102.046 70.9029L101.305 71.1953C99.1959 72.0284 97.1951 73.1314 95.3454 74.4423C97.4497 70.358 99.0366 66.0906 99.7851 62.1935C103.302 54.6363 105.52 46.4655 106.259 38.1572C106.574 34.6333 106.619 31.0836 106.393 27.5438L105.784 27.581C106.516 38.7815 104.425 50.0717 99.9615 60.3188L99.0092 60.8733C94.0637 63.749 88.4742 67.2392 84.7181 72.3114C84.5425 72.5511 84.3732 72.793 84.2101 73.0371C84.1927 72.4695 84.1753 71.9019 84.1579 71.3342C84.5745 68.4988 84.912 65.6494 85.1618 62.79C86.4359 48.502 85.7194 33.9941 82.9978 19.9842L82.3958 20.1011C85.3951 35.5919 85.9416 51.717 84.0403 67.4676C83.9046 61.6224 83.8399 55.6549 83.8591 49.5486L83.642 49.528C83.2986 34.5977 82.3157 19.6517 80.6986 4.87438L80.0933 4.94101C81.7111 19.6764 82.6947 34.5806 83.0367 49.4753L82.853 49.4594C82.8302 57.1085 82.9009 64.552 83.0753 71.8005C83.067 72.1625 83.0649 72.5268 83.0588 72.8825L83.1068 72.8855C83.1136 73.2247 83.1203 73.564 83.1354 73.8992C83.0633 74.3229 82.9997 74.7426 82.9213 75.164C82.8737 75.2595 82.8177 75.359 82.77 75.4544C80.3447 69.1432 75.9962 63.5554 70.3892 59.7894L69.362 59.1032L69.4044 59.799C66.8576 55.3257 65.2538 50.7228 64.26 46.8761C61.7713 37.3211 61.4797 27.2798 61.1909 17.5694L60.5822 17.5858C60.8664 27.3296 61.1616 37.4002 63.6657 47.0309C64.7561 51.2206 66.5503 56.2979 69.4899 61.1487C69.753 64.9405 70.357 69.5757 72.3196 73.737C71.6833 73.4137 71.0405 73.1091 70.3823 72.8482L69.6617 72.5653L69.6189 72.8659C62.4911 61.4944 58.0418 48.5087 56.8013 35.0507L56.192 35.1089C57.4641 48.9149 62.0792 62.226 69.4894 73.8308C68.8507 79.2477 70.0724 84.7962 72.8711 89.2112C71.5028 88.4184 70.121 87.684 68.758 86.9562L66.9992 86.0182L67.0088 86.1901C59.9602 76.1661 55.3197 64.4602 53.7731 52.2695L53.1634 52.3486C54.7651 64.9799 59.6599 77.0986 67.1034 87.3746C67.5109 92.2491 68.7404 96.86 70.6479 100.819C69.3417 100.308 67.9997 99.9387 66.628 99.7132C60.3736 89.7034 56.6053 78.0885 56.0543 66.3553L55.4413 66.3841C55.9893 78.0461 59.6857 89.5864 65.8316 99.5859L65.5188 99.5384L65.6181 100.332C66.3192 106.005 68.0834 111.366 70.6845 115.845C68.6256 115.222 66.5021 114.821 64.3513 114.678L64.3304 114.678C57.3031 106.584 51.8595 97.0791 48.6095 86.9388L48.0251 87.1251C51.2513 97.1938 56.6186 106.637 63.552 114.718L63.7092 115.427C65.2522 122.352 68.9326 128.742 73.9511 133.781C71.4947 133.172 68.8438 132.817 66.0356 132.729L65.2249 132.702L65.4246 133.488C65.458 133.612 65.4914 133.737 65.5248 133.861C57.2025 124.727 51.1824 113.494 48.4299 101.403L47.8338 101.543C50.703 114.139 57.0917 125.817 65.9139 135.184C67.7138 140.783 71.232 145.782 75.7754 149.523C73.4 148.943 70.8502 148.539 68.1299 148.321L67.8084 148.298C60.1478 140.072 54.2359 130.204 50.8441 119.551L50.2785 119.744C53.704 130.5 59.6852 140.47 67.4302 148.775L67.5084 149.09C69.513 157.134 74.537 164.287 81.219 169.121C77.919 168.578 74.533 168.658 71.3005 169.417C60.8756 159.644 53.6368 146.458 51.5967 132.204L50.991 132.292C53.0351 146.554 60.2215 159.75 70.5889 169.586L70.381 169.639L70.478 170.199C71.4897 176.165 75.4676 181.91 81.4722 186.139C80.1203 185.977 78.7545 185.894 77.3873 185.894L76.6848 185.898L76.7836 186.593C76.7987 186.69 76.8222 186.782 76.831 186.877C73.8431 184.472 71.0176 181.865 68.3643 179.088C68.3022 177.592 68.2944 176.102 68.3536 174.6L67.7457 174.574C67.6944 175.854 67.6934 177.131 67.7301 178.401C61.7916 172.033 56.7902 164.775 53.0085 156.861L52.4583 157.13C56.3754 165.316 61.5777 172.799 67.7664 179.333C67.9599 183.64 68.6309 187.906 69.7535 192.044C66.069 187.477 62.8866 182.52 60.3385 177.274L59.7882 177.542C62.5605 183.246 66.0704 188.608 70.1694 193.511C72.095 199.947 75.1135 206.047 79.1341 211.491C81.0607 214.102 83.2034 216.538 85.5273 218.777L85.0539 218.708L85.2977 219.608C87.1879 226.643 91.9081 232.987 98.0647 236.884C95.2489 236.997 92.4401 237.428 89.707 238.202L88.976 238.406L89.0328 238.504C85.8101 236.746 82.7578 234.684 79.9382 232.339C70.8941 224.817 64.262 214.406 61.2674 203.023L60.6731 203.178C63.7033 214.679 70.4066 225.206 79.5475 232.811C82.6392 235.379 86.0044 237.608 89.5681 239.472C91.7789 243.427 94.9152 246.803 98.6434 249.315C98.514 249.304 98.3824 249.3 98.2529 249.289C88.0166 248.616 80.7175 245.992 75.9381 241.269L75.5104 241.708C80.3987 246.539 87.8305 249.224 98.2172 249.908C98.71 249.942 99.205 249.97 99.7022 249.991C101.783 251.268 104.024 252.292 106.382 253C107.073 253.209 107.776 253.38 108.478 253.537C110.071 256.698 113.344 259.21 117.39 260.241C117.796 260.343 118.2 260.429 118.608 260.504C118.583 260.635 118.564 260.769 118.562 260.915C118.564 262.102 119.514 262.929 120.344 263.518C123.219 265.546 125.722 266.641 128.22 266.971C130.988 267.332 133.704 266.608 135.579 265.047C148.811 284.564 164.349 301.437 181.843 315.142ZM137.686 263.083C137.472 263.253 137.252 263.421 137.027 263.482C136.805 263.536 136.563 263.486 136.349 263.396C136.113 263.291 135.898 263.145 135.751 263.023C135.092 262.488 134.603 261.747 134.3 260.896C134.3 260.896 134.302 260.889 134.296 260.887C134.23 260.695 134.173 260.5 134.124 260.3C134.075 260.1 134.037 259.89 134.013 259.678C133.966 259.275 133.952 258.857 133.989 258.434C134.03 257.979 134.121 257.541 134.26 257.127C134.315 256.95 134.385 256.771 134.459 256.601C135.253 254.825 136.96 253.38 139.038 252.655C139.295 252.563 139.56 252.488 139.828 252.422C139.898 252.404 139.967 252.387 140.036 252.369C140.219 252.328 140.397 252.3 140.567 252.276C141.21 252.181 141.76 252.193 142.228 252.316C142.909 252.494 143.459 252.941 143.669 253.479C143.939 254.185 143.571 255.29 143.284 255.925C142.092 258.556 140.291 260.902 138.077 262.751C137.954 262.862 137.822 262.977 137.686 263.083ZM135.204 249.649C137.86 245.212 140.108 240.54 141.943 235.708C142.192 237.747 142.232 239.825 142.049 241.915C141.76 245.125 140.962 248.268 139.72 251.197C136.899 251.842 134.582 253.584 133.462 255.89C133.429 255.962 133.392 256.027 133.36 256.099C133.125 256.627 132.956 257.185 132.859 257.761C132.828 257.947 132.804 258.135 132.786 258.325C132.763 258.569 132.763 258.808 132.763 259.047C132.765 259.103 132.766 259.16 132.767 259.216C132.667 259.062 132.572 258.895 132.493 258.74C132.189 258.149 131.928 257.537 131.717 256.901C131.508 256.301 131.347 255.682 131.22 255.048C131.018 254.029 130.913 252.974 130.919 251.902C130.917 251.431 130.937 250.954 130.979 250.478C130.99 250.348 131.004 250.227 131.021 250.1C131.046 249.849 131.084 249.602 131.122 249.356C131.164 249.076 131.217 248.807 131.272 248.532C131.534 247.27 131.937 246.044 132.476 244.873C133.761 242.099 135.781 239.627 138.345 237.643C138.625 237.426 138.908 237.217 139.205 237.013C139.476 236.821 139.75 236.638 140.029 236.463C140.446 236.196 140.87 235.946 141.305 235.707C139.501 240.431 137.291 244.997 134.699 249.33L135.204 249.649ZM140.138 229.406C139.949 231.556 139.551 233.662 138.962 235.692C135.593 237.933 132.947 240.927 131.352 244.363C130.627 245.924 130.136 247.576 129.881 249.275C129.713 249.335 129.545 249.395 129.371 249.431C128.955 249.537 128.525 249.582 128.087 249.553C126.654 247.93 125.082 246.441 123.393 245.106C122.798 243.59 122.543 241.886 122.623 240.005C122.634 239.756 122.642 239.514 122.661 239.261C122.669 239.179 122.679 239.091 122.693 239.012C122.723 238.707 122.766 238.406 122.811 238.099C122.968 237.074 123.223 236.013 123.557 234.945C123.652 234.656 123.747 234.367 123.848 234.08C123.96 233.761 124.078 233.445 124.211 233.127C124.375 232.722 124.547 232.313 124.732 231.908C127.066 226.873 130.609 222.385 134.933 218.904C135.226 218.67 135.516 218.443 135.813 218.218C136.088 218.014 136.357 217.807 136.636 217.611C137.038 217.325 137.451 217.05 137.861 216.781C133.781 225.164 130.583 233.964 128.317 243.107L128.91 243.254C131.215 233.963 134.487 225.028 138.672 216.528C140.029 220.58 140.532 225.004 140.138 229.406ZM120.939 228.187C123.707 223.152 127.347 218.55 130.868 214.104C132.787 211.681 134.756 209.177 136.591 206.612C136.727 208.218 136.732 209.855 136.589 211.496C136.43 213.32 136.086 215.114 135.596 216.864C130.477 220.591 126.301 225.641 123.639 231.388C123.229 232.275 122.879 233.169 122.571 234.063C121.995 234.323 121.451 234.495 120.94 234.574C120.784 234.596 120.632 234.613 120.475 234.62C119.291 232.826 117.831 231.137 116.125 229.593C116.044 228.947 116.022 228.294 116.047 227.685C116.086 226.877 116.167 226.071 116.287 225.271C116.407 224.472 116.567 223.679 116.773 222.895C116.84 222.625 116.92 222.358 117.002 222.085C117.093 221.788 117.184 221.49 117.287 221.196C118.366 218.034 120.11 215.113 122.422 212.688C123.991 211.04 125.823 209.639 127.822 208.521C128.111 208.356 128.402 208.207 128.696 208.051C128.97 207.909 129.248 207.776 129.53 207.651C131.739 206.636 134.1 205.962 136.499 205.68C134.561 208.434 132.437 211.122 130.379 213.721C126.843 218.19 123.191 222.807 120.392 227.888L120.939 228.187ZM114.295 213.449C120.111 208.201 126.87 202.106 131.981 194.86C131.13 198.869 130.124 202.899 128.586 206.749C125.96 208.016 123.549 209.746 121.545 211.852C118.812 214.717 116.832 218.228 115.749 222.021C115.48 222.129 115.2 222.227 114.912 222.286C114.738 222.323 114.566 222.354 114.393 222.369C113.718 220.046 112.702 217.813 111.427 215.741C111.422 215.297 111.428 214.843 111.446 214.393C111.463 214.006 111.483 213.613 111.521 213.226C111.757 210.544 112.457 207.9 113.536 205.454C113.738 204.999 113.95 204.555 114.175 204.115C114.48 203.528 114.806 202.962 115.15 202.403C115.537 201.782 115.95 201.184 116.391 200.61C117.321 199.402 118.373 198.286 119.525 197.283C120.011 196.859 120.512 196.453 121.033 196.069C121.45 195.76 121.869 195.466 122.304 195.185C125.425 193.152 129.012 191.824 132.703 191.396C132.579 192.026 132.447 192.66 132.321 193.296C127.163 201.017 120.011 207.47 113.897 212.986L114.295 213.449ZM111.972 200.956C118.087 193.883 122.823 185.55 125.945 176.646C125.963 177.789 125.928 178.942 125.827 180.085C125.374 185.133 123.817 189.993 121.38 194.325C119.109 195.838 117.076 197.708 115.419 199.866C114.294 201.328 113.347 202.944 112.577 204.651C111.533 205.468 110.439 206.225 109.304 206.919C109.117 206.494 108.93 206.07 108.726 205.654C107.651 201.281 107.769 196.487 109.009 192.111C109.136 191.671 109.273 191.242 109.416 190.816C109.599 190.277 109.806 189.747 110.024 189.227C110.275 188.635 110.538 188.047 110.836 187.479C111.835 185.558 113.101 183.774 114.571 182.168C114.97 181.733 115.385 181.312 115.808 180.907C116.156 180.574 116.509 180.249 116.872 179.936C119.505 177.674 122.583 175.92 125.873 174.88C125.874 174.894 125.874 174.915 125.876 174.93C122.79 184.331 117.92 193.143 111.51 200.554L111.972 200.956ZM118.749 165.847C118.407 169.684 117.773 173.117 116.819 176.323C116.526 177.315 116.196 178.272 115.837 179.211C113.36 181.388 111.262 184.001 109.748 186.905C108.998 188.338 108.397 189.866 107.931 191.449C106.709 192.609 105.402 193.635 104.023 194.523C103.871 194.617 103.729 194.721 103.571 194.812C103.16 193.789 102.806 192.745 102.5 191.682C102.323 190.054 101.989 188.434 101.498 186.864C101.472 186.658 101.444 186.459 101.418 186.253C101.162 184.015 101.136 181.739 101.341 179.467C101.602 176.514 102.247 173.647 103.266 170.933C103.422 170.511 103.599 170.089 103.773 169.673C103.978 169.191 104.197 168.708 104.421 168.232C104.711 167.626 105.024 167.035 105.356 166.451C107.013 163.499 109.112 160.803 111.569 158.485C112.008 158.072 112.465 157.672 112.925 157.281C113.286 156.973 113.659 156.67 114.034 156.382C115.568 155.191 117.208 154.136 118.934 153.237C118.972 154.086 118.995 154.894 119.015 155.694C116.564 166.597 112.125 177.05 105.826 186.338L106.336 186.68C112.22 177.995 116.501 168.308 119.054 158.192C119.052 160.985 118.954 163.491 118.749 165.847ZM113.031 155.606C108.583 159.121 104.998 163.727 102.74 168.943C101.77 169.828 100.734 170.718 99.6209 171.63C98.9911 172.144 98.3225 172.609 97.7245 172.496C97.6662 172.482 97.6141 172.471 97.5642 172.453C96.7935 172.174 96.4543 170.987 96.3118 170.277C96.0213 168.812 95.8862 167.305 95.8996 165.794C95.9082 165.172 95.9315 164.549 95.9903 163.924C96.2752 160.726 97.2018 157.657 98.6979 154.901C99.1512 154.072 99.6499 153.273 100.2 152.506C101.102 151.26 102.138 150.11 103.28 149.076C106.266 146.37 109.974 144.439 113.898 143.588C110.363 152.353 105.078 160.393 98.3224 166.896L98.7475 167.341C105.663 160.684 111.056 152.437 114.62 143.45C114.821 143.416 115.018 143.374 115.226 143.342C115.631 147.268 114.847 151.525 113.031 155.606ZM109.607 127.626C108.951 135.002 106.376 142.156 102.341 148.28C101.181 149.344 100.122 150.52 99.205 151.789C98.6546 152.556 98.1496 153.353 97.6963 154.182C96.5484 155.411 95.3264 156.572 94.0431 157.648C93.7037 157.935 93.358 158.22 93.0083 158.496C91.7986 154.805 91.3448 150.798 91.7014 146.84C91.7171 146.656 91.7412 146.468 91.7653 146.28C91.9938 144.178 92.4386 142.138 93.0931 140.18C93.3004 139.552 93.5265 138.93 93.7814 138.325C93.9342 137.951 94.0994 137.581 94.2709 137.214C94.59 136.527 94.9444 135.859 95.3152 135.204C95.8908 134.187 96.5285 133.212 97.2241 132.272C97.8918 131.371 98.6175 130.505 99.382 129.687C99.8292 129.214 100.287 128.751 100.767 128.303C103.376 125.871 106.426 123.918 109.76 122.592C109.768 122.848 109.768 123.107 109.77 123.361C106.146 132.536 100.853 141.037 94.154 148.156L94.6025 148.575C101.008 141.773 106.135 133.704 109.767 125.002C109.731 125.88 109.682 126.755 109.607 127.626ZM100.875 125.029C100.532 125.883 100.15 126.731 99.7528 127.58C97.0199 130.164 94.7613 133.254 93.1572 136.694C92.7209 137.634 92.3384 138.601 91.9996 139.583C91.7646 139.872 91.5213 140.165 91.2739 140.449C91.0029 138.093 90.4323 135.772 89.5967 133.546C89.2708 132.68 88.905 131.828 88.5033 130.998C88.5177 130.28 88.549 129.554 88.6114 128.839C88.645 128.465 88.6871 128.087 88.7331 127.717C88.7909 127.275 88.8509 126.826 88.9274 126.389C89.0298 125.78 89.1572 125.179 89.2993 124.577C89.4483 123.935 89.6138 123.305 89.8065 122.679C89.9548 122.198 90.1072 121.725 90.2804 121.253C90.3966 120.943 90.5167 120.642 90.6391 120.334C92.1609 116.57 94.4736 113.128 97.3557 110.259C97.8618 109.758 98.3907 109.271 98.934 108.803C99.3562 108.441 99.7741 108.09 100.217 107.748C101.268 106.934 102.37 106.194 103.523 105.528C103.538 105.624 103.546 105.719 103.562 105.815C100.264 114.643 96.1079 123.139 91.1666 131.119L91.6837 131.442C96.4421 123.763 100.473 115.601 103.715 107.133C104.262 112.885 103.288 119.074 100.875 125.029ZM88.6742 114.965C94.5345 109.83 99.3927 103.639 103.075 96.8068C102.394 100.033 101.13 103.383 99.2479 106.956C94.6979 110.541 91.117 115.394 89.1338 120.827C88.8158 121.69 88.5455 122.577 88.3086 123.468C88.2187 123.107 88.1265 122.751 88.0259 122.4C87.5337 120.633 86.9296 118.924 86.228 117.293C86.1568 116.082 86.1737 114.86 86.2697 113.651C86.2857 113.446 86.308 113.244 86.3303 113.041C86.3526 112.838 86.3687 112.634 86.3972 112.433C86.4627 111.909 86.549 111.385 86.6457 110.872C86.657 110.82 86.6706 110.761 86.6819 110.709C86.7851 110.177 86.9155 109.648 87.0498 109.127C87.1681 108.691 87.2926 108.258 87.4359 107.831C87.7512 106.876 88.1102 105.936 88.5459 105.038C88.858 104.39 89.1992 103.76 89.5653 103.138C89.968 102.453 90.4099 101.795 90.8746 101.152C91.7952 99.8916 92.8314 98.7211 93.9702 97.657C94.5863 97.0819 95.2292 96.5303 95.9008 96.0168C98.2247 94.2351 100.855 92.8565 103.661 91.9961C103.635 92.9272 103.554 93.8741 103.422 94.8243C99.6819 102.26 94.5551 108.995 88.2682 114.506L88.6742 114.965ZM100.968 77.6664C100.467 83.3286 98.316 89.8949 94.8471 95.2862C92.3909 97.2247 90.2743 99.5922 88.6436 102.272C87.8808 102.865 87.096 103.402 86.2726 103.869C86.1706 103.601 86.0602 103.337 85.9497 103.074C85.5281 102.061 85.0412 101.075 84.4931 100.123C84.4272 99.3347 84.3991 98.5387 84.4065 97.7412C84.4101 97.532 84.4199 97.3249 84.4235 97.1156C84.4271 96.9063 84.437 96.6992 84.4468 96.4922C84.4654 96.1408 84.4902 95.7917 84.5212 95.4447C84.6323 94.2136 84.8203 93.0028 85.0854 91.8122C85.092 91.7935 85.0902 91.7788 85.0967 91.7601C85.4837 90.0441 86.0287 88.377 86.7336 86.7735C86.9099 86.3726 87.0901 85.9801 87.2891 85.5943C87.4232 85.3329 87.5635 85.0738 87.7039 84.8146C88.9043 82.6003 90.4153 80.559 92.1753 78.7462C92.7115 78.1989 93.2683 77.673 93.8456 77.1683C95.9891 75.3017 98.4052 73.756 101.008 72.6344C101.072 73.429 101.106 74.2482 101.098 75.0875C97.7511 83.4767 93.3162 91.432 87.9311 98.6019L88.4181 98.9707C93.4994 92.2056 97.7376 84.7493 101.027 76.8803C101.006 77.1395 100.991 77.4009 100.968 77.6664ZM85.1906 82.8939C89.8514 78.3382 93.8336 73.1215 97.0498 67.4723C95.993 70.4533 94.5674 73.4863 92.9082 76.3665C90.1485 78.8083 87.8337 81.7584 86.1988 85.0473C86.0277 85.3938 85.8629 85.7425 85.7105 86.0957C85.4147 86.3981 85.1189 86.7006 84.8213 86.9883C84.6853 87.1157 84.5555 87.2453 84.4217 87.3664C84.1509 86.7021 83.8548 86.0499 83.5397 85.4121C83.1012 84.5271 82.6206 83.6622 82.0913 82.8363C82.0729 82.8088 82.0546 82.7812 82.0425 82.7559C82.0853 82.5745 82.1197 82.3972 82.1625 82.2158C82.2057 82.0135 82.2489 81.8112 82.2962 81.6174C82.4551 80.8875 82.6099 80.1492 82.7563 79.415C82.8434 78.9685 82.9368 78.5243 83.0239 78.0778C83.0356 78.0048 83.0513 77.9402 83.063 77.8671C83.1242 77.7133 83.1832 77.5657 83.2444 77.4119C83.2858 77.3142 83.325 77.2228 83.3664 77.1252C83.6408 76.4853 83.9401 75.8543 84.2831 75.2386C84.706 74.4758 85.1827 73.7391 85.705 73.0325C89.0352 68.5326 93.9348 65.2896 98.4693 62.6053C98.3441 63.1997 98.1958 63.8 98.0307 64.4083C94.611 71.0733 90.1531 77.2027 84.7842 82.4554L85.1906 82.8939ZM70.7396 61.5416C75.969 65.3846 79.9486 70.9051 82.038 77.0553C81.5075 78.3626 81.1186 79.7059 80.8822 81.0541C80.8635 81.0475 80.847 81.0346 80.8283 81.028C78.9847 78.5792 76.7734 76.4775 74.3006 74.8799C74.1014 74.5498 73.9066 74.2071 73.7224 73.8542C71.9947 70.4989 71.2506 66.7195 70.8905 63.3426C73.0446 66.4627 75.7199 69.4163 79.0411 71.8895L79.4028 71.3998C75.8175 68.7209 72.9925 65.4757 70.7662 62.0633C70.7713 61.8897 70.7554 61.7156 70.7396 61.5416ZM70.6647 74.2956C71.6192 74.7105 72.5367 75.2105 73.4261 75.7707C73.9017 76.0723 74.3667 76.3842 74.8167 76.7188C76.3629 77.8623 77.7947 79.211 79.0606 80.7326C79.4006 81.1406 79.7278 81.5651 80.0403 81.9915C80.2527 82.2842 80.4651 82.5769 80.6668 82.8799C80.8646 83.1744 81.0579 83.4814 81.245 83.7862C81.4625 84.1439 81.6716 84.5056 81.8723 84.8714C82.4623 85.9433 82.9866 87.0623 83.4328 88.2237C83.5088 88.4261 83.5847 88.6284 83.6585 88.837C83.6684 88.8686 83.6846 88.9023 83.6945 88.9339C83.7521 89.1087 83.8181 89.2795 83.8695 89.452C83.9789 89.7785 84.0798 90.109 84.1724 90.4435C84.0515 90.9061 83.9431 91.3731 83.841 91.8423C83.5408 93.252 83.347 94.6784 83.2595 96.1213C82.3035 95.7902 81.3783 95.3717 80.4879 94.8742C78.9878 93.361 77.3789 92.0971 75.7132 90.9745C75.1637 90.345 74.6421 89.6762 74.1693 88.9686C71.6033 85.1272 70.3448 80.2604 70.5753 75.4852C73.325 79.5811 76.4278 83.4509 79.8616 87.0377L80.3058 86.6123C76.7118 82.8635 73.489 78.7969 70.649 74.4796C70.6563 74.419 70.6574 74.3562 70.6647 74.2956ZM80.3108 101.409L80.6953 100.934C76.1186 97.1888 72.0114 92.8865 68.461 88.1776C70.6155 89.3257 72.807 90.508 74.9006 91.9083C76.5975 93.0419 78.2332 94.3294 79.7392 95.8657C79.883 96.0148 80.033 96.1661 80.1767 96.3153C81.3673 97.5926 82.4193 99.0245 83.3108 100.554C83.5849 101.03 83.8483 101.516 84.0948 102.01C84.2526 102.319 84.3957 102.629 84.5366 102.946C84.8426 103.63 85.1233 104.325 85.3641 105.035C85.4298 105.227 85.4933 105.425 85.5568 105.623C85.7851 106.328 85.9756 107.041 86.1408 107.766C85.7409 109.022 85.4447 110.321 85.2442 111.646C85.2116 111.838 85.1791 112.03 85.1549 112.218C84.4905 112.074 83.8437 111.881 83.1976 111.645C80.297 107.201 76.5879 103.699 72.4426 101.616C70.5117 98.041 69.1551 93.7712 68.5443 89.2949C72.0007 93.753 75.9402 97.8346 80.3108 101.409ZM79.7624 115.926L80.1571 115.462C75.3068 111.339 71.0649 106.483 67.5484 101.141C68.9187 101.45 70.2549 101.916 71.5508 102.535C71.893 102.699 72.2307 102.874 72.5663 103.056C72.9535 103.27 73.3426 103.499 73.7211 103.738C76.4491 105.447 78.9442 107.818 81.067 110.688C81.3183 111.03 81.5674 111.377 81.808 111.729C82.016 112.034 82.2218 112.346 82.4232 112.67C83.384 114.182 84.2403 115.811 84.9969 117.524C85.3007 118.214 85.5792 118.917 85.8471 119.629C85.941 119.88 86.035 120.131 86.1205 120.385C86.7121 122.09 87.1938 123.867 87.5636 125.703C87.6099 125.93 87.6539 126.164 87.7002 126.39C87.6534 126.683 87.615 126.971 87.5744 127.265C87.5693 127.32 87.5557 127.378 87.5506 127.432C87.3401 127.393 87.1297 127.354 86.9214 127.308C86.7007 127.258 86.4821 127.202 86.2636 127.146C85.4008 125.893 84.4449 124.706 83.3955 123.604C80.3663 120.441 76.5993 118 72.4989 116.465C69.7747 112.217 67.8759 107.019 67.0205 101.445C70.5737 106.843 74.8585 111.756 79.7624 115.926ZM81.8312 130.456L82.1536 129.938C76.0205 126.133 70.4216 121.409 65.5364 116.031C67.6374 116.276 69.7092 116.763 71.6996 117.481C72.0362 117.6 72.3644 117.723 72.6944 117.861C73.0578 118.004 73.423 118.161 73.7799 118.322C77.041 119.792 80.0386 121.87 82.5071 124.455C83.1313 125.111 83.7237 125.798 84.2779 126.513C84.505 126.804 84.7258 127.093 84.936 127.392C85.1279 127.663 85.3197 127.935 85.5031 128.21C86.1594 129.193 86.75 130.223 87.2732 131.286C87.34 131.415 87.4006 131.541 87.4651 131.676C87.6104 131.98 87.7495 132.282 87.8823 132.582C88.1538 133.204 88.3979 133.845 88.6273 134.488C89.4266 136.757 89.944 139.129 90.1391 141.522C90.1601 141.761 90.1833 141.993 90.1918 142.228C90.0213 142.175 89.857 142.124 89.6865 142.07C89.4412 141.991 89.1936 141.917 88.9505 141.831L88.9443 141.829C88.1108 141.548 87.2967 141.232 86.4874 140.883C85.7348 140.034 84.9121 139.245 84.0129 138.533C81.8865 136.848 79.3693 135.515 76.5429 134.544C71.1952 129.802 67.1632 123.555 65.2892 116.673C70.1648 121.998 75.7395 126.672 81.8312 130.456ZM75.9203 135.615C76.4795 135.798 77.0299 136.007 77.5821 136.231C78.7116 136.686 79.829 137.236 80.9071 137.877C81.232 138.069 81.5525 138.274 81.8646 138.482C82.3359 138.796 82.7965 139.121 83.2502 139.485C83.7266 139.864 84.1795 140.27 84.6134 140.69C85.0103 141.076 85.3965 141.472 85.7592 141.895C88.9753 145.623 90.5997 150.486 89.8616 154.871C88.5966 154.641 87.3499 154.319 86.1318 153.916C84.0689 152.548 81.7429 151.409 79.172 150.528C74.304 147.311 70.3382 142.687 68.0302 137.337C72.9112 142.109 78.4435 146.207 84.4928 149.413L84.7823 148.87C78.3725 145.473 72.5299 141.062 67.457 135.899C67.2295 135.271 67.0188 134.635 66.8375 133.995C69.5196 134.123 72.7231 134.561 75.9203 135.615ZM90.3823 165.695L90.6468 165.143C82.6404 161.342 75.3416 156.03 69.1064 149.649C72.6 150 75.7933 150.666 78.6594 151.645C81.2325 152.52 83.5482 153.648 85.588 155.022C85.6892 155.093 85.7927 155.158 85.8939 155.229C88.9638 157.361 91.3971 160.165 92.9707 163.242C94.2064 165.665 94.9083 168.25 94.9565 170.801C94.9609 171.027 94.9548 171.264 94.9361 171.496C94.9354 171.537 94.9244 171.569 94.9175 171.608C94.8458 172.25 94.652 172.701 94.3317 172.973C93.8269 173.391 92.9884 173.403 91.7032 173.012C91.3996 172.919 91.0919 172.817 90.7905 172.717C88.9125 171.541 86.8692 170.614 84.7376 169.959C77.4457 165.702 71.7479 158.71 69.2171 150.628C75.3701 156.805 82.5398 161.966 90.3823 165.695ZM84.2313 171.078C86.3526 171.723 88.3918 172.641 90.253 173.826C90.865 174.217 91.4705 174.628 92.0419 175.076C94.0986 176.681 95.8816 178.645 97.3218 180.846C98.5888 182.782 99.5956 184.9 100.289 187.11C100.789 188.698 101.133 190.328 101.297 191.972C101.343 192.438 101.375 192.905 101.401 193.371C101.274 193.333 101.153 193.297 101.028 193.253C99.7182 192.853 98.3977 192.442 97.0839 192.012C93.3029 189.411 88.9985 187.58 84.5097 186.631C84.0854 186.383 83.6655 186.122 83.254 185.857C77.1773 181.932 73.0547 176.459 71.8256 170.732C78.4299 176.683 86.2341 181.296 94.7713 184.007L94.9548 183.427C86.5756 180.764 78.9056 176.248 72.3975 170.422C76.2947 169.667 80.4046 169.921 84.2313 171.078ZM84.0653 187.793C84.8174 187.947 85.5669 188.128 86.3076 188.334C89.1373 189.117 91.8604 190.263 94.3937 191.748C95.1264 192.176 95.8459 192.641 96.5442 193.127C96.6784 193.223 96.8148 193.314 96.9553 193.412C99.1649 195.001 101.163 196.873 102.921 198.948C104.767 201.131 106.337 203.539 107.577 206.111C107.982 206.949 108.352 207.81 108.688 208.687C108.75 208.849 108.819 209.014 108.879 209.182C108.12 209.188 107.363 209.166 106.613 209.125C106.29 209.109 105.962 209.084 105.64 209.062C104.946 208.486 104.217 207.948 103.467 207.45C99.072 204.541 93.7254 203.022 88.4251 203.063C83.5339 199.494 79.9816 194.413 78.5198 188.969C85.5238 194.282 93.3298 198.552 101.668 201.529L101.872 200.949C93.3534 197.908 85.3971 193.507 78.2852 188.023C78.2172 187.718 78.1533 187.421 78.1001 187.115C80.102 187.163 82.1029 187.394 84.0653 187.793ZM87.097 220.252C93.918 226.363 102.132 230.848 111.041 233.22L111.2 232.631C102.688 230.364 94.8144 226.147 88.2084 220.42C93.2464 221.164 98.3512 222.036 103.198 223.68C103.248 223.698 103.298 223.716 103.348 223.733C104.53 224.138 105.691 224.583 106.837 225.094C109.918 226.457 112.662 228.2 114.969 230.209C115.232 230.436 115.485 230.673 115.739 230.91C115.88 231.044 116.026 231.187 116.162 231.319C116.335 231.485 116.499 231.656 116.67 231.828C117.43 232.617 118.122 233.437 118.747 234.29C118.956 234.574 119.158 234.856 119.351 235.142C119.502 235.371 119.653 235.6 119.802 235.835C120.452 236.893 121.002 237.979 121.435 239.101C121.038 239.213 120.63 239.314 120.225 239.41C118.529 239.806 116.792 240.041 115.041 240.117C110.447 238.113 105.472 236.991 100.45 236.879C100.332 236.816 100.212 236.759 100.094 236.696C93.7876 233.223 88.8483 227.104 86.7256 220.212C86.851 220.214 86.9782 220.231 87.097 220.252ZM101.793 238.203C102.498 238.249 103.202 238.322 103.909 238.404C106.348 238.705 108.765 239.244 111.113 240.004C111.817 240.233 112.509 240.477 113.199 240.749C113.681 240.934 114.164 241.133 114.637 241.342C117.407 242.554 120.036 244.087 122.421 245.914C122.817 246.222 123.211 246.537 123.595 246.862C124.077 247.264 124.54 247.681 124.999 248.11C125.589 248.662 126.165 249.238 126.711 249.838C126.797 249.932 126.885 250.019 126.969 250.119C126.784 250.208 126.598 250.297 126.409 250.377C126.383 250.389 126.352 250.399 126.324 250.417C126.299 250.429 126.274 250.442 126.248 250.454C125.311 249.87 124.317 249.37 123.282 248.983C118.812 247.304 113.618 247.621 109.344 249.745C107.915 249.682 106.492 249.642 105.077 249.597C103.795 249.558 102.485 249.515 101.17 249.465C97.336 247.294 94.0252 244.214 91.599 240.513C98.0189 243.563 104.996 245.449 112.08 245.976L112.126 245.367C104.802 244.826 97.5926 242.823 91.0028 239.559C90.9339 239.436 90.8543 239.324 90.7853 239.201C93.8616 238.408 97.0554 238.078 100.253 238.156C100.761 238.146 101.273 238.166 101.793 238.203ZM106.707 251.837C105.224 251.39 103.79 250.805 102.407 250.113C103.293 250.145 104.181 250.172 105.048 250.198C106.122 250.234 107.198 250.263 108.285 250.304C108.152 250.383 108.012 250.46 107.879 250.539L107.518 250.769L107.609 251.188C107.677 251.513 107.773 251.835 107.879 252.153C107.483 252.063 107.094 251.953 106.707 251.837ZM110.024 253.846C109.879 253.619 109.749 253.391 109.622 253.156C109.504 252.932 109.399 252.712 109.299 252.48C109.14 252.115 109.006 251.738 108.902 251.357C109.502 251.008 110.124 250.695 110.766 250.424C114.555 250.634 118.353 251.037 122.018 251.996C122.153 252.03 122.288 252.064 122.424 252.098L122.489 251.854L122.582 251.508C119.189 250.574 115.684 250.135 112.178 249.898C115.625 248.809 119.459 248.852 122.838 250.125C123.526 250.382 124.193 250.695 124.833 251.048C125.063 251.171 125.285 251.299 125.51 251.435C125.717 251.564 125.93 251.696 126.135 251.831C126.825 252.3 127.475 252.825 128.082 253.39C128.806 254.06 129.475 254.788 130.068 255.574C130.217 256.244 130.4 256.898 130.632 257.535C130.77 257.92 130.93 258.3 131.099 258.676C130.633 258.448 130.154 258.236 129.667 258.064C126.885 257.108 123.719 257.16 120.972 258.21C120.453 258.412 119.71 258.788 119.184 259.367C118.673 259.284 118.163 259.181 117.661 259.053C114.337 258.221 111.587 256.294 110.024 253.846ZM119.807 260.703C119.875 260.489 120.006 260.296 120.17 260.13C120.398 259.901 120.681 259.714 120.93 259.584C121.128 259.479 121.309 259.403 121.415 259.363C123.748 258.469 126.422 258.383 128.82 259.098C128.972 259.144 129.122 259.176 129.271 259.229C129.521 259.317 129.772 259.42 130.017 259.521C130.291 259.639 130.56 259.769 130.827 259.906C131.685 260.357 132.491 260.915 133.216 261.565C133.232 261.578 133.249 261.591 133.259 261.601C133.275 261.635 133.291 261.669 133.307 261.703C133.603 262.397 134.012 263.026 134.518 263.541C134.657 263.682 134.797 263.823 134.95 263.947C134.918 263.978 134.886 264.008 134.854 264.039C133.241 265.434 130.83 266.09 128.346 265.759C126.047 265.458 123.719 264.424 121.018 262.521C120.429 262.102 119.755 261.548 119.757 260.924C119.757 260.924 119.757 260.924 119.759 260.918C119.765 260.843 119.783 260.772 119.807 260.703ZM83.2082 97.4016C83.2042 97.6318 83.2043 97.8705 83.2066 98.1029C82.9759 97.7826 82.7429 97.4686 82.5016 97.1587C82.7322 97.2402 82.9691 97.324 83.2082 97.4016ZM87.3692 104.657C87.2043 105.005 87.0519 105.359 86.9057 105.714C86.8363 105.493 86.7692 105.266 86.6976 105.051C86.9194 104.919 87.1474 104.789 87.3692 104.657ZM84.9607 114.641C84.7138 114.168 84.4584 113.698 84.1925 113.239C84.4733 113.318 84.7524 113.381 85.0399 113.441C84.9975 113.84 84.976 114.239 84.9607 114.641ZM95.412 173.608C95.7546 174.964 96.1055 176.317 96.4609 177.657C95.4959 176.515 94.4374 175.46 93.285 174.512C93.9311 174.509 94.5734 174.357 95.11 173.908C95.2181 173.82 95.3182 173.715 95.412 173.608ZM97.8954 173.743C98.8234 173.755 99.6441 173.196 100.399 172.586C100.88 172.194 101.341 171.803 101.799 171.417C100.929 173.966 100.369 176.632 100.121 179.366C100.064 180.047 100.018 180.733 100.003 181.415C99.2706 178.875 98.5724 176.319 97.8954 173.743ZM89.1699 143.179C89.2926 143.945 89.4153 144.712 89.5402 145.472C89.0963 144.543 88.5746 143.635 87.9811 142.773C88.3716 142.918 88.7728 143.053 89.1699 143.179ZM90.8348 156.268L90.9575 155.701C90.9666 155.655 90.9736 155.615 90.9827 155.569C91.2567 156.901 91.6084 158.212 92.059 159.48C91.0903 158.19 89.9738 156.981 88.7257 155.887C89.2339 155.996 89.7506 156.102 90.2698 156.18L90.8348 156.268ZM94.3398 158.995C94.9886 158.467 95.6231 157.919 96.2348 157.357C95.6762 158.844 95.265 160.389 95.0015 161.974C94.7761 160.982 94.559 159.985 94.3398 158.995ZM90.3369 204.343C94.7555 204.636 99.1235 206.048 102.79 208.475C102.956 208.582 103.117 208.702 103.28 208.816C103.623 209.057 103.964 209.304 104.298 209.569C104.585 209.79 104.867 210.023 105.141 210.261C106.288 211.242 107.353 212.32 108.315 213.489C109.001 214.328 109.636 215.212 110.218 216.127C110.442 216.487 110.666 216.847 110.871 217.221C111.145 217.697 111.402 218.181 111.642 218.673C112.179 219.776 112.641 220.914 113.014 222.085C113.097 222.346 113.168 222.603 113.243 222.868C113.31 223.095 113.371 223.32 113.429 223.552C113.508 223.846 113.578 224.145 113.642 224.441C113.412 224.437 113.18 224.418 112.953 224.408C109.817 224.253 106.718 223.62 103.754 222.579C103.636 222.537 103.517 222.495 103.399 222.453C95.9676 219.747 89.4336 214.453 85.407 207.653C92.0031 212.372 99.2809 216.112 106.934 218.587L107.126 218.002C99.1153 215.407 91.5239 211.424 84.6952 206.369C84.4138 205.834 84.1346 205.294 83.8869 204.743C85.2567 204.476 86.6536 204.332 88.0589 204.302C88.4124 204.294 88.7698 204.294 89.1251 204.301C89.5244 204.301 89.9317 204.319 90.3369 204.343ZM114.827 228.482L114.825 228.488C113.404 227.347 111.85 226.306 110.166 225.373C111.278 225.521 112.388 225.612 113.51 225.651C113.948 226.598 114.387 227.54 114.827 228.482ZM109.757 208.061C110.414 207.669 111.065 207.254 111.689 206.815C111.102 208.502 110.681 210.255 110.444 212.024C110.221 211.482 110.009 210.93 109.794 210.384L110.572 210.364L110.308 209.583C110.143 209.075 109.951 208.565 109.757 208.061ZM101.964 196.09C101.313 195.431 100.636 194.806 99.9313 194.198C100.449 194.361 100.975 194.519 101.493 194.681C101.642 195.154 101.807 195.62 101.964 196.09ZM104.417 195.715C105.45 195.07 106.439 194.353 107.383 193.564C106.769 196.442 106.608 199.445 106.911 202.366C106.773 202.142 106.626 201.922 106.486 201.704C105.776 199.719 105.082 197.726 104.417 195.715ZM121.42 241.65C121.465 242.417 121.576 243.158 121.739 243.869C120.306 242.863 118.81 241.955 117.256 241.153C118.462 241.011 119.649 240.806 120.825 240.513C121.019 240.898 121.218 241.27 121.42 241.65ZM122.116 235.552C122.041 235.827 121.971 236.104 121.908 236.383C121.79 236.159 121.667 235.933 121.549 235.709C121.734 235.662 121.927 235.611 122.116 235.552ZM71.1733 194.701C74.7569 198.818 78.7583 202.585 83.0869 205.92C86.0776 212.059 90.9942 217.188 96.8776 220.687C93.4513 219.945 89.9878 219.429 86.5719 218.936C84.031 216.557 81.703 213.95 79.6191 211.129C75.9252 206.131 73.0837 200.563 71.1733 194.701ZM76.9827 187.779C78.1371 193.599 81.5917 199.137 86.5296 203.151C85.2966 203.248 84.0768 203.427 82.8743 203.697L82.1586 203.858L82.4459 204.535C82.4742 204.594 82.4962 204.651 82.5245 204.71C78.2119 201.29 74.2434 197.429 70.7075 193.217C69.4349 188.928 68.6602 184.499 68.4027 180.014C71.0916 182.79 73.9571 185.383 76.9827 187.779Z" fill="#ffffff"/>
<path d="M193.343 315.915L196.19 313.184C181.51 314.888 165.977 314.242 150.427 311.247C150.66 309.262 150.437 307.222 149.774 305.335C149.658 305.008 149.468 304.527 149.159 304.142C148.955 303.888 148.718 303.696 148.455 303.571C147.886 303.305 147.173 303.352 146.549 303.7C146.296 303.843 146.056 304.037 145.824 304.278C145.081 302.441 144.067 300.699 142.817 299.138C141.772 297.832 140.583 296.675 139.277 295.693L138.86 295.381L138.816 295.49C136.87 291.205 134.396 287.159 131.456 283.488C131.212 283.187 130.967 282.885 130.719 282.585L130.418 282.839C130.664 283.135 130.912 283.435 131.151 283.734C134.155 287.484 136.667 291.625 138.621 296.01C138.498 296.337 138.386 296.669 138.286 297.005C137.72 296.025 137.079 295.074 136.358 294.174C134.372 291.691 131.866 289.67 129.119 288.325L129.005 288.27C127.836 284.409 126.941 280.462 126.324 276.436L125.935 276.495C126.553 280.535 127.455 284.498 128.627 288.375L128.572 288.574C128.468 288.944 128.374 289.315 128.288 289.691C127.819 288.906 127.304 288.151 126.731 287.432C125.844 286.321 124.842 285.327 123.759 284.465C122.862 279.141 121.166 274.901 118.696 271.814C117.887 270.803 116.999 269.917 116.023 269.156L115.781 269.468C119.589 272.453 122.122 277.424 123.317 284.234L123.132 284.444C122.141 285.583 121.326 286.881 120.698 288.262C119.452 285.388 117.813 282.73 116.174 280.156C115.706 277.955 115.016 275.803 114.023 273.766C113.185 272.051 112.13 270.393 110.84 268.785C108.374 265.706 105.066 262.802 100.842 259.996L100.626 260.323C106.996 264.555 111.267 269.004 113.669 273.935C114.488 275.607 115.095 277.361 115.54 279.159L115.432 278.993L115.086 279.385C113.586 281.072 112.465 283.09 111.778 285.248C110.908 282.503 109.543 279.903 107.716 277.616C106.877 276.568 105.948 275.602 104.952 274.747L104.69 274.519C103.14 271.46 101.277 268.556 99.1409 265.885C97.3413 263.637 95.3447 261.553 93.1781 259.682L92.9208 259.982C97.6492 264.069 101.548 269.164 104.386 274.798L104.357 274.848C103.312 276.63 102.606 278.623 102.256 280.68C102.152 280.46 102.049 280.244 101.937 280.028C100.928 278.058 99.6651 276.139 98.0787 274.155C96.5813 272.285 94.7886 270.362 92.4825 268.142C91.3797 266.431 90.1968 264.77 88.9198 263.18C85.7412 259.21 82.0475 255.652 77.9253 252.635L77.6921 252.956C83.1283 256.933 87.8079 261.862 91.5424 267.43L91.3834 267.854C91.0079 268.863 90.7153 269.9 90.4946 270.951C89.8818 269.547 89.1198 268.258 88.2237 267.137C87.5443 266.288 86.7851 265.531 85.9723 264.883L85.6667 264.642L85.4207 264.946C85.3466 265.04 85.2742 265.139 85.204 265.232C83.6027 261.511 81.5129 258.003 78.9919 254.855C77.2796 252.717 75.3704 250.744 73.2855 248.981L73.0339 249.283C78.2002 253.644 82.2682 259.319 84.9312 265.59C83.6556 267.359 82.7699 269.41 82.3193 271.554C81.2765 267.539 79.4026 263.712 76.7942 260.454C76.0183 259.484 75.1718 258.566 74.2882 257.72C72.4527 253.483 70.0627 249.488 67.1939 245.902C65.7529 244.105 64.1956 242.413 62.5249 240.842L62.2567 241.128C67.0826 245.667 70.9729 251.249 73.6973 257.356L73.53 257.699C72.6335 259.53 72.043 261.49 71.7579 263.493C71.7406 263.445 71.7234 263.397 71.7005 263.346C70.6881 260.802 69.3562 258.492 67.7496 256.484C66.5219 254.951 65.1399 253.615 63.6464 252.507C60.699 245.836 56.9742 239.504 52.5709 233.719L52.2587 233.959C56.533 239.573 60.1624 245.705 63.0622 252.168L62.9177 252.613C62.7407 253.162 62.588 253.723 62.46 254.287C61.5201 251.49 60.3158 249.183 58.8002 247.293C58.76 247.246 58.7198 247.198 58.6779 247.147C57.0744 242.42 54.6652 237.97 51.5395 234.065C50.6159 232.915 49.6334 231.809 48.5877 230.761L48.3082 231.042C52.6136 235.373 55.8997 240.643 57.9773 246.355C57.8966 246.269 57.818 246.179 57.7373 246.093L57.3792 245.726L57.1148 246.165C56.293 247.531 55.6862 249.011 55.2889 250.55C54.3212 247.02 52.5695 243.649 50.5059 241.067C49.9431 240.361 49.3475 239.718 48.742 239.135C46.3548 233.494 43.2042 228.171 39.3991 223.417C39.1186 223.067 38.8359 222.722 38.5494 222.378L38.2481 222.632C42.2229 227.389 45.524 232.765 48.0339 238.491C47.9433 238.415 47.8531 238.329 47.7643 238.257L47.3685 237.931L47.1545 238.398C46.5457 239.729 46.1075 241.136 45.8323 242.573C44.9894 239.732 43.8244 237.037 42.4349 234.889C40.7001 229.8 38.0883 225.005 34.7276 220.809C33.3032 219.028 31.7413 217.356 30.0583 215.81L29.7918 216.099C35.1253 220.985 39.1873 227.173 41.6811 233.937L41.4857 234.621C40.4693 238.17 39.4275 242.293 39.9431 246.333C39.9684 246.523 39.9976 246.711 40.0306 246.898C39.7694 246.641 39.5083 246.385 39.2471 246.129C38.1767 244.623 37.0632 243.146 35.9045 241.704C30.1267 234.485 23.3257 228.054 15.8149 222.751L15.5872 223.075C23.8873 228.943 31.3303 236.202 37.4687 244.382C34.7996 241.722 32.1091 238.974 29.3957 236.124L29.2856 236.212C22.4697 229.417 15.3496 222.901 8.00999 216.748L7.75836 217.049C15.0797 223.183 22.1814 229.679 28.9808 236.458L28.8883 236.532C32.2879 240.102 35.6392 243.534 38.9519 246.83C39.1094 247.002 39.2708 247.172 39.4266 247.341L39.4502 247.32C39.6046 247.475 39.759 247.63 39.9155 247.779C40.0708 248.009 40.2283 248.233 40.3798 248.464C40.4003 248.529 40.4186 248.601 40.439 248.666C36.4981 246.814 31.9859 246.158 27.701 246.912L26.9177 247.052L27.2476 247.356C24.0697 246.413 21.2722 244.988 19.0954 243.643C13.6788 240.309 9.0667 235.766 4.60331 231.377L4.32772 231.656C8.80379 236.064 13.4307 240.618 18.8882 243.98C21.2628 245.443 24.3603 247.003 27.8891 247.946C29.7018 249.593 32.049 251.48 34.8163 252.539C34.3765 252.673 33.9419 252.819 33.5197 252.992L33.0587 253.182L33.1728 253.341C24.7904 251.236 16.9332 247.182 10.3568 241.474L10.0995 241.774C16.8458 247.63 24.9252 251.761 33.5428 253.848C35.6609 256.655 38.7024 258.691 41.9714 259.494C40.9821 259.737 40.0125 260.013 39.0545 260.283L37.8189 260.633L37.9 260.709C30.1552 259.195 22.7796 255.822 16.6259 250.841L16.3778 251.15C22.7536 256.312 30.4313 259.763 38.472 261.218C40.8346 263.304 43.4617 264.9 46.1134 265.89C45.2784 266.236 44.49 266.664 43.7519 267.172C36.3825 265.31 29.453 261.59 23.966 256.376L23.6939 256.663C29.1478 261.845 36.0107 265.563 43.325 267.469L43.1585 267.587L43.5582 267.911C46.4133 270.238 49.6236 271.944 52.8291 272.866C51.5944 273.496 50.4291 274.259 49.3656 275.154L49.3558 275.163C42.4814 274.539 35.7138 272.549 29.6825 269.283L29.494 269.631C35.4822 272.874 42.1868 274.869 49.012 275.53L49.4009 275.789C53.2056 278.322 57.765 279.651 62.3438 279.752C60.9306 280.567 59.5401 281.587 58.1958 282.801L57.8069 283.151L58.2504 283.428C58.3213 283.47 58.3921 283.513 58.463 283.556C50.5229 283.026 42.7173 280.491 36.0477 276.094L35.8331 276.426C42.7819 281.005 50.9577 283.583 59.234 283.998C62.5665 285.799 66.4305 286.553 70.2097 286.262C68.8469 287.054 67.4819 288.006 66.1204 289.121L65.9609 289.254C58.7331 288.851 51.5863 286.902 45.2603 283.46L45.0834 283.803C51.4711 287.277 58.6955 289.242 65.9977 289.645L66.1746 289.757C70.6922 292.603 76.2163 293.686 81.4769 292.949C79.7013 294.171 78.1631 295.722 76.999 297.52C67.797 297.633 58.5539 294.733 51.2514 289.012L51.0089 289.324C58.3171 295.047 67.5401 297.975 76.7438 297.917L76.6707 298.035L76.9657 298.252C80.0956 300.576 84.5053 301.471 89.1816 300.755C88.481 301.284 87.8092 301.856 87.174 302.467L86.8494 302.783L87.205 303.062C87.2551 303.1 87.3073 303.133 87.3534 303.173C84.8928 303.39 82.4175 303.44 79.9461 303.334C79.2504 302.665 78.5822 301.975 77.9401 301.25L77.6462 301.51C78.1931 302.128 78.7619 302.723 79.3449 303.297C73.7459 302.989 68.1859 301.847 62.9001 299.855L62.7641 300.226C68.2343 302.285 73.9883 303.441 79.7773 303.715C81.7877 305.633 84.0014 307.318 86.3679 308.742C82.6195 308.264 78.9302 307.379 75.4072 306.077L75.2712 306.448C79.1027 307.863 83.1242 308.789 87.215 309.238C90.9794 311.373 95.1018 312.862 99.3974 313.598C101.457 313.952 103.539 314.127 105.617 314.13L105.366 314.31L105.881 314.62C109.896 317.048 114.918 317.89 119.517 316.951C118.258 318.263 117.145 319.719 116.22 321.301L115.971 321.723L116.041 321.743C113.76 322.366 111.422 322.771 109.066 322.94C101.509 323.483 93.7853 321.603 87.3186 317.645L87.1114 317.983C93.6472 321.98 101.456 323.882 109.095 323.335C111.676 323.147 114.234 322.68 116.722 321.954C119.512 322.806 122.475 322.975 125.327 322.477C125.263 322.53 125.199 322.587 125.134 322.64C120.077 326.903 115.515 328.945 111.188 328.884L111.185 329.279C115.61 329.342 120.261 327.269 125.394 322.944C125.638 322.74 125.88 322.531 126.121 322.319C127.657 321.982 129.155 321.457 130.567 320.733C130.981 320.521 131.385 320.286 131.781 320.046C133.93 320.804 136.571 320.51 138.911 319.181C139.145 319.047 139.372 318.907 139.595 318.759C139.641 318.831 139.692 318.902 139.756 318.971C140.287 319.522 141.097 319.483 141.745 319.385C143.985 319.044 145.637 318.435 146.945 317.471C148.393 316.402 149.332 314.851 149.507 313.286C164.359 316.453 179.102 317.358 193.343 315.915ZM149.611 311.43C149.588 311.605 149.56 311.781 149.483 311.91C149.404 312.035 149.269 312.119 149.129 312.173C148.973 312.23 148.808 312.258 148.685 312.267C148.14 312.313 147.582 312.187 147.062 311.926C147.062 311.926 147.06 311.922 147.056 311.924C146.94 311.864 146.827 311.798 146.715 311.727C146.603 311.656 146.492 311.576 146.386 311.488C146.185 311.321 145.991 311.132 145.82 310.92C145.636 310.689 145.483 310.445 145.363 310.19C145.31 310.083 145.263 309.968 145.221 309.856C144.799 308.675 144.948 307.239 145.59 305.972C145.669 305.815 145.759 305.662 145.854 305.511C145.878 305.472 145.903 305.433 145.927 305.393C145.994 305.293 146.064 305.2 146.132 305.113C146.389 304.781 146.649 304.541 146.922 304.389C147.317 304.167 147.773 304.129 148.11 304.285C148.551 304.493 148.872 305.172 149.022 305.596C149.641 307.354 149.85 309.25 149.645 311.101C149.637 311.207 149.627 311.32 149.611 311.43ZM142.468 306.288C141.725 303.036 140.687 299.857 139.385 296.788C140.41 297.625 141.355 298.574 142.202 299.628C143.499 301.252 144.529 303.071 145.257 304.99C144.234 306.551 143.934 308.397 144.441 309.971C144.458 310.019 144.47 310.066 144.487 310.114C144.613 310.465 144.783 310.8 144.995 311.111C145.064 311.211 145.136 311.31 145.213 311.406C145.311 311.53 145.417 311.641 145.524 311.752C145.55 311.778 145.575 311.804 145.601 311.83C145.486 311.802 145.367 311.767 145.261 311.731C144.857 311.591 144.463 311.423 144.081 311.221C143.716 311.036 143.366 310.82 143.024 310.581C142.476 310.197 141.957 309.754 141.481 309.252C141.27 309.034 141.067 308.803 140.874 308.562C140.821 308.497 140.774 308.434 140.725 308.368C140.625 308.24 140.533 308.108 140.44 307.977C140.335 307.828 140.24 307.679 140.143 307.526C139.702 306.822 139.343 306.071 139.071 305.285C138.432 303.42 138.269 301.366 138.576 299.296C138.609 299.07 138.648 298.847 138.694 298.619C138.735 298.409 138.781 298.2 138.832 297.994C138.907 297.684 138.993 297.378 139.088 297.072C140.356 300.077 141.364 303.19 142.092 306.365L142.468 306.288ZM135.737 294.662C136.607 295.747 137.361 296.905 137.993 298.113C137.426 300.662 137.531 303.238 138.321 305.55C138.68 306.601 139.189 307.589 139.828 308.494C139.776 308.597 139.725 308.7 139.66 308.795C139.514 309.03 139.334 309.242 139.118 309.425C137.728 309.311 136.334 309.32 134.954 309.454C134.001 309.015 133.123 308.336 132.322 307.425C132.216 307.304 132.112 307.187 132.008 307.061C131.975 307.02 131.94 306.975 131.911 306.931C131.789 306.776 131.675 306.617 131.559 306.454C131.176 305.906 130.821 305.299 130.5 304.653C130.415 304.476 130.33 304.298 130.249 304.12C130.159 303.921 130.074 303.721 129.994 303.514C129.889 303.252 129.787 302.985 129.692 302.714C128.532 299.327 128.178 295.655 128.636 292.101C128.668 291.862 128.701 291.627 128.739 291.389C128.776 291.171 128.808 290.955 128.851 290.739C128.91 290.426 128.979 290.113 129.05 289.805C130.891 295.53 133.328 301.054 136.351 306.323L136.692 306.126C133.621 300.772 131.159 295.151 129.314 289.324C131.751 290.603 133.957 292.437 135.737 294.662ZM126.27 302.678C125.312 299.097 124.952 295.329 124.607 291.685C124.418 289.7 124.216 287.654 123.926 285.64C124.705 286.327 125.437 287.086 126.102 287.914C126.842 288.834 127.482 289.823 128.034 290.856C127.317 294.879 127.627 299.096 128.952 302.96C129.157 303.556 129.393 304.129 129.648 304.683C129.497 305.061 129.321 305.385 129.118 305.65C129.056 305.73 128.992 305.805 128.923 305.879C127.572 305.573 126.141 305.44 124.66 305.485C124.334 305.22 124.033 304.926 123.773 304.631C123.431 304.238 123.109 303.827 122.808 303.401C122.508 302.975 122.229 302.534 121.975 302.078C121.886 301.922 121.804 301.762 121.72 301.598C121.63 301.419 121.539 301.24 121.457 301.057C120.548 299.103 120.056 296.965 120.05 294.803C120.044 293.334 120.271 291.863 120.702 290.449C120.763 290.243 120.831 290.043 120.898 289.84C120.962 289.651 121.032 289.465 121.108 289.28C121.681 287.821 122.479 286.451 123.468 285.248C123.795 287.396 124.006 289.596 124.208 291.725C124.557 295.386 124.918 299.168 125.883 302.783L126.27 302.678ZM116.612 298.79C116.975 293.747 117.399 287.889 116.544 282.232C117.936 284.478 119.265 286.804 120.267 289.283C119.611 291.047 119.262 292.93 119.27 294.805C119.277 297.361 119.922 299.879 121.109 302.129C121.032 302.299 120.946 302.47 120.839 302.626C120.774 302.721 120.708 302.812 120.634 302.897C119.285 302.118 117.817 301.533 116.301 301.138C116.101 300.934 115.901 300.72 115.709 300.503C115.544 300.315 115.378 300.123 115.223 299.926C114.137 298.573 113.284 297.029 112.694 295.408C112.586 295.106 112.486 294.805 112.395 294.499C112.275 294.09 112.174 293.681 112.084 293.267C111.987 292.805 111.913 292.342 111.862 291.878C111.756 290.9 111.747 289.91 111.836 288.928C111.872 288.514 111.924 288.101 111.995 287.69C112.051 287.359 112.115 287.035 112.192 286.71C112.736 284.368 113.811 282.147 115.335 280.297C115.559 280.646 115.78 281 116.005 281.352C117.05 287.251 116.603 293.452 116.221 298.752L116.612 298.79ZM109.962 294.015C109.651 287.989 108.137 281.994 105.618 276.455C106.137 276.979 106.635 277.531 107.097 278.108C109.137 280.659 110.58 283.617 111.379 286.722C110.998 288.442 110.887 290.221 111.079 291.966C111.208 293.15 111.488 294.325 111.891 295.464C111.77 296.311 111.599 297.152 111.381 297.982C111.105 297.868 110.829 297.754 110.548 297.652C108.099 296.097 106.017 293.814 104.642 291.223C104.505 290.962 104.377 290.701 104.254 290.438C104.098 290.106 103.959 289.766 103.828 289.427C103.681 289.04 103.541 288.648 103.426 288.251C103.034 286.91 102.827 285.514 102.794 284.109C102.786 283.729 102.791 283.347 102.807 282.97C102.82 282.659 102.84 282.35 102.868 282.042C103.084 279.812 103.732 277.62 104.798 275.665C104.805 275.671 104.814 275.681 104.822 275.687C107.578 281.442 109.244 287.72 109.569 294.034L109.962 294.015ZM97.4594 274.647C99.0114 276.585 100.247 278.466 101.233 280.385C101.539 280.977 101.812 281.57 102.064 282.168C101.884 284.288 102.074 286.442 102.665 288.47C102.955 289.472 103.357 290.452 103.846 291.397C103.795 292.483 103.645 293.545 103.4 294.574C103.371 294.686 103.352 294.798 103.319 294.911C102.672 294.619 102.042 294.291 101.426 293.933C100.618 293.255 99.7405 292.65 98.8119 292.139C98.7083 292.055 98.6064 291.975 98.5028 291.891C97.3858 290.964 96.3591 289.916 95.4411 288.767C94.2462 287.276 93.2678 285.653 92.5315 283.935C92.4156 283.669 92.3096 283.394 92.2054 283.122C92.0857 282.807 91.972 282.483 91.8639 282.162C91.7287 281.75 91.6108 281.335 91.5046 280.915C90.9585 278.801 90.7321 276.607 90.8406 274.431C90.8609 274.042 90.8946 273.652 90.934 273.264C90.9645 272.959 91.0028 272.651 91.0485 272.35C91.2305 271.11 91.5225 269.885 91.9239 268.696C92.3197 269.074 92.6912 269.439 93.057 269.803C96.7784 275.972 99.3758 282.821 100.589 289.96L100.979 289.891C99.8414 283.219 97.5121 276.797 94.1887 270.948C95.4328 272.249 96.5048 273.458 97.4594 274.647ZM90.2366 272.437C89.7361 276.061 90.1235 279.808 91.3999 283.244C91.3433 284.09 91.2588 284.967 91.1479 285.889C91.0844 286.41 90.9811 286.925 90.6527 287.14C90.6195 287.16 90.5902 287.178 90.5592 287.192C90.0763 287.406 89.3896 287.006 89.0067 286.739C88.2189 286.187 87.484 285.546 86.8165 284.837C86.5433 284.544 86.2762 284.243 86.025 283.926C84.7317 282.311 83.794 280.468 83.2609 278.517C83.1019 277.928 82.9774 277.334 82.8914 276.731C82.7548 275.748 82.7236 274.75 82.7934 273.757C82.9748 271.163 83.8375 268.607 85.2819 266.457C87.5464 272.116 88.6747 278.22 88.4341 284.267L88.8301 284.284C89.0761 278.095 87.9056 271.845 85.5558 266.07C85.6341 265.964 85.7068 265.856 85.7891 265.749C87.7277 267.395 89.261 269.726 90.2366 272.437ZM76.1712 260.947C79.1549 264.673 81.1471 269.153 82.002 273.807C81.9372 274.821 81.9694 275.842 82.1091 276.842C82.1952 277.445 82.3157 278.041 82.4748 278.63C82.4893 279.715 82.4389 280.802 82.3222 281.876C82.2925 282.162 82.2588 282.449 82.2195 282.734C80.0115 281.557 78.0143 279.895 76.4152 277.893C76.3405 277.801 76.2679 277.702 76.1953 277.604C75.3644 276.524 74.6619 275.376 74.0931 274.172C73.9092 273.787 73.737 273.396 73.586 273.001C73.4902 272.759 73.4022 272.513 73.318 272.265C73.16 271.803 73.027 271.334 72.9073 270.863C72.7212 270.132 72.5831 269.393 72.4872 268.645C72.396 267.927 72.3471 267.2 72.338 266.478C72.3347 266.057 72.341 265.637 72.3645 265.214C72.4928 262.916 73.0398 260.644 73.9981 258.536C74.1159 258.651 74.2315 258.772 74.3453 258.889C76.7518 264.779 78.0817 271.102 78.1421 277.41L78.5371 277.404C78.4815 271.375 77.267 265.328 75.0755 259.654C75.4505 260.079 75.8177 260.508 76.1712 260.947ZM70.9552 263.642C71.1766 264.193 71.3766 264.758 71.5706 265.331C71.4527 267.756 71.7803 270.203 72.5685 272.521C72.785 273.154 73.0382 273.775 73.3185 274.383C73.3381 274.622 73.3556 274.868 73.3675 275.111C72.1912 274.135 70.8911 273.31 69.5105 272.648C68.9729 272.391 68.4229 272.158 67.8662 271.951C67.5529 271.61 67.2438 271.259 66.9541 270.898C66.8029 270.709 66.6539 270.514 66.5105 270.322C66.3399 270.09 66.1676 269.854 66.0087 269.617C65.7846 269.287 65.5761 268.951 65.3735 268.607C65.1565 268.242 64.9529 267.875 64.763 267.497C64.6175 267.207 64.4777 266.919 64.3478 266.622C64.2636 266.426 64.1851 266.232 64.1048 266.034C63.134 263.602 62.6743 260.966 62.7348 258.343C62.7463 257.883 62.7752 257.42 62.8192 256.959C62.8536 256.602 62.8916 256.252 62.945 255.895C63.0704 255.046 63.2525 254.209 63.4914 253.384C63.5414 253.422 63.5876 253.462 63.6377 253.5C66.0405 259.082 67.8969 264.894 69.1579 270.817L69.5424 270.736C68.3302 265.035 66.565 259.435 64.2961 254.045C67.1148 256.477 69.4217 259.793 70.9552 263.642ZM60.7978 264.414C61.2322 259.404 60.7299 254.351 59.3951 249.526C60.5173 251.331 61.4234 253.455 62.1416 255.959C61.6249 259.662 62.1244 263.521 63.6246 266.936C63.8616 267.48 64.1314 268.013 64.4189 268.534C64.2158 268.406 64.0145 268.282 63.8111 268.163C62.7944 267.561 61.7519 267.036 60.6988 266.591C60.1257 266.059 59.5886 265.482 59.0946 264.877C59.0107 264.775 58.9307 264.67 58.8507 264.566C58.7707 264.462 58.6869 264.359 58.6108 264.253C58.4074 263.98 58.214 263.698 58.0301 263.416C58.0121 263.386 57.9924 263.353 57.9744 263.324C57.7852 263.03 57.6098 262.725 57.44 262.423C57.3008 262.167 57.1656 261.91 57.042 261.648C56.7626 261.062 56.5105 260.464 56.3123 259.851C56.1687 259.41 56.0463 258.964 55.9393 258.512C55.8208 258.012 55.7329 257.509 55.6623 257.002C55.5282 256.004 55.4879 254.996 55.5429 253.991C55.5728 253.448 55.6257 252.904 55.7089 252.365C55.9946 250.497 56.6026 248.679 57.523 247.025C57.9258 247.47 58.3103 247.947 58.6729 248.448C60.2497 253.58 60.8695 259.006 60.4043 264.381L60.7978 264.414ZM49.8828 241.56C52.1744 244.419 54.1021 248.436 54.8935 252.496C54.6161 254.496 54.6879 256.544 55.1247 258.52C55.0347 259.138 54.9092 259.738 54.7346 260.323C54.5679 260.244 54.399 260.171 54.2301 260.098C53.5828 259.815 52.9168 259.574 52.2377 259.376C51.8556 259.039 51.4876 258.681 51.1356 258.306C51.0439 258.207 50.9562 258.106 50.8646 258.007C50.7729 257.908 50.6852 257.808 50.5974 257.707C50.4494 257.535 50.3053 257.362 50.165 257.186C49.6678 256.564 49.2154 255.916 48.8078 255.244C48.8025 255.232 48.7951 255.226 48.7898 255.214C48.2046 254.243 47.7147 253.223 47.3274 252.162C47.2306 251.897 47.1394 251.633 47.0599 251.365C47.0057 251.183 46.9554 251 46.905 250.817C46.4757 249.249 46.268 247.624 46.2778 245.994C46.283 245.499 46.3073 245.005 46.3506 244.513C46.5146 242.686 46.9484 240.886 47.6583 239.2C48.0421 239.542 48.4231 239.908 48.7935 240.302C50.9781 245.702 52.4636 251.387 53.1574 257.131L53.5481 257.085C52.8937 251.665 51.5392 246.3 49.56 241.168C49.6657 241.298 49.7753 241.426 49.8828 241.56ZM44.8807 251.046C45.0158 246.843 44.5408 242.635 43.5171 238.568C44.3549 240.428 45.0445 242.476 45.5574 244.558C45.3635 246.929 45.6029 249.336 46.3093 251.598C46.3843 251.835 46.4631 252.071 46.5497 252.304C46.5471 252.577 46.5445 252.85 46.5344 253.117C46.528 253.237 46.5255 253.355 46.5173 253.471C46.0953 253.283 45.6669 253.112 45.236 252.956C44.6377 252.74 44.0288 252.553 43.4145 252.405C43.3937 252.401 43.3729 252.396 43.356 252.39C43.2951 252.286 43.232 252.188 43.1711 252.085C43.1009 251.971 43.0308 251.858 42.9664 251.746C42.7148 251.336 42.4576 250.923 42.1983 250.516C42.0398 250.269 41.8851 250.021 41.7266 249.774C41.6994 249.735 41.6779 249.698 41.6508 249.658C41.6107 249.559 41.5723 249.464 41.5321 249.365C41.5078 249.301 41.4853 249.241 41.461 249.177C41.3033 248.757 41.1611 248.329 41.046 247.89C40.9025 247.346 40.7956 246.79 40.7233 246.227C40.2649 242.644 41.0962 238.945 42.007 235.668C42.2138 236.001 42.4125 236.347 42.6069 236.704C43.989 241.334 44.6498 246.179 44.4963 251.024L44.8807 251.046ZM28.645 247.57C32.7887 247.021 37.0995 247.811 40.8125 249.739C41.1488 250.584 41.5669 251.383 42.0581 252.116C42.0464 252.122 42.033 252.123 42.0214 252.128C40.0728 251.813 38.1081 251.824 36.2466 252.186C36.0068 252.121 35.7635 252.049 35.5206 251.967C33.2218 251.178 31.191 249.752 29.5181 248.341C31.9102 248.83 34.4704 249.009 37.1166 248.675L37.0664 248.285C34.2058 248.641 31.4461 248.394 28.89 247.801C28.8149 247.718 28.73 247.644 28.645 247.57ZM34.2963 253.539C34.9249 253.305 35.5742 253.128 36.2373 252.991C36.5928 252.919 36.948 252.856 37.3063 252.811C38.5347 252.651 39.8014 252.639 41.0681 252.781C41.408 252.819 41.7494 252.87 42.0847 252.929C42.3139 252.97 42.5431 253.011 42.772 253.062C42.9952 253.111 43.2219 253.167 43.4447 253.226C43.7053 253.295 43.9638 253.37 44.2201 253.45C44.9722 253.685 45.7147 253.971 46.4399 254.313C46.5654 254.373 46.6909 254.433 46.8182 254.497C46.8369 254.507 46.8594 254.516 46.8781 254.526C46.9828 254.582 47.0896 254.632 47.1905 254.689C47.3868 254.792 47.5811 254.901 47.7732 255.015C47.9233 255.284 48.0811 255.55 48.2428 255.814C48.7318 256.604 49.2776 257.355 49.8803 258.065C49.2883 258.339 48.6718 258.557 48.0362 258.724C46.6644 258.69 45.3531 258.822 44.0785 259.044C43.5425 258.997 43.0019 258.918 42.4666 258.801C39.5615 258.16 36.8068 256.458 34.7851 254.133C37.8891 254.809 41.0564 255.223 44.2514 255.357L44.2682 254.961C40.9265 254.823 37.6157 254.371 34.371 253.632C34.3474 253.6 34.3199 253.571 34.2963 253.539ZM50.8672 261.844L50.8343 261.451C47.0374 261.754 43.2105 261.589 39.461 260.984C40.9742 260.556 42.5198 260.126 44.1171 259.842C45.4112 259.611 46.7453 259.478 48.1302 259.52C48.2635 259.525 48.4007 259.529 48.534 259.534C49.6568 259.596 50.7841 259.792 51.8803 260.105C52.2199 260.204 52.5591 260.313 52.894 260.432C53.1049 260.505 53.3097 260.586 53.5163 260.67C53.9634 260.851 54.4041 261.05 54.8324 261.272C54.9484 261.332 55.0662 261.396 55.1839 261.46C55.6045 261.686 56.011 261.933 56.4111 262.196C56.7848 262.959 57.2262 263.696 57.7241 264.403C57.7946 264.506 57.865 264.61 57.9376 264.709C57.5647 264.939 57.1777 265.138 56.7724 265.317C53.4431 264.546 50.1581 264.574 47.3025 265.458C44.8114 264.658 42.2774 263.277 39.9978 261.467C43.5918 261.997 47.2424 262.135 50.8672 261.844ZM57.0842 268.845L57.0608 268.452C52.9684 268.702 48.8323 268.339 44.8161 267.425C45.5908 266.956 46.4194 266.576 47.2981 266.285C47.5298 266.208 47.7651 266.138 48.0021 266.073C48.2776 265.999 48.5605 265.932 48.843 265.874C50.8728 265.45 53.0892 265.437 55.3555 265.824C55.6245 265.871 55.8954 265.921 56.164 265.977C56.3968 266.026 56.6312 266.079 56.8693 266.14C57.9898 266.414 59.1142 266.789 60.2298 267.249C60.6786 267.434 61.121 267.636 61.5631 267.848C61.7186 267.923 61.8741 267.997 62.0275 268.078C63.0622 268.606 64.0785 269.218 65.0691 269.907C65.1917 269.992 65.3162 270.081 65.4388 270.166C65.5474 270.323 65.658 270.474 65.7704 270.629C65.7923 270.657 65.812 270.69 65.8338 270.718C65.7185 270.793 65.6031 270.869 65.486 270.941C65.3611 271.017 65.2344 271.088 65.1078 271.16C64.1483 270.962 63.1747 270.837 62.1961 270.794C59.3781 270.676 56.5389 271.224 53.949 272.343C50.789 271.584 47.5889 270.014 44.7065 267.803C48.7644 268.726 52.9459 269.097 57.0842 268.845ZM64.5234 274.681L64.4426 274.296C59.8959 275.268 55.1874 275.572 50.5195 275.254C51.6051 274.428 52.7851 273.729 54.0304 273.173C54.2399 273.078 54.4473 272.989 54.6621 272.905C54.8946 272.809 55.1345 272.719 55.3722 272.635C57.5429 271.86 59.8626 271.487 62.1625 271.587C62.7451 271.613 63.3266 271.668 63.9031 271.753C64.1383 271.787 64.3696 271.823 64.6006 271.868C64.8108 271.908 65.0209 271.949 65.229 271.995C65.9723 272.159 66.706 272.374 67.4228 272.635C67.5113 272.665 67.5959 272.697 67.6862 272.731C67.8893 272.807 68.0885 272.886 68.2838 272.966C68.6875 273.134 69.0866 273.323 69.4797 273.52C70.8627 274.218 72.161 275.091 73.3182 276.117C73.4345 276.219 73.549 276.317 73.6576 276.422C73.5546 276.474 73.4555 276.523 73.3525 276.575C73.2029 276.647 73.0551 276.724 72.9037 276.792L72.8999 276.794C72.3873 277.036 71.8681 277.253 71.3361 277.452C70.6079 277.394 69.8737 277.394 69.1387 277.465C67.399 277.631 65.635 278.137 63.8882 278.948C59.2891 279.133 54.6298 278.028 50.691 275.663C55.331 275.962 60.0057 275.644 64.5234 274.681ZM64.0764 279.725C64.4182 279.56 64.7671 279.412 65.1234 279.269C65.8514 278.976 66.6158 278.732 67.4027 278.548C67.6393 278.492 67.8795 278.444 68.1176 278.402C68.4766 278.337 68.8353 278.282 69.2084 278.249C69.5989 278.212 69.9903 278.199 70.3793 278.2C70.7358 278.203 71.092 278.214 71.4492 278.249C74.6057 278.546 77.5286 280.083 79.1406 282.453C78.4502 282.912 77.7273 283.319 76.9816 283.677C75.4128 283.962 73.8241 284.472 72.2364 285.211C68.5398 285.891 64.635 285.512 61.1771 284.054C65.5733 284.092 69.9712 283.526 74.2123 282.314L74.1046 281.931C69.611 283.216 64.9291 283.776 60.2696 283.641C59.8839 283.45 59.5024 283.248 59.133 283.032C60.4364 281.892 62.1207 280.664 64.0764 279.725ZM84.2082 287.257L84.085 286.882C78.6695 288.693 72.9091 289.484 67.1662 289.302C68.9466 287.904 70.7278 286.786 72.4962 285.96C74.0822 285.217 75.6613 284.707 77.222 284.434C77.3006 284.422 77.3775 284.406 77.4562 284.394C79.8333 284.013 82.2147 284.231 84.3175 284.959C85.9721 285.534 87.451 286.423 88.6105 287.589C88.7134 287.692 88.816 287.805 88.9108 287.921C88.9291 287.941 88.9379 287.96 88.9524 287.982C89.205 288.312 89.3159 288.609 89.2886 288.879C89.2404 289.299 88.8561 289.68 88.0843 290.072C87.9015 290.164 87.7132 290.255 87.5287 290.343C86.1313 290.635 84.7687 291.117 83.4857 291.765C78.1989 293.044 72.4338 292.338 67.6544 289.708C73.2679 289.832 78.901 289.028 84.2082 287.257ZM83.7494 292.512C85.0229 291.864 86.3798 291.38 87.773 291.099C88.2322 291.008 88.6967 290.928 89.1619 290.881C90.8332 290.708 92.5375 290.825 94.1881 291.206C95.6401 291.54 97.0522 292.076 98.3601 292.794C99.3 293.31 100.187 293.915 100.996 294.606C101.225 294.802 101.448 295.006 101.668 295.211C101.592 295.25 101.52 295.287 101.442 295.322C100.655 295.722 99.8579 296.121 99.0558 296.508C96.139 296.988 93.3221 298.061 90.8127 299.626C90.5047 299.7 90.1933 299.766 89.884 299.827C85.3099 300.717 80.9539 300.013 77.8296 297.898C83.5519 297.714 89.2358 296.372 94.4122 293.817L94.2386 293.465C89.1574 295.972 83.579 297.299 77.9572 297.498C79.4318 295.404 81.455 293.685 83.7494 292.512ZM91.1243 300.365C91.5424 300.101 91.9714 299.85 92.4074 299.614C94.0718 298.714 95.8481 298.03 97.6879 297.588C98.219 297.46 98.7608 297.354 99.3018 297.268C99.4073 297.253 99.511 297.234 99.6203 297.218C101.356 296.969 103.118 296.947 104.86 297.126C106.692 297.317 108.495 297.736 110.218 298.378C110.78 298.587 111.336 298.822 111.883 299.08C111.984 299.128 112.089 299.174 112.192 299.226C111.842 299.567 111.481 299.895 111.114 300.212C110.956 300.349 110.793 300.484 110.633 300.617C110.054 300.66 109.475 300.735 108.905 300.839C105.566 301.45 102.403 303.133 99.9584 305.522C96.094 306.048 92.1776 305.271 89.0711 303.392C94.6949 302.733 100.227 301.23 105.429 298.888L105.266 298.526C99.9503 300.92 94.2906 302.429 88.5402 303.056C88.3727 302.945 88.2109 302.835 88.0495 302.716C89.0015 301.844 90.0342 301.057 91.1243 300.365ZM107.004 314.115C112.899 313.909 118.716 312.324 123.914 309.445L123.725 309.1C118.759 311.85 113.219 313.408 107.596 313.696C110.269 311.79 113.03 309.914 116.016 308.512C116.047 308.498 116.078 308.484 116.109 308.47C116.839 308.129 117.577 307.818 118.337 307.543C120.377 306.8 122.429 306.384 124.397 306.288C124.621 306.276 124.844 306.273 125.067 306.27C125.193 306.269 125.325 306.27 125.447 306.271C125.601 306.271 125.753 306.277 125.91 306.281C126.614 306.308 127.302 306.38 127.972 306.498C128.196 306.537 128.416 306.578 128.633 306.624C128.805 306.663 128.977 306.702 129.151 306.745C129.926 306.947 130.665 307.206 131.366 307.535C131.232 307.765 131.088 307.994 130.942 308.22C130.331 309.162 129.628 310.048 128.848 310.866C125.819 311.987 123.007 313.69 120.623 315.882C120.54 315.906 120.459 315.933 120.376 315.957C115.897 317.16 110.873 316.52 106.814 314.262C106.873 314.207 106.94 314.158 107.004 314.115ZM121.837 315.898C122.186 315.604 122.545 315.324 122.91 315.046C124.178 314.096 125.542 313.266 126.972 312.57C127.401 312.361 127.832 312.166 128.274 311.984C128.58 311.855 128.893 311.731 129.207 311.617C131.034 310.942 132.939 310.481 134.862 310.264C135.184 310.231 135.507 310.201 135.83 310.181C136.234 310.153 136.635 310.139 137.039 310.134C137.56 310.127 138.084 310.138 138.605 310.173C138.687 310.178 138.767 310.179 138.851 310.188C138.804 310.312 138.758 310.437 138.705 310.559C138.699 310.576 138.689 310.594 138.684 310.615C138.678 310.632 138.671 310.649 138.665 310.666C137.969 310.813 137.284 311.026 136.631 311.308C133.805 312.525 131.532 314.995 130.492 317.894C129.8 318.503 129.121 319.121 128.444 319.733C127.83 320.288 127.202 320.854 126.569 321.417C123.819 322.122 120.907 322.168 118.13 321.531C122.473 320.08 126.556 317.838 130.084 314.916L129.834 314.613C126.188 317.635 121.945 319.926 117.427 321.353C117.34 321.327 117.253 321.31 117.166 321.284C118.243 319.54 119.58 317.958 121.101 316.565C121.332 316.334 121.579 316.114 121.837 315.898ZM130.2 320.046C129.311 320.501 128.384 320.87 127.433 321.166C127.859 320.785 128.283 320.4 128.698 320.025C129.213 319.561 129.726 319.094 130.249 318.627C130.223 318.724 130.192 318.822 130.166 318.918L130.101 319.187L130.329 319.341C130.506 319.462 130.695 319.569 130.885 319.67C130.661 319.804 130.431 319.927 130.2 320.046ZM132.637 319.498C132.468 319.457 132.306 319.409 132.142 319.357C131.988 319.305 131.841 319.25 131.691 319.187C131.454 319.088 131.224 318.972 131.006 318.842C131.129 318.411 131.278 317.987 131.456 317.574C133.311 315.978 135.255 314.467 137.386 313.275C137.464 313.231 137.542 313.186 137.62 313.141L137.542 312.999L137.431 312.796C135.438 313.878 133.613 315.241 131.878 316.698C132.994 314.65 134.795 312.956 136.933 312.038C137.368 311.85 137.818 311.697 138.272 311.575C138.434 311.53 138.594 311.49 138.759 311.453C138.913 311.42 139.071 311.386 139.226 311.358C139.756 311.267 140.292 311.221 140.826 311.213C141.462 311.201 142.097 311.241 142.723 311.341C143.091 311.586 143.468 311.809 143.859 312.002C144.095 312.12 144.339 312.224 144.585 312.324C144.267 312.426 143.949 312.542 143.647 312.679C141.927 313.478 140.479 314.918 139.671 316.634C139.519 316.961 139.342 317.468 139.355 317.972C139.081 318.162 138.798 318.342 138.508 318.507C136.592 319.606 134.455 319.938 132.637 319.498ZM140.241 318.316C140.177 318.185 140.152 318.037 140.154 317.886C140.158 317.678 140.206 317.464 140.264 317.293C140.309 317.155 140.359 317.039 140.39 316.973C141.076 315.514 142.28 314.279 143.714 313.539C143.805 313.493 143.889 313.441 143.982 313.398C144.137 313.328 144.3 313.264 144.459 313.201C144.639 313.133 144.822 313.074 145.007 313.018C145.607 312.844 146.23 312.744 146.857 312.722C146.87 312.721 146.883 312.719 146.893 312.72C146.916 312.728 146.938 312.737 146.961 312.745C147.407 312.936 147.878 313.046 148.343 313.06C148.471 313.063 148.598 313.066 148.724 313.055C148.723 313.084 148.722 313.112 148.721 313.141C148.593 314.511 147.765 315.894 146.463 316.851C145.261 317.739 143.718 318.298 141.614 318.62C141.153 318.689 140.593 318.732 140.316 318.441C140.316 318.441 140.316 318.441 140.314 318.437C140.283 318.399 140.26 318.358 140.241 318.316ZM50.4272 258.684C50.528 258.793 50.6344 258.904 50.7391 259.011C50.4891 258.965 50.2409 258.923 49.9905 258.887C50.1341 258.822 50.2815 258.755 50.4272 258.684ZM55.5955 260.2C55.6744 260.436 55.761 260.668 55.8515 260.899C55.7207 260.827 55.5881 260.751 55.4591 260.684C55.5033 260.523 55.5513 260.36 55.5955 260.2ZM58.9275 265.923C58.6017 265.813 58.2738 265.709 57.9455 265.614C58.111 265.525 58.269 265.43 58.4292 265.329C58.5874 265.534 58.7555 265.729 58.9275 265.923ZM90.0737 288.691C90.8377 289.169 91.6037 289.642 92.3662 290.106C91.4088 290.007 90.4464 289.989 89.4882 290.063C89.7871 289.773 90.0179 289.415 90.0672 288.966C90.0782 288.877 90.0779 288.783 90.0737 288.691ZM91.2879 287.644C91.7247 287.235 91.857 286.608 91.9356 285.986C91.9849 285.589 92.0243 285.201 92.0654 284.817C92.7977 286.392 93.7256 287.882 94.8293 289.265C95.1063 289.608 95.391 289.948 95.6878 290.272C94.2153 289.417 92.7512 288.54 91.2879 287.644ZM73.6066 277.322C74.0053 277.623 74.404 277.925 74.8009 278.223C74.1804 277.989 73.5333 277.8 72.8729 277.664C73.1191 277.557 73.3657 277.44 73.6066 277.322ZM80.2157 282.668L80.0198 282.349C80.0036 282.324 79.9892 282.302 79.973 282.277C80.6942 282.774 81.4419 283.227 82.2168 283.616C81.1914 283.448 80.1335 283.385 79.0656 283.434C79.3506 283.258 79.6378 283.076 79.9141 282.88L80.2157 282.668ZM83.0608 282.371C83.1267 281.835 83.1774 281.296 83.2109 280.761C83.6141 281.702 84.1122 282.606 84.6961 283.461C84.149 283.1 83.604 282.733 83.0608 282.371ZM101.418 305.263C103.602 303.424 106.261 302.128 109.047 301.618C109.172 301.594 109.301 301.578 109.427 301.558C109.694 301.517 109.962 301.479 110.236 301.454C110.468 301.428 110.703 301.41 110.936 301.398C111.907 301.342 112.882 301.368 113.851 301.482C114.543 301.565 115.233 301.693 115.911 301.859C116.176 301.926 116.44 301.993 116.702 302.076C117.042 302.175 117.377 302.285 117.708 302.407C118.449 302.68 119.171 303.003 119.866 303.381C120.022 303.466 120.169 303.553 120.322 303.643C120.454 303.719 120.583 303.797 120.714 303.878C120.881 303.98 121.047 304.087 121.209 304.197C121.1 304.298 120.984 304.392 120.874 304.489C119.348 305.819 117.625 306.91 115.783 307.751C115.71 307.784 115.636 307.818 115.562 307.851C110.902 309.914 105.505 310.372 100.602 309.007C105.771 308.255 110.821 306.741 115.481 304.472L115.31 304.114C110.43 306.487 105.126 308.027 99.6987 308.728C99.3295 308.605 98.9586 308.478 98.5979 308.333C99.1157 307.596 99.7005 306.904 100.341 306.263C100.501 306.101 100.667 305.941 100.835 305.785C101.021 305.607 101.219 305.433 101.418 305.263ZM123.561 305.547L123.563 305.551C122.394 305.655 121.207 305.866 120.009 306.185C120.591 305.756 121.148 305.302 121.687 304.819C122.313 305.064 122.937 305.306 123.561 305.547ZM112.101 298.311C112.231 297.835 112.349 297.351 112.443 296.867C112.922 297.915 113.508 298.919 114.187 299.848C113.841 299.696 113.497 299.534 113.154 299.375L113.506 299.018L113.035 298.773C112.732 298.61 112.416 298.459 112.101 298.311ZM103.142 296.224C102.545 296.209 101.952 296.22 101.354 296.253C101.667 296.097 101.982 295.935 102.295 295.779C102.575 295.933 102.859 296.076 103.142 296.224ZM104.115 294.953C104.307 294.191 104.447 293.415 104.534 292.626C105.532 294.24 106.796 295.709 108.239 296.933C108.075 296.891 107.909 296.854 107.746 296.815C106.531 296.209 105.321 295.591 104.115 294.953ZM132.496 308.728C132.859 309.065 133.241 309.36 133.634 309.618C132.519 309.791 131.419 310.037 130.339 310.358C130.837 309.753 131.297 309.127 131.713 308.465C131.974 308.557 132.232 308.641 132.496 308.728ZM130.101 305.579C130.188 305.741 130.28 305.901 130.375 306.059C130.22 306.007 130.062 305.957 129.908 305.905C129.972 305.801 130.04 305.691 130.101 305.579ZM88.2123 309.343C91.7133 309.657 95.2522 309.621 98.7508 309.238C102.878 310.758 107.449 310.947 111.744 309.945C109.821 311.131 107.981 312.439 106.174 313.737C103.932 313.766 101.688 313.594 99.4615 313.212C95.5163 312.538 91.7137 311.218 88.2123 309.343ZM87.8265 303.525C90.9575 305.717 95.0321 306.75 99.1164 306.41C98.5867 307.007 98.0997 307.636 97.661 308.299L97.4001 308.693L97.8355 308.88C97.875 308.895 97.9106 308.912 97.9501 308.926C94.4209 309.263 90.8555 309.241 87.3341 308.861C84.8304 307.434 82.4958 305.719 80.3768 303.747C82.8641 303.837 85.3517 303.763 87.8265 303.525Z" fill="#ffffff"/>
</g>
</svg>
