<svg width="201" height="334" viewBox="0 0 201 334" fill="#ffffff" xmlns="http://www.w3.org/2000/svg">
<g>
<path d="M18.7971 315.142L12.6803 315.151C30.9452 301.265 47.6461 283.833 61.8451 263.756C59.4552 261.787 57.5157 259.266 56.2338 256.442C56.0121 255.951 55.7088 255.21 55.6434 254.447C55.5992 253.943 55.658 253.473 55.818 253.051C56.1703 252.141 57.0193 251.426 58.0911 251.145C58.5282 251.033 59.0042 250.991 59.523 251.011C58.3847 248.157 57.651 245.118 57.3763 242.029C57.1458 239.443 57.2354 236.871 57.644 234.368L57.7766 233.57L57.943 233.645C55.5251 226.759 53.9549 219.573 53.3095 212.305C53.2595 211.705 53.2094 211.106 53.1656 210.503L53.7754 210.463C53.817 211.059 53.8608 211.661 53.9149 212.253C54.5735 219.677 56.2026 227.01 58.7187 234.016C59.2078 234.25 59.6887 234.501 60.1616 234.769C59.7435 233.064 59.4416 231.311 59.2834 229.528C58.8436 224.616 59.4818 219.66 61.1152 215.201L61.1831 215.016C58.3508 209.441 55.1184 204.065 51.4903 198.898L51.9902 198.546C55.6311 203.729 58.8723 209.131 61.7196 214.728L61.9942 214.89C62.5074 215.193 63.0104 215.506 63.5114 215.834C63.1929 214.452 62.9598 213.054 62.8309 211.633C62.6322 209.436 62.6886 207.247 62.9761 205.117C58.2684 198.199 55.6197 191.633 55.0736 185.524C54.895 183.524 54.9389 181.578 55.2157 179.676L55.8213 179.764C54.7596 187.2 57.2559 195.483 63.2227 204.384L63.6561 204.42C65.9864 204.628 68.2917 205.202 70.4767 206.072C68.7887 201.517 67.7728 196.781 66.8464 192.14C65.0101 189.175 63.4738 186.027 62.4003 182.679C61.4989 179.861 60.9019 176.872 60.6214 173.686C60.0797 167.59 60.6693 160.784 62.3875 153.101L62.9814 153.235C60.3875 164.821 60.3784 174.39 62.9782 182.489C63.8554 185.239 65.0564 187.853 66.4873 190.344L66.4298 190.041L67.2379 190.106C70.7276 190.381 74.147 191.431 77.2321 193.105C75.2609 189.1 74.0004 184.724 73.5923 180.201C73.4082 178.126 73.4122 176.047 73.6094 174.019L73.6588 173.482C72.1121 168.394 71.0832 163.143 70.6098 157.857C70.2135 153.407 70.2139 148.929 70.6334 144.507L71.2427 144.565C70.332 154.222 71.4323 164.114 74.2982 173.467L74.3843 173.492C77.4661 174.36 80.3952 175.83 82.9933 177.753C82.8743 177.395 82.7574 177.044 82.6509 176.681C81.6683 173.393 81.0227 169.888 80.6709 165.963C80.3418 162.261 80.2863 158.182 80.4874 153.219C79.8864 150.119 79.4292 146.989 79.1534 143.837C78.4539 135.978 78.773 128.026 80.1524 120.218L80.7584 120.326C78.9368 130.621 78.9842 141.167 80.7762 151.411L81.4086 151.714C82.9116 152.439 84.3519 153.284 85.7269 154.222C84.9067 151.993 84.3766 149.731 84.1775 147.513C84.0274 145.833 84.0657 144.17 84.2807 142.571L84.3645 141.973L84.9658 142.048C85.1502 142.074 85.3368 142.106 85.515 142.134C83.3171 136.251 81.894 130.08 81.3395 123.847C80.9636 119.615 80.9845 115.354 81.4284 111.141L82.0338 111.207C80.9274 121.642 82.46 132.364 86.2046 142.241C89.5307 142.847 92.723 144.189 95.528 146.102C92.3876 140.489 90.3813 134.195 89.8063 127.745C89.6354 125.826 89.5979 123.888 89.6803 121.992C87.1901 115.279 85.5806 108.24 84.9465 101.144C84.6324 97.5847 84.5606 94.0167 84.7462 90.4629L85.353 90.4939C84.8187 100.761 86.4508 111.189 89.9509 120.949L90.5063 121.152C93.4747 122.236 96.238 123.792 98.7067 125.726C98.6741 125.654 98.6415 125.581 98.6129 125.5C97.0171 121.565 96.0303 117.549 95.6756 113.576C95.4061 110.541 95.52 107.56 96.0042 104.715C92.1484 94.0839 89.5265 82.9958 88.2511 71.7894L88.8583 71.722C90.0946 82.5983 92.6084 93.3597 96.2942 103.707L96.9335 104.049C97.7206 104.472 98.4937 104.936 99.2422 105.429C97.2937 101.29 96.1672 97.4138 95.8374 93.6704C95.8316 93.5742 95.8257 93.478 95.8177 93.3755C92.5426 86.3646 90.4662 78.7963 89.7773 71.067C89.5772 68.7867 89.4917 66.4938 89.538 64.1964L90.1529 64.2105C89.977 73.6844 91.9515 83.1136 95.7519 91.7355C95.7509 91.5533 95.7414 91.3672 95.7403 91.1851L95.7476 90.3894L96.5142 90.5955C98.9001 91.2395 101.167 92.2414 103.263 93.5353C100.56 88.5469 98.9051 82.8928 98.4452 77.7847C98.3188 76.3906 98.2955 75.0303 98.3483 73.7272C94.9701 64.8507 92.7879 55.509 91.9489 46.0994C91.8868 45.4054 91.8332 44.7156 91.7857 44.0235L92.3955 43.9833C93.0475 53.5784 95.1184 63.1419 98.4504 72.2453C98.4702 72.0628 98.4795 71.87 98.5015 71.6938L98.5946 70.9029L99.3355 71.1953C101.445 72.0284 103.445 73.1314 105.295 74.4423C103.191 70.358 101.604 66.0906 100.855 62.1935C97.3387 54.6363 95.1203 46.4655 94.3817 38.1572C94.0661 34.6333 94.0219 31.0836 94.2475 27.5438L94.8564 27.581C94.1249 38.7815 96.215 50.0717 100.679 60.3188L101.631 60.8733C106.577 63.749 112.166 67.2392 115.922 72.3114C116.098 72.5511 116.267 72.793 116.43 73.0371C116.448 72.4695 116.465 71.9019 116.483 71.3342C116.066 68.4988 115.728 65.6494 115.479 62.79C114.204 48.502 114.921 33.9941 117.643 19.9842L118.245 20.1011C115.245 35.5919 114.699 51.717 116.6 67.4676C116.736 61.6224 116.801 55.6549 116.781 49.5486L116.998 49.528C117.342 34.5977 118.325 19.6517 119.942 4.87438L120.547 4.94101C118.929 19.6764 117.946 34.5806 117.604 49.4753L117.787 49.4594C117.81 57.1085 117.739 64.552 117.565 71.8005C117.573 72.1625 117.575 72.5268 117.582 72.8825L117.534 72.8855C117.527 73.2248 117.52 73.564 117.505 73.8992C117.577 74.3229 117.641 74.7426 117.719 75.164C117.767 75.2595 117.823 75.359 117.87 75.4544C120.296 69.1432 124.644 63.5554 130.251 59.7894L131.278 59.1032L131.236 59.799C133.783 55.3257 135.387 50.7229 136.38 46.8761C138.869 37.3211 139.161 27.2798 139.45 17.5694L140.058 17.5858C139.774 27.3296 139.479 37.4002 136.975 47.0309C135.884 51.2206 134.09 56.2979 131.15 61.1487C130.887 64.9405 130.283 69.5757 128.321 73.737C128.957 73.4137 129.6 73.1091 130.258 72.8482L130.979 72.5653L131.021 72.8659C138.149 61.4944 142.599 48.5087 143.839 35.0507L144.448 35.1089C143.176 48.9149 138.561 62.226 131.151 73.8308C131.79 79.2477 130.568 84.7963 127.769 89.2112C129.138 88.4184 130.519 87.684 131.882 86.9562L133.641 86.0182L133.632 86.1901C140.68 76.1661 145.321 64.4602 146.867 52.2695L147.477 52.3487C145.875 64.9799 140.98 77.0986 133.537 87.3746C133.129 92.2491 131.9 96.86 129.992 100.819C131.299 100.308 132.641 99.9387 134.012 99.7132C140.267 89.7034 144.035 78.0885 144.586 66.3553L145.199 66.3841C144.651 78.0461 140.955 89.5865 134.809 99.5859L135.122 99.5385L135.022 100.332C134.321 106.005 132.557 111.366 129.956 115.845C132.015 115.222 134.138 114.821 136.289 114.678L136.31 114.678C143.337 106.584 148.781 97.0791 152.031 86.9388L152.615 87.1252C149.389 97.1938 144.022 106.637 137.088 114.718L136.931 115.427C135.388 122.352 131.708 128.742 126.689 133.781C129.146 133.172 131.797 132.817 134.605 132.729L135.416 132.702L135.216 133.488C135.182 133.612 135.149 133.737 135.116 133.861C143.438 124.727 149.458 113.494 152.21 101.403L152.807 101.544C149.937 114.139 143.549 125.817 134.726 135.184C132.927 140.783 129.408 145.782 124.865 149.523C127.24 148.943 129.79 148.539 132.51 148.321L132.832 148.298C140.493 140.072 146.404 130.204 149.796 119.551L150.362 119.744C146.936 130.5 140.955 140.47 133.21 148.775L133.132 149.09C131.127 157.134 126.103 164.287 119.421 169.121C122.721 168.578 126.107 168.658 129.34 169.417C139.765 159.644 147.004 146.458 149.044 132.205L149.649 132.292C147.605 146.554 140.419 159.75 130.052 169.586L130.259 169.639L130.162 170.199C129.151 176.165 125.173 181.91 119.168 186.139C120.52 185.977 121.886 185.894 123.253 185.894L123.956 185.898L123.857 186.593C123.842 186.69 123.818 186.782 123.809 186.877C126.797 184.472 129.623 181.865 132.276 179.088C132.338 177.592 132.346 176.102 132.287 174.6L132.895 174.574C132.946 175.854 132.947 177.131 132.91 178.401C138.849 172.033 143.85 164.775 147.632 156.861L148.182 157.13C144.265 165.316 139.063 172.799 132.874 179.333C132.68 183.64 132.01 187.906 130.887 192.044C134.571 187.477 137.754 182.52 140.302 177.274L140.852 177.542C138.08 183.246 134.57 188.608 130.471 193.511C128.545 199.947 125.527 206.047 121.506 211.491C119.58 214.102 117.437 216.538 115.113 218.777L115.586 218.708L115.343 219.608C113.452 226.643 108.732 232.987 102.576 236.884C105.391 236.997 108.2 237.428 110.933 238.202L111.664 238.407L111.608 238.504C114.83 236.746 117.883 234.684 120.702 232.339C129.746 224.817 136.378 214.406 139.373 203.023L139.967 203.178C136.937 214.679 130.234 225.206 121.093 232.812C118.001 235.379 114.636 237.608 111.072 239.472C108.862 243.427 105.725 246.803 101.997 249.315C102.126 249.304 102.258 249.3 102.387 249.289C112.624 248.616 119.923 245.992 124.702 241.269L125.13 241.708C120.242 246.539 112.81 249.224 102.423 249.908C101.93 249.942 101.435 249.97 100.938 249.991C98.857 251.268 96.6168 252.292 94.2583 253C93.5678 253.209 92.8642 253.38 92.1624 253.537C90.5693 256.698 87.2969 259.21 83.2505 260.241C82.8446 260.343 82.4405 260.429 82.0321 260.504C82.0573 260.635 82.0763 260.769 82.0789 260.915C82.0763 262.102 81.1267 262.929 80.2964 263.518C77.4212 265.546 74.9188 266.641 72.42 266.971C69.652 267.332 66.9365 266.608 65.0616 265.047C51.8293 284.564 36.2916 301.437 18.7971 315.142ZM62.954 263.083C63.1681 263.253 63.3884 263.421 63.6131 263.482C63.8357 263.536 64.0773 263.486 64.2911 263.396C64.5276 263.292 64.7426 263.145 64.8889 263.023C65.5487 262.488 66.0377 261.747 66.3408 260.896C66.3408 260.896 66.3386 260.889 66.3448 260.887C66.4105 260.695 66.4678 260.5 66.5166 260.3C66.5655 260.1 66.6037 259.89 66.6272 259.678C66.6746 259.276 66.6883 258.857 66.6518 258.434C66.6105 257.979 66.5194 257.541 66.3806 257.127C66.3253 256.95 66.2553 256.771 66.1813 256.601C65.3877 254.825 63.68 253.38 61.6021 252.655C61.3454 252.563 61.0807 252.488 60.812 252.422C60.7427 252.404 60.6734 252.387 60.6041 252.369C60.4216 252.328 60.2434 252.3 60.0736 252.276C59.4302 252.181 58.8806 252.193 58.4123 252.316C57.7317 252.494 57.1813 252.941 56.971 253.479C56.7009 254.185 57.069 255.29 57.3559 255.925C58.5488 258.556 60.3494 260.902 62.5637 262.751C62.6868 262.862 62.8184 262.977 62.954 263.083ZM65.4367 249.649C62.7808 245.212 60.5326 240.54 58.6976 235.708C58.4484 237.747 58.4088 239.825 58.5911 241.915C58.8804 245.125 59.6786 248.268 60.9206 251.197C63.7413 251.842 66.0584 253.584 67.1788 255.89C67.2114 255.962 67.2481 256.027 67.2807 256.099C67.5155 256.627 67.684 257.185 67.7817 257.761C67.812 257.947 67.8362 258.135 67.8541 258.325C67.8771 258.569 67.877 258.808 67.8769 259.047C67.8758 259.103 67.8747 259.16 67.8736 259.216C67.9734 259.062 68.0687 258.895 68.1476 258.74C68.451 258.149 68.7123 257.537 68.923 256.901C69.1322 256.301 69.293 255.682 69.4201 255.048C69.6221 254.029 69.7273 252.974 69.7214 251.902C69.7238 251.431 69.703 250.954 69.6614 250.478C69.6508 250.348 69.6362 250.227 69.6193 250.1C69.5941 249.849 69.5564 249.602 69.5187 249.356C69.4763 249.076 69.4236 248.807 69.3687 248.532C69.1066 247.27 68.703 246.044 68.1644 244.873C66.8791 242.099 64.859 239.628 62.2953 237.643C62.0156 237.426 61.7319 237.217 61.4357 237.013C61.1648 236.821 60.8899 236.638 60.6109 236.463C60.1945 236.196 59.77 235.946 59.3352 235.707C61.139 240.431 63.3499 244.997 65.9414 249.33L65.4367 249.649ZM60.5022 229.406C60.6918 231.556 61.0896 233.662 61.6785 235.692C65.0473 237.933 67.6931 240.927 69.2887 244.363C70.0138 245.924 70.5042 247.576 70.7592 249.275C70.9274 249.335 71.0957 249.395 71.2699 249.432C71.6856 249.537 72.1149 249.582 72.5534 249.553C73.9868 247.93 75.5585 246.441 77.2477 245.106C77.8425 243.59 78.0976 241.886 78.0172 240.005C78.0066 239.756 77.9983 239.514 77.9793 239.261C77.9716 239.179 77.9617 239.091 77.9478 239.012C77.9175 238.707 77.8747 238.406 77.8297 238.099C77.672 237.074 77.4176 236.013 77.0835 234.945C76.9887 234.656 76.8938 234.367 76.7927 234.08C76.6806 233.761 76.5623 233.445 76.4293 233.127C76.2656 232.722 76.0934 232.313 75.9087 231.908C73.5748 226.873 70.0316 222.385 65.707 218.904C65.4145 218.671 65.1242 218.443 64.8276 218.218C64.5524 218.014 64.2833 217.807 64.004 217.611C63.6019 217.325 63.1895 217.05 62.7793 216.781C66.8599 225.164 70.057 233.964 72.3235 243.107L71.7302 243.254C69.4257 233.963 66.153 225.028 61.968 216.528C60.6119 220.58 60.1088 225.004 60.5022 229.406ZM79.7018 228.187C76.9331 223.152 73.2939 218.55 69.7722 214.104C67.8532 211.681 65.8848 209.177 64.0491 206.612C63.9136 208.218 63.9083 209.855 64.0515 211.496C64.2104 213.32 64.5548 215.114 65.0448 216.864C70.1638 220.591 74.3397 225.641 77.0015 231.388C77.4118 232.275 77.7617 233.169 78.0698 234.063C78.6449 234.323 79.1894 234.495 79.7008 234.574C79.8559 234.596 80.0088 234.613 80.1657 234.62C81.3495 232.826 82.8089 231.138 84.5155 229.593C84.5964 228.947 84.6186 228.294 84.5935 227.685C84.5545 226.878 84.4738 226.071 84.3534 225.271C84.2331 224.472 84.0731 223.679 83.8673 222.896C83.7999 222.625 83.7201 222.358 83.638 222.085C83.5472 221.788 83.4564 221.49 83.3531 221.196C82.2744 218.034 80.5308 215.113 78.2188 212.689C76.6497 211.04 74.8173 209.639 72.8184 208.521C72.5291 208.356 72.2381 208.207 71.9448 208.051C71.6706 207.909 71.3923 207.776 71.1101 207.651C68.9017 206.636 66.5404 205.962 64.1418 205.68C66.079 208.434 68.2032 211.122 70.2611 213.721C73.7977 218.19 77.4499 222.807 80.2486 227.888L79.7018 228.187ZM86.3454 213.449C80.5291 208.201 73.7702 202.106 68.6597 194.86C69.5104 198.869 70.5162 202.899 72.0541 206.749C74.6808 208.016 77.0916 209.746 79.095 211.852C81.8285 214.717 83.808 218.228 84.8913 222.021C85.1607 222.129 85.4404 222.227 85.7279 222.287C85.902 222.323 86.074 222.354 86.2478 222.369C86.9228 220.046 87.9381 217.813 89.2133 215.741C89.2182 215.297 89.2125 214.843 89.1943 214.393C89.1772 214.006 89.1579 213.613 89.1199 213.226C88.8835 210.544 88.1838 207.9 87.1048 205.454C86.9026 204.999 86.6901 204.555 86.4651 204.115C86.1602 203.528 85.8348 202.962 85.4907 202.403C85.1038 201.782 84.69 201.184 84.2495 200.61C83.3193 199.402 82.2674 198.286 81.115 197.283C80.629 196.859 80.1286 196.453 79.6078 196.069C79.1906 195.76 78.7716 195.466 78.3362 195.185C75.2156 193.152 71.6283 191.824 67.9374 191.396C68.0611 192.026 68.1933 192.66 68.3192 193.296C73.4776 201.017 80.6295 207.47 86.743 212.986L86.3454 213.449ZM88.6686 200.956C82.5534 193.883 77.8173 185.55 74.6957 176.646C74.6777 177.789 74.7121 178.942 74.8133 180.085C75.2659 185.133 76.8233 189.993 79.26 194.325C81.5313 195.838 83.5641 197.708 85.2214 199.866C86.3461 201.328 87.2937 202.944 88.0631 204.651C89.1078 205.468 90.2016 206.225 91.3362 206.919C91.5233 206.494 91.7105 206.07 91.9145 205.654C92.9891 201.281 92.8712 196.487 91.6315 192.111C91.5048 191.671 91.3678 191.242 91.2246 190.816C91.0419 190.277 90.8341 189.747 90.6162 189.227C90.3656 188.635 90.1025 188.047 89.8042 187.479C88.8054 185.558 87.5392 183.774 86.0691 182.168C85.6707 181.733 85.2558 181.312 84.8328 180.907C84.4843 180.574 84.1317 180.249 83.7688 179.936C81.1355 177.674 78.0574 175.92 74.7678 174.88C74.7659 174.894 74.7663 174.915 74.7645 174.93C77.8507 184.331 82.7205 193.143 89.13 200.554L88.6686 200.956ZM81.8919 165.847C82.2338 169.684 82.8676 173.117 83.8217 176.323C84.1147 177.315 84.4447 178.272 84.8037 179.212C87.2808 181.388 89.3786 184.001 90.8919 186.905C91.642 188.338 92.2431 189.866 92.7093 191.449C93.9314 192.609 95.2388 193.635 96.6172 194.523C96.7693 194.617 96.9111 194.721 97.0695 194.812C97.4805 193.789 97.8347 192.745 98.1404 191.682C98.3173 190.054 98.6512 188.434 99.1427 186.864C99.1684 186.658 99.1963 186.459 99.2221 186.253C99.4784 184.015 99.504 181.739 99.2998 179.467C99.038 176.514 98.3929 173.647 97.3741 170.933C97.2185 170.511 97.0419 170.089 96.8675 169.673C96.6627 169.191 96.4432 168.708 96.2197 168.232C95.9292 167.626 95.6159 167.035 95.2839 166.451C93.6276 163.499 91.5284 160.803 89.0719 158.485C88.632 158.072 88.1757 157.672 87.7153 157.281C87.3546 156.973 86.9815 156.67 86.6065 156.382C85.0725 155.191 83.4321 154.136 81.7065 153.237C81.6688 154.086 81.6451 154.894 81.6254 155.694C84.0769 166.597 88.5149 177.05 94.8145 186.338L94.304 186.68C88.4204 177.995 84.1397 168.308 81.5868 158.192C81.5888 160.985 81.6862 163.491 81.8919 165.847ZM87.6092 155.606C92.0577 159.121 95.6427 163.727 97.9002 168.943C98.8708 169.828 99.9063 170.718 101.02 171.63C101.649 172.144 102.318 172.609 102.916 172.496C102.974 172.482 103.026 172.471 103.076 172.453C103.847 172.174 104.186 170.987 104.329 170.277C104.619 168.812 104.754 167.305 104.741 165.794C104.732 165.172 104.709 164.549 104.65 163.924C104.365 160.726 103.439 157.657 101.942 154.901C101.489 154.072 100.99 153.273 100.44 152.506C99.5385 151.26 98.5027 150.11 97.3602 149.076C94.3744 146.37 90.666 144.439 86.742 143.588C90.2773 152.353 95.5624 160.394 102.318 166.896L101.893 167.341C94.9779 160.684 89.5846 152.437 86.0205 143.45C85.8193 143.416 85.622 143.374 85.4145 143.342C85.0095 147.268 85.7934 151.525 87.6092 155.606ZM91.0335 127.626C91.6892 135.002 94.2643 142.156 98.2998 148.28C99.4596 149.344 100.519 150.52 101.435 151.789C101.986 152.556 102.491 153.353 102.944 154.182C104.092 155.411 105.314 156.572 106.597 157.648C106.937 157.935 107.282 158.22 107.632 158.496C108.842 154.805 109.296 150.798 108.939 146.84C108.923 146.656 108.899 146.468 108.875 146.28C108.647 144.178 108.202 142.138 107.547 140.18C107.34 139.552 107.114 138.93 106.859 138.325C106.706 137.951 106.541 137.581 106.369 137.214C106.05 136.527 105.696 135.859 105.325 135.204C104.75 134.187 104.112 133.212 103.416 132.272C102.749 131.371 102.023 130.505 101.258 129.687C100.811 129.214 100.354 128.751 99.8736 128.303C97.2646 125.871 94.2144 123.918 90.8801 122.592C90.872 122.848 90.8723 123.107 90.8703 123.361C94.4942 132.536 99.7872 141.037 106.486 148.156L106.038 148.575C99.6326 141.773 94.5059 133.704 90.8735 125.002C90.9095 125.88 90.9579 126.755 91.0335 127.626ZM99.7651 125.029C100.108 125.883 100.49 126.731 100.888 127.58C103.62 130.164 105.879 133.254 107.483 136.694C107.92 137.634 108.302 138.601 108.641 139.583C108.876 139.872 109.119 140.165 109.366 140.449C109.637 138.093 110.208 135.772 111.044 133.546C111.37 132.68 111.735 131.828 112.137 130.998C112.123 130.28 112.091 129.554 112.029 128.839C111.995 128.465 111.953 128.087 111.907 127.717C111.849 127.275 111.789 126.826 111.713 126.389C111.611 125.78 111.483 125.179 111.341 124.577C111.192 123.935 111.027 123.305 110.834 122.679C110.686 122.198 110.533 121.725 110.36 121.253C110.244 120.943 110.124 120.642 110.001 120.334C108.48 116.57 106.167 113.128 103.285 110.26C102.779 109.758 102.25 109.271 101.706 108.804C101.284 108.441 100.866 108.09 100.424 107.748C99.3726 106.934 98.2707 106.194 97.1178 105.528C97.1027 105.624 97.0939 105.719 97.0788 105.815C100.377 114.643 104.533 123.139 109.474 131.119L108.957 131.442C104.198 123.763 100.168 115.601 96.9259 107.133C96.3787 112.885 97.3527 119.074 99.7651 125.029ZM111.966 114.965C106.106 109.83 101.248 103.639 97.5658 96.8068C98.2464 100.033 99.5102 103.383 101.392 106.956C105.942 110.541 109.523 115.394 111.507 120.827C111.825 121.69 112.095 122.577 112.332 123.468C112.422 123.107 112.514 122.751 112.614 122.4C113.107 120.633 113.711 118.924 114.412 117.293C114.484 116.082 114.467 114.86 114.371 113.651C114.355 113.446 114.332 113.244 114.31 113.041C114.288 112.838 114.272 112.634 114.243 112.433C114.178 111.909 114.091 111.385 113.995 110.872C113.983 110.82 113.97 110.761 113.958 110.709C113.855 110.177 113.725 109.648 113.591 109.127C113.472 108.691 113.348 108.258 113.205 107.831C112.889 106.876 112.53 105.936 112.095 105.038C111.782 104.39 111.441 103.76 111.075 103.138C110.672 102.453 110.23 101.795 109.766 101.152C108.845 99.8916 107.809 98.7211 106.67 97.6571C106.054 97.0819 105.411 96.5303 104.74 96.0169C102.416 94.2351 99.785 92.8565 96.9793 91.9961C97.0058 92.9272 97.0869 93.8741 97.2182 94.8243C100.958 102.26 106.085 108.995 112.372 114.506L111.966 114.965ZM99.6724 77.6664C100.173 83.3286 102.324 89.8949 105.793 95.2862C108.249 97.2248 110.366 99.5922 111.997 102.272C112.76 102.865 113.544 103.402 114.368 103.869C114.47 103.601 114.58 103.337 114.691 103.074C115.112 102.061 115.599 101.075 116.147 100.123C116.213 99.3347 116.241 98.5387 116.234 97.7413C116.23 97.532 116.22 97.3249 116.217 97.1156C116.213 96.9063 116.203 96.6993 116.194 96.4922C116.175 96.1408 116.15 95.7917 116.119 95.4447C116.008 94.2136 115.82 93.0028 115.555 91.8122C115.548 91.7935 115.55 91.7788 115.544 91.7601C115.157 90.0441 114.612 88.377 113.907 86.7735C113.731 86.3726 113.55 85.9802 113.351 85.5943C113.217 85.333 113.077 85.0738 112.937 84.8146C111.736 82.6003 110.225 80.559 108.465 78.7462C107.929 78.1989 107.372 77.673 106.795 77.1683C104.651 75.3017 102.235 73.756 99.632 72.6345C99.5683 73.429 99.5343 74.2482 99.5424 75.0875C102.889 83.4767 107.324 91.432 112.709 98.6019L112.222 98.9707C107.141 92.2057 102.903 84.7493 99.6129 76.8803C99.6341 77.1395 99.6491 77.4009 99.6724 77.6664ZM115.45 82.8939C110.789 78.3382 106.807 73.1215 103.591 67.4723C104.647 70.4533 106.073 73.4863 107.732 76.3665C110.492 78.8083 112.807 81.7584 114.442 85.0473C114.613 85.3938 114.778 85.7426 114.93 86.0957C115.226 86.3981 115.521 86.7006 115.819 86.9883C115.955 87.1157 116.085 87.2453 116.219 87.3664C116.489 86.7021 116.786 86.0499 117.101 85.4121C117.539 84.5271 118.02 83.6622 118.549 82.8363C118.567 82.8088 118.586 82.7812 118.598 82.7559C118.555 82.5745 118.521 82.3972 118.478 82.2158C118.435 82.0136 118.391 81.8113 118.344 81.6174C118.185 80.8876 118.03 80.1492 117.884 79.415C117.797 78.9685 117.704 78.5243 117.616 78.0779C117.605 78.0048 117.589 77.9402 117.577 77.8671C117.516 77.7133 117.457 77.5657 117.396 77.4119C117.355 77.3142 117.315 77.2228 117.274 77.1252C117 76.4853 116.7 75.8543 116.357 75.2387C115.934 74.4758 115.458 73.7391 114.935 73.0325C111.605 68.5326 106.706 65.2896 102.171 62.6053C102.296 63.1997 102.445 63.8 102.61 64.4083C106.029 71.0734 110.487 77.2027 115.856 82.4554L115.45 82.8939ZM129.901 61.5416C124.671 65.3846 120.692 70.9051 118.602 77.0554C119.133 78.3626 119.522 79.7059 119.758 81.0541C119.777 81.0475 119.793 81.0346 119.812 81.028C121.656 78.5792 123.867 76.4775 126.34 74.8799C126.539 74.5498 126.734 74.2072 126.918 73.8542C128.646 70.4989 129.39 66.7195 129.75 63.3426C127.596 66.4627 124.92 69.4163 121.599 71.8895L121.238 71.3998C124.823 68.7209 127.648 65.4758 129.874 62.0634C129.869 61.8897 129.885 61.7157 129.901 61.5416ZM129.976 74.2957C129.021 74.7105 128.104 75.2105 127.214 75.7707C126.739 76.0723 126.274 76.3842 125.824 76.7188C124.277 77.8623 122.846 79.211 121.58 80.7326C121.24 81.1406 120.913 81.5652 120.6 81.9915C120.388 82.2842 120.175 82.5769 119.974 82.8799C119.776 83.1744 119.582 83.4814 119.395 83.7863C119.178 84.1439 118.969 84.5057 118.768 84.8714C118.178 85.9434 117.654 87.0623 117.208 88.2238C117.132 88.4261 117.056 88.6284 116.982 88.837C116.972 88.8686 116.956 88.9023 116.946 88.9339C116.888 89.1087 116.822 89.2795 116.771 89.452C116.661 89.7785 116.561 90.109 116.468 90.4435C116.589 90.9061 116.697 91.3731 116.799 91.8423C117.1 93.2521 117.293 94.6784 117.381 96.1213C118.337 95.7902 119.262 95.3717 120.152 94.8743C121.653 93.3611 123.261 92.0971 124.927 90.9745C125.477 90.345 125.998 89.6762 126.471 88.9686C129.037 85.1272 130.296 80.2604 130.065 75.4852C127.315 79.5811 124.213 83.4509 120.779 87.0377L120.335 86.6123C123.929 82.8635 127.151 78.7969 129.991 74.4796C129.984 74.419 129.983 74.3562 129.976 74.2957ZM120.33 101.409L119.945 100.934C124.522 97.1888 128.629 92.8866 132.179 88.1776C130.025 89.3257 127.833 90.508 125.74 91.9083C124.043 93.0419 122.407 94.3294 120.901 95.8657C120.757 96.0148 120.607 96.1661 120.464 96.3153C119.273 97.5926 118.221 99.0245 117.33 100.554C117.056 101.03 116.792 101.516 116.546 102.01C116.388 102.319 116.245 102.629 116.104 102.946C115.798 103.63 115.517 104.325 115.276 105.035C115.211 105.227 115.147 105.425 115.084 105.623C114.855 106.328 114.665 107.041 114.5 107.766C114.9 109.022 115.196 110.321 115.396 111.646C115.429 111.838 115.461 112.03 115.485 112.218C116.15 112.075 116.797 111.881 117.443 111.645C120.343 107.201 124.052 103.7 128.198 101.616C130.129 98.041 131.485 93.7712 132.096 89.2949C128.64 93.7531 124.7 97.8346 120.33 101.409ZM120.878 115.926L120.483 115.462C125.334 111.339 129.576 106.483 133.092 101.141C131.722 101.45 130.386 101.916 129.09 102.535C128.747 102.699 128.41 102.874 128.074 103.056C127.687 103.27 127.298 103.499 126.919 103.738C124.191 105.447 121.696 107.818 119.573 110.688C119.322 111.03 119.073 111.377 118.832 111.729C118.624 112.034 118.419 112.346 118.217 112.67C117.256 114.182 116.4 115.811 115.644 117.524C115.34 118.214 115.061 118.917 114.793 119.629C114.699 119.88 114.605 120.131 114.52 120.385C113.928 122.09 113.447 123.867 113.077 125.703C113.031 125.93 112.986 126.164 112.94 126.39C112.987 126.683 113.025 126.971 113.066 127.265C113.071 127.32 113.085 127.378 113.09 127.432C113.3 127.393 113.511 127.354 113.719 127.308C113.94 127.258 114.158 127.202 114.377 127.146C115.24 125.893 116.195 124.706 117.245 123.604C120.274 120.441 124.041 118 128.141 116.465C130.866 112.217 132.764 107.019 133.62 101.445C130.067 106.843 125.782 111.756 120.878 115.926ZM118.809 130.456L118.487 129.938C124.62 126.133 130.219 121.409 135.104 116.031C133.003 116.276 130.931 116.763 128.941 117.481C128.604 117.6 128.276 117.723 127.946 117.861C127.583 118.004 127.217 118.161 126.861 118.322C123.599 119.792 120.602 121.87 118.133 124.455C117.509 125.111 116.917 125.798 116.362 126.513C116.135 126.804 115.915 127.093 115.704 127.392C115.513 127.663 115.321 127.935 115.137 128.21C114.481 129.193 113.89 130.223 113.367 131.286C113.3 131.415 113.24 131.541 113.175 131.676C113.03 131.98 112.891 132.282 112.758 132.582C112.487 133.204 112.242 133.845 112.013 134.488C111.214 136.757 110.696 139.129 110.501 141.522C110.48 141.761 110.457 141.993 110.449 142.228C110.619 142.175 110.783 142.124 110.954 142.07C111.199 141.991 111.447 141.917 111.69 141.831L111.696 141.829C112.53 141.548 113.344 141.232 114.153 140.883C114.906 140.034 115.728 139.245 116.628 138.533C118.754 136.848 121.271 135.515 124.098 134.544C129.445 129.802 133.477 123.555 135.351 116.673C130.476 121.998 124.901 126.672 118.809 130.456ZM124.72 135.615C124.161 135.799 123.61 136.007 123.058 136.231C121.929 136.686 120.811 137.236 119.733 137.877C119.408 138.069 119.088 138.274 118.776 138.482C118.304 138.796 117.844 139.121 117.39 139.485C116.914 139.864 116.461 140.27 116.027 140.69C115.63 141.076 115.244 141.472 114.881 141.895C111.665 145.623 110.041 150.486 110.779 154.871C112.044 154.641 113.29 154.319 114.509 153.916C116.571 152.548 118.898 151.409 121.468 150.528C126.336 147.311 130.302 142.687 132.61 137.337C127.729 142.109 122.197 146.207 116.148 149.413L115.858 148.87C122.268 145.473 128.111 141.062 133.183 135.899C133.411 135.271 133.622 134.635 133.803 133.995C131.121 134.123 127.917 134.561 124.72 135.615ZM110.258 165.695L109.994 165.143C118 161.342 125.299 156.03 131.534 149.649C128.04 150 124.847 150.666 121.981 151.645C119.408 152.52 117.092 153.648 115.052 155.022C114.951 155.093 114.848 155.158 114.747 155.229C111.677 157.361 109.243 160.165 107.67 163.242C106.434 165.665 105.732 168.25 105.684 170.801C105.679 171.027 105.686 171.264 105.704 171.496C105.705 171.537 105.716 171.569 105.723 171.608C105.795 172.25 105.988 172.701 106.309 172.973C106.813 173.391 107.652 173.403 108.937 173.012C109.241 172.919 109.548 172.817 109.85 172.717C111.728 171.541 113.771 170.614 115.903 169.959C123.195 165.702 128.893 158.71 131.423 150.628C125.27 156.805 118.101 161.966 110.258 165.695ZM116.409 171.078C114.288 171.723 112.249 172.641 110.387 173.826C109.775 174.218 109.17 174.628 108.598 175.076C106.542 176.681 104.759 178.645 103.319 180.846C102.052 182.782 101.045 184.9 100.351 187.11C99.8515 188.698 99.5074 190.328 99.3433 191.972C99.297 192.438 99.2653 192.905 99.2398 193.371C99.3667 193.333 99.4873 193.297 99.612 193.253C100.922 192.853 102.243 192.442 103.556 192.012C107.338 189.411 111.642 187.58 116.131 186.631C116.555 186.383 116.975 186.122 117.386 185.857C123.463 181.932 127.586 176.459 128.815 170.732C122.211 176.683 114.406 181.296 105.869 184.007L105.686 183.427C114.065 180.764 121.735 176.248 128.243 170.422C124.346 169.667 120.236 169.921 116.409 171.078ZM116.575 187.793C115.823 187.947 115.074 188.128 114.333 188.334C111.503 189.117 108.78 190.263 106.247 191.748C105.514 192.176 104.794 192.641 104.096 193.127C103.962 193.223 103.826 193.314 103.685 193.413C101.475 195.001 99.4777 196.873 97.7197 198.948C95.8736 201.131 94.3031 203.539 93.0637 206.111C92.6579 206.949 92.2881 207.81 91.9519 208.687C91.8899 208.849 91.8217 209.014 91.7618 209.182C92.5208 209.188 93.2772 209.166 94.027 209.125C94.3508 209.109 94.6786 209.084 95.0001 209.062C95.6947 208.486 96.4235 207.948 97.1738 207.451C101.568 204.541 106.915 203.022 112.215 203.063C117.106 199.494 120.659 194.413 122.121 188.969C115.117 194.282 107.311 198.552 98.9724 201.529L98.768 200.949C107.287 197.908 115.243 193.507 122.355 188.023C122.423 187.718 122.487 187.422 122.54 187.115C120.538 187.163 118.538 187.394 116.575 187.793ZM113.543 220.252C106.722 226.363 98.5082 230.848 89.5993 233.22L89.4408 232.631C97.9522 230.364 105.826 226.147 112.432 220.42C107.394 221.164 102.289 222.036 97.4422 223.68C97.3924 223.698 97.3425 223.716 97.2926 223.733C96.1101 224.138 94.9491 224.583 93.8039 225.094C90.7228 226.457 87.9786 228.2 85.6717 230.209C85.408 230.436 85.1549 230.673 84.9019 230.91C84.7599 231.044 84.6139 231.187 84.4782 231.319C84.3055 231.485 84.1412 231.656 83.9706 231.829C83.2107 232.617 82.5182 233.437 81.8931 234.29C81.6848 234.574 81.4826 234.856 81.2889 235.142C81.1382 235.371 80.9874 235.6 80.8388 235.835C80.188 236.893 79.6381 237.979 79.2058 239.101C79.6028 239.213 80.0101 239.314 80.4153 239.41C82.1112 239.806 83.8483 240.041 85.5994 240.117C90.1935 238.113 95.1686 236.991 100.19 236.879C100.308 236.816 100.429 236.759 100.547 236.696C106.853 233.223 111.792 227.104 113.915 220.212C113.789 220.214 113.662 220.231 113.543 220.252ZM98.8479 238.203C98.1421 238.249 97.4388 238.322 96.7315 238.404C94.2928 238.705 91.8749 239.244 89.5278 240.004C88.823 240.233 88.131 240.477 87.4416 240.749C86.9598 240.934 86.4761 241.133 86.0031 241.342C83.233 242.554 80.6043 244.087 78.219 245.914C77.823 246.222 77.4291 246.537 77.0458 246.862C76.5635 247.264 76.1003 247.681 75.6415 248.11C75.051 248.663 74.4755 249.238 73.9298 249.838C73.8436 249.932 73.7552 250.019 73.6712 250.119C73.8567 250.208 74.0422 250.297 74.2317 250.377C74.257 250.389 74.2885 250.399 74.316 250.417C74.3413 250.43 74.3666 250.442 74.3919 250.454C75.3289 249.87 76.3238 249.37 77.3582 248.983C81.8282 247.304 87.0225 247.621 91.2965 249.745C92.7254 249.682 94.1483 249.642 95.5629 249.597C96.8458 249.558 98.1559 249.515 99.47 249.465C103.304 247.294 106.615 244.214 109.041 240.513C102.621 243.563 95.6442 245.449 88.56 245.976L88.514 245.367C95.8384 244.826 103.048 242.823 109.638 239.559C109.707 239.436 109.786 239.324 109.855 239.201C106.779 238.408 103.585 238.078 100.388 238.156C99.8796 238.146 99.3678 238.166 98.8479 238.203ZM93.9331 251.837C95.416 251.39 96.8505 250.805 98.233 250.113C97.3472 250.145 96.4592 250.172 95.592 250.198C94.5181 250.234 93.442 250.263 92.3556 250.304C92.4886 250.383 92.6279 250.46 92.761 250.539L93.1224 250.769L93.0314 251.188C92.9638 251.513 92.8669 251.835 92.7616 252.153C93.1572 252.063 93.5463 251.953 93.9331 251.837ZM90.6165 253.846C90.761 253.619 90.8909 253.391 91.0185 253.156C91.136 252.932 91.2409 252.712 91.3414 252.48C91.5003 252.115 91.6339 251.738 91.7382 251.357C91.1384 251.008 90.5163 250.695 89.8741 250.424C86.0854 250.634 82.2875 251.037 78.6225 251.996C78.4872 252.03 78.3519 252.064 78.2166 252.098L78.1518 251.854L78.058 251.508C81.4517 250.574 84.9563 250.135 88.4623 249.898C85.015 248.809 81.1817 248.852 77.8022 250.125C77.1147 250.382 76.4469 250.695 75.807 251.048C75.577 251.172 75.3555 251.299 75.13 251.435C74.9232 251.564 74.7101 251.696 74.5055 251.831C73.8153 252.3 73.1658 252.825 72.5588 253.39C71.8344 254.06 71.1654 254.788 70.5726 255.574C70.4232 256.244 70.24 256.898 70.0084 257.535C69.8708 257.92 69.7101 258.3 69.5409 258.676C70.0074 258.448 70.4867 258.236 70.9729 258.064C73.7557 257.108 76.9217 257.16 79.6679 258.21C80.1878 258.412 80.9301 258.788 81.4564 259.367C81.9672 259.284 82.4776 259.181 82.9792 259.053C86.3036 258.221 89.053 256.294 90.6165 253.846ZM80.8334 260.703C80.7649 260.489 80.6341 260.296 80.4703 260.13C80.2426 259.901 79.9593 259.714 79.7104 259.584C79.5121 259.479 79.331 259.403 79.2257 259.363C76.892 258.469 74.2187 258.383 71.8206 259.098C71.6688 259.144 71.5188 259.176 71.3692 259.229C71.1199 259.317 70.8687 259.42 70.6237 259.521C70.3498 259.639 70.0803 259.769 69.8129 259.906C68.9552 260.357 68.1495 260.915 67.4248 261.565C67.4083 261.578 67.3917 261.591 67.3815 261.601C67.3653 261.635 67.3492 261.669 67.3331 261.703C67.0377 262.397 66.6283 263.026 66.1229 263.541C65.9831 263.682 65.8434 263.823 65.6908 263.947C65.7227 263.978 65.7546 264.009 65.7865 264.039C67.3993 265.434 69.8105 266.09 72.2947 265.759C74.5933 265.458 76.9211 264.424 79.6229 262.521C80.2115 262.102 80.8856 261.548 80.8832 260.924C80.8832 260.924 80.8832 260.924 80.881 260.918C80.8755 260.843 80.8576 260.772 80.8334 260.703ZM117.432 97.4016C117.436 97.6318 117.436 97.8705 117.434 98.1029C117.665 97.7826 117.897 97.4686 118.139 97.1587C117.908 97.2403 117.671 97.324 117.432 97.4016ZM113.271 104.657C113.436 105.005 113.588 105.359 113.735 105.714C113.804 105.493 113.871 105.266 113.943 105.051C113.721 104.919 113.493 104.789 113.271 104.657ZM115.68 114.641C115.927 114.168 116.182 113.698 116.448 113.239C116.167 113.318 115.888 113.381 115.601 113.441C115.643 113.84 115.664 114.239 115.68 114.641ZM105.228 173.608C104.886 174.964 104.535 176.317 104.179 177.657C105.145 176.515 106.203 175.46 107.355 174.512C106.709 174.509 106.067 174.357 105.53 173.908C105.422 173.82 105.322 173.715 105.228 173.608ZM102.745 173.743C101.817 173.755 100.996 173.196 100.242 172.586C99.7602 172.194 99.2999 171.803 98.8417 171.418C99.7112 173.966 100.271 176.632 100.519 179.366C100.577 180.047 100.622 180.733 100.638 181.415C101.37 178.875 102.068 176.319 102.745 173.743ZM111.47 143.179C111.348 143.945 111.225 144.712 111.1 145.472C111.544 144.543 112.066 143.635 112.659 142.773C112.269 142.918 111.868 143.053 111.47 143.179ZM109.806 156.268L109.683 155.701C109.674 155.655 109.667 155.615 109.658 155.569C109.384 156.901 109.032 158.212 108.581 159.48C109.55 158.19 110.667 156.981 111.915 155.887C111.406 155.996 110.89 156.102 110.371 156.18L109.806 156.268ZM106.301 158.995C105.652 158.467 105.017 157.919 104.406 157.357C104.964 158.844 105.375 160.39 105.639 161.974C105.864 160.982 106.081 159.985 106.301 158.995ZM110.303 204.343C105.885 204.636 101.517 206.048 97.8499 208.475C97.6845 208.582 97.5235 208.702 97.3603 208.816C97.0174 209.057 96.6767 209.304 96.3426 209.569C96.0558 209.79 95.7734 210.023 95.4995 210.261C94.3519 211.242 93.2875 212.32 92.325 213.489C91.6391 214.328 91.0042 215.213 90.422 216.127C90.1982 216.487 89.9744 216.847 89.7697 217.221C89.4956 217.697 89.2385 218.181 88.9981 218.673C88.461 219.776 87.9997 220.914 87.6268 222.085C87.5435 222.346 87.4727 222.603 87.3978 222.868C87.3306 223.095 87.2697 223.32 87.2109 223.552C87.1324 223.846 87.0622 224.145 86.9983 224.441C87.2282 224.437 87.4599 224.418 87.6876 224.408C90.8229 224.253 93.9228 223.62 96.886 222.579C97.0045 222.537 97.1229 222.495 97.2414 222.453C104.673 219.747 111.207 214.453 115.233 207.653C108.637 212.372 101.359 216.112 93.7067 218.587L93.5148 218.002C101.525 215.407 109.116 211.424 115.945 206.369C116.227 205.835 116.506 205.294 116.753 204.743C115.384 204.476 113.987 204.332 112.581 204.302C112.228 204.294 111.871 204.294 111.515 204.301C111.116 204.301 110.709 204.319 110.303 204.343ZM85.8134 228.482L85.8156 228.488C87.2364 227.347 88.7906 226.306 90.4742 225.373C89.3625 225.521 88.2519 225.612 87.1299 225.651C86.6926 226.599 86.253 227.54 85.8134 228.482ZM90.8833 208.061C90.2264 207.669 89.5754 207.254 88.9512 206.815C89.5383 208.502 89.9594 210.255 90.1968 212.024C90.4195 211.482 90.6316 210.93 90.8459 210.384L90.0679 210.364L90.3325 209.583C90.4973 209.075 90.6892 208.565 90.8833 208.061ZM98.6761 196.09C99.3275 195.431 100.005 194.806 100.709 194.198C100.191 194.361 99.6651 194.519 99.1474 194.681C98.9987 195.154 98.8332 195.62 98.6761 196.09ZM96.2237 195.715C95.1903 195.07 94.2017 194.353 93.2579 193.564C93.8718 196.442 94.0321 199.445 93.729 202.366C93.8673 202.142 94.014 201.922 94.1545 201.704C94.8647 199.719 95.5579 197.726 96.2237 195.715ZM79.2203 241.65C79.175 242.417 79.0643 243.158 78.901 243.869C80.3345 242.863 81.8304 241.955 83.3845 241.153C82.1779 241.011 80.9912 240.806 79.8154 240.513C79.6213 240.898 79.4228 241.27 79.2203 241.65ZM78.5239 235.552C78.5997 235.827 78.6693 236.104 78.7326 236.383C78.85 236.159 78.9737 235.933 79.0911 235.709C78.9063 235.662 78.7131 235.611 78.5239 235.552ZM129.467 194.701C125.884 198.818 121.882 202.585 117.553 205.92C114.563 212.059 109.646 217.188 103.763 220.687C107.189 219.945 110.653 219.429 114.068 218.936C116.609 216.557 118.937 213.95 121.021 211.129C124.715 206.131 127.557 200.563 129.467 194.701ZM123.658 187.779C122.503 193.599 119.049 199.137 114.111 203.151C115.344 203.248 116.564 203.427 117.766 203.697L118.482 203.858L118.194 204.535C118.166 204.594 118.144 204.651 118.116 204.71C122.428 201.29 126.397 197.429 129.933 193.217C131.205 188.928 131.98 184.499 132.238 180.014C129.549 182.79 126.683 185.383 123.658 187.779Z" fill="#321205" fill-opacity="0.25"/>
<path d="M7.29742 315.915L4.45055 313.184C19.1302 314.888 34.6636 314.242 50.2136 311.247C49.9807 309.263 50.2034 307.222 50.8667 305.335C50.9821 305.008 51.1719 304.527 51.4817 304.142C51.6857 303.888 51.9226 303.696 52.1849 303.571C52.7546 303.305 53.4677 303.352 54.0911 303.7C54.3444 303.844 54.5843 304.037 54.8165 304.278C55.5598 302.441 56.5737 300.699 57.8233 299.138C58.8688 297.832 60.0573 296.675 61.3629 295.693L61.7803 295.381L61.8245 295.49C63.7706 291.205 66.2446 287.159 69.1845 283.488C69.4288 283.187 69.673 282.885 69.9211 282.585L70.2224 282.839C69.9761 283.135 69.728 283.435 69.4894 283.734C66.4856 287.484 63.9733 291.625 62.0194 296.01C62.1424 296.337 62.254 296.669 62.3544 297.005C62.9201 296.025 63.5614 295.074 64.2827 294.174C66.2681 291.691 68.7743 289.67 71.5214 288.325L71.6356 288.27C72.8044 284.409 73.6992 280.462 74.3164 276.436L74.7057 276.495C74.0872 280.535 73.1853 284.498 72.0133 288.375L72.0685 288.574C72.172 288.944 72.266 289.315 72.3527 289.691C72.8209 288.906 73.336 288.151 73.9097 287.432C74.7967 286.321 75.7987 285.327 76.8819 284.465C77.7783 279.141 79.4745 274.901 81.9444 271.814C82.7531 270.803 83.6409 269.917 84.6173 269.156L84.8598 269.468C81.0511 272.453 78.5185 277.424 77.3233 284.234L77.5085 284.445C78.4991 285.583 79.3145 286.881 79.9424 288.262C81.1884 285.388 82.8277 282.73 84.4663 280.156C84.9347 277.955 85.6243 275.803 86.6175 273.766C87.4551 272.051 88.5103 270.393 89.8001 268.785C92.2665 265.706 95.5747 262.802 99.7982 259.996L100.015 260.323C93.6439 264.555 89.3735 269.004 86.971 273.935C86.1528 275.607 85.5455 277.361 85.1001 279.16L85.2083 278.993L85.5549 279.385C87.0543 281.072 88.1752 283.09 88.8628 285.248C89.7322 282.503 91.0972 279.903 92.924 277.616C93.7637 276.568 94.6924 275.602 95.6881 274.747L95.9503 274.519C97.5002 271.46 99.3629 268.556 101.499 265.885C103.299 263.637 105.296 261.553 107.462 259.682L107.72 259.982C102.991 264.069 99.0921 269.164 96.2545 274.798L96.2831 274.848C97.3284 276.63 98.0345 278.623 98.3846 280.68C98.4888 280.46 98.5913 280.244 98.7033 280.028C99.7125 278.058 100.975 276.139 102.562 274.155C104.059 272.285 105.852 270.362 108.158 268.142C109.261 266.431 110.444 264.77 111.721 263.18C114.899 259.21 118.593 255.652 122.715 252.635L122.948 252.956C117.512 256.933 112.832 261.862 109.098 267.43L109.257 267.854C109.632 268.863 109.925 269.9 110.146 270.951C110.759 269.547 111.521 268.258 112.417 267.137C113.096 266.288 113.855 265.531 114.668 264.883L114.974 264.642L115.22 264.946C115.294 265.04 115.366 265.139 115.436 265.232C117.038 261.511 119.128 258.003 121.649 254.855C123.361 252.717 125.27 250.744 127.355 248.981L127.606 249.283C122.44 253.644 118.372 259.319 115.709 265.59C116.985 267.359 117.87 269.41 118.321 271.554C119.364 267.539 121.238 263.712 123.846 260.454C124.622 259.484 125.469 258.566 126.352 257.72C128.188 253.483 130.578 249.488 133.447 245.902C134.887 244.105 136.445 242.413 138.115 240.842L138.384 241.128C133.558 245.667 129.668 251.249 126.943 257.356L127.11 257.699C128.007 259.53 128.597 261.49 128.882 263.493C128.9 263.445 128.917 263.397 128.94 263.346C129.952 260.802 131.284 258.492 132.891 256.484C134.119 254.951 135.5 253.615 136.994 252.507C139.941 245.836 143.666 239.504 148.069 233.719L148.382 233.959C144.107 239.573 140.478 245.705 137.578 252.168L137.723 252.613C137.9 253.162 138.052 253.723 138.18 254.287C139.12 251.49 140.325 249.183 141.84 247.293C141.88 247.246 141.921 247.198 141.963 247.147C143.566 242.42 145.975 237.97 149.101 234.065C150.024 232.915 151.007 231.809 152.053 230.761L152.332 231.042C148.027 235.373 144.741 240.643 142.663 246.355C142.744 246.269 142.822 246.179 142.903 246.093L143.261 245.726L143.526 246.165C144.347 247.531 144.954 249.011 145.351 250.55C146.319 247.02 148.071 243.649 150.134 241.067C150.697 240.361 151.293 239.718 151.898 239.135C154.286 233.494 157.436 228.171 161.241 223.417C161.522 223.067 161.804 222.722 162.091 222.378L162.392 222.632C158.418 227.389 155.116 232.765 152.606 238.491C152.697 238.415 152.787 238.329 152.876 238.257L153.272 237.931L153.486 238.398C154.095 239.729 154.533 241.137 154.808 242.573C155.651 239.732 156.816 237.037 158.206 234.889C159.94 229.8 162.552 225.005 165.913 220.809C167.337 219.028 168.899 217.356 170.582 215.81L170.849 216.099C165.515 220.985 161.453 227.173 158.959 233.937L159.155 234.621C160.171 238.17 161.213 242.293 160.697 246.333C160.672 246.523 160.643 246.711 160.61 246.898C160.871 246.641 161.132 246.385 161.393 246.129C162.464 244.623 163.577 243.146 164.736 241.704C170.514 234.485 177.315 228.054 184.825 222.751L185.053 223.075C176.753 228.943 169.31 236.202 163.172 244.382C165.841 241.722 168.531 238.974 171.245 236.124L171.355 236.212C178.171 229.417 185.291 222.901 192.63 216.748L192.882 217.049C185.561 223.183 178.459 229.679 171.66 236.458L171.752 236.532C168.352 240.102 165.001 243.534 161.688 246.83C161.531 247.002 161.37 247.172 161.214 247.341L161.19 247.32C161.036 247.475 160.881 247.63 160.725 247.779C160.57 248.009 160.412 248.233 160.261 248.464C160.24 248.529 160.222 248.601 160.201 248.667C164.142 246.814 168.654 246.158 172.939 246.912L173.723 247.052L173.393 247.356C176.571 246.413 179.368 244.988 181.545 243.643C186.962 240.309 191.574 235.766 196.037 231.377L196.313 231.656C191.837 236.064 187.21 240.618 181.752 243.98C179.378 245.443 176.28 247.003 172.751 247.946C170.939 249.593 168.591 251.48 165.824 252.539C166.264 252.673 166.698 252.819 167.121 252.992L167.582 253.182L167.468 253.341C175.85 251.236 183.707 247.182 190.284 241.474L190.541 241.774C183.795 247.63 175.715 251.761 167.098 253.848C164.979 256.655 161.938 258.691 158.669 259.494C159.658 259.737 160.628 260.013 161.586 260.283L162.821 260.633L162.74 260.709C170.485 259.195 177.861 255.822 184.014 250.841L184.263 251.15C177.887 256.312 170.209 259.763 162.168 261.218C159.806 263.304 157.179 264.9 154.527 265.89C155.362 266.236 156.15 266.664 156.888 267.172C164.258 265.31 171.187 261.59 176.674 256.376L176.946 256.663C171.493 261.845 164.63 265.563 157.315 267.469L157.482 267.587L157.082 267.911C154.227 270.238 151.017 271.944 147.811 272.866C149.046 273.496 150.211 274.259 151.275 275.154L151.285 275.163C158.159 274.539 164.927 272.549 170.958 269.283L171.146 269.631C165.158 272.874 158.454 274.869 151.628 275.53L151.24 275.789C147.435 278.323 142.875 279.651 138.297 279.752C139.71 280.567 141.1 281.587 142.445 282.801L142.833 283.151L142.39 283.428C142.319 283.471 142.248 283.513 142.177 283.556C150.117 283.026 157.923 280.491 164.593 276.095L164.807 276.426C157.858 281.005 149.683 283.583 141.406 283.998C138.074 285.799 134.21 286.553 130.431 286.262C131.793 287.054 133.158 288.006 134.52 289.121L134.679 289.254C141.907 288.851 149.054 286.902 155.38 283.46L155.557 283.803C149.169 287.277 141.945 289.242 134.643 289.645L134.466 289.757C129.948 292.604 124.424 293.686 119.163 292.949C120.939 294.171 122.477 295.722 123.641 297.52C132.843 297.633 142.086 294.733 149.389 289.012L149.631 289.324C142.323 295.047 133.1 297.975 123.897 297.917L123.97 298.035L123.675 298.252C120.545 300.576 116.135 301.471 111.459 300.755C112.159 301.284 112.831 301.856 113.466 302.467L113.791 302.783L113.435 303.062C113.385 303.1 113.333 303.133 113.287 303.173C115.748 303.39 118.223 303.44 120.694 303.334C121.39 302.665 122.058 301.975 122.7 301.25L122.994 301.51C122.447 302.128 121.878 302.723 121.295 303.297C126.894 302.989 132.454 301.848 137.74 299.855L137.876 300.226C132.406 302.285 126.652 303.441 120.863 303.715C118.853 305.633 116.639 307.318 114.272 308.742C118.021 308.264 121.71 307.379 125.233 306.078L125.369 306.448C121.538 307.864 117.516 308.789 113.425 309.238C109.661 311.373 105.539 312.862 101.243 313.598C99.1833 313.952 97.1017 314.127 95.0231 314.13L95.274 314.31L94.7593 314.62C90.7447 317.048 85.7227 317.89 81.1238 316.951C82.3822 318.263 83.4954 319.719 84.4206 321.301L84.6692 321.723L84.5993 321.743C86.8807 322.366 89.2187 322.771 91.5745 322.94C99.1316 323.483 106.855 321.603 113.322 317.645L113.529 317.983C106.993 321.98 99.1847 323.882 91.5455 323.335C88.964 323.147 86.4062 322.68 83.9188 321.954C81.1284 322.806 78.1655 322.975 75.3129 322.477C75.3779 322.53 75.441 322.587 75.5059 322.64C80.5635 326.903 85.1256 328.945 89.4523 328.884L89.4557 329.279C85.0299 329.342 80.3789 327.269 75.2466 322.944C75.0024 322.74 74.76 322.531 74.5194 322.319C72.983 321.983 71.4853 321.458 70.0735 320.733C69.6594 320.521 69.2558 320.286 68.8596 320.046C66.7103 320.804 64.0694 320.51 61.7291 319.181C61.4952 319.047 61.2687 318.907 61.0457 318.759C60.9989 318.831 60.9481 318.902 60.884 318.971C60.3536 319.522 59.5435 319.483 58.8953 319.385C56.655 319.044 55.0035 318.435 53.6952 317.471C52.2477 316.402 51.3083 314.851 51.1331 313.286C36.2819 316.453 21.5382 317.358 7.29742 315.915ZM51.029 311.43C51.0528 311.605 51.0804 311.781 51.1577 311.91C51.2368 312.035 51.3715 312.119 51.5109 312.173C51.6675 312.23 51.8325 312.258 51.9549 312.267C52.5001 312.313 53.058 312.187 53.5783 311.926C53.5783 311.926 53.5801 311.922 53.584 311.924C53.7 311.864 53.8138 311.799 53.9256 311.727C54.0373 311.656 54.1487 311.576 54.2541 311.488C54.4557 311.321 54.6489 311.132 54.8201 310.92C55.0041 310.689 55.157 310.445 55.2771 310.19C55.3303 310.083 55.3775 309.968 55.419 309.856C55.8418 308.675 55.6925 307.239 55.0499 305.972C54.9715 305.815 54.8819 305.662 54.7865 305.511C54.7622 305.472 54.7378 305.433 54.7135 305.393C54.6468 305.293 54.5765 305.2 54.5084 305.113C54.2518 304.781 53.9911 304.541 53.7184 304.389C53.3229 304.167 52.8676 304.129 52.5302 304.286C52.0899 304.493 51.7683 305.172 51.6183 305.596C50.9998 307.354 50.7907 309.251 50.9957 311.101C51.0035 311.207 51.0135 311.32 51.029 311.43ZM58.1722 306.288C58.9157 303.036 59.9538 299.857 61.2553 296.788C60.2303 297.625 59.2858 298.574 58.4386 299.628C57.1418 301.252 56.1118 303.071 55.3829 304.99C56.4066 306.551 56.7068 308.397 56.1995 309.971C56.1823 310.02 56.1707 310.066 56.1534 310.114C56.0274 310.465 55.8569 310.8 55.6455 311.111C55.5768 311.211 55.5042 311.31 55.4277 311.406C55.3294 311.53 55.223 311.641 55.1165 311.752C55.0908 311.778 55.0651 311.804 55.0393 311.83C55.1546 311.802 55.2735 311.767 55.3789 311.731C55.7837 311.591 56.1778 311.423 56.5593 311.222C56.9242 311.036 57.2746 310.82 57.6165 310.581C58.1647 310.197 58.6839 309.754 59.1589 309.252C59.37 309.034 59.573 308.803 59.7661 308.562C59.819 308.497 59.8662 308.434 59.9152 308.368C60.0153 308.24 60.1076 308.108 60.1999 307.977C60.3049 307.828 60.4004 307.679 60.4976 307.526C60.9384 306.822 61.2973 306.071 61.5691 305.285C62.2084 303.42 62.3714 301.366 62.0648 299.296C62.0315 299.07 61.9926 298.847 61.9459 298.619C61.9056 298.409 61.8596 298.201 61.808 297.994C61.7334 297.684 61.6475 297.378 61.5521 297.072C60.2844 300.077 59.2762 303.19 58.5488 306.365L58.1722 306.288ZM64.9037 294.662C64.0329 295.747 63.2793 296.905 62.6477 298.113C63.2146 300.662 63.1093 303.238 62.319 305.55C61.9599 306.601 61.4516 307.589 60.8124 308.494C60.864 308.597 60.9155 308.7 60.9801 308.795C61.1263 309.03 61.3059 309.242 61.5225 309.425C62.9123 309.311 64.3067 309.32 65.6867 309.454C66.639 309.015 67.5174 308.336 68.3184 307.425C68.4245 307.304 68.5288 307.187 68.6328 307.061C68.6656 307.02 68.7001 306.975 68.729 306.931C68.8509 306.776 68.9651 306.617 69.081 306.454C69.4647 305.906 69.8195 305.299 70.1403 304.653C70.2252 304.476 70.3101 304.298 70.3911 304.12C70.4809 303.921 70.5668 303.722 70.6468 303.514C70.7513 303.252 70.8538 302.985 70.9485 302.714C72.1085 299.327 72.4624 295.655 72.0046 292.101C71.9728 291.862 71.9391 291.627 71.9016 291.389C71.8648 291.171 71.8319 290.955 71.7894 290.739C71.73 290.426 71.661 290.113 71.5903 289.805C69.7497 295.53 67.3123 301.054 64.2894 306.323L63.9482 306.126C67.0194 300.772 69.4818 295.151 71.3262 289.324C68.8894 290.603 66.6833 292.437 64.9037 294.662ZM74.3703 302.678C75.3284 299.097 75.6883 295.329 76.0339 291.685C76.2224 289.7 76.4239 287.654 76.7144 285.64C75.9354 286.327 75.203 287.086 74.5381 287.914C73.7984 288.834 73.1586 289.823 72.6062 290.856C73.3239 294.879 73.0132 299.096 71.6882 302.96C71.4836 303.556 71.2477 304.129 70.992 304.683C71.1435 305.061 71.3197 305.385 71.5223 305.65C71.5844 305.73 71.6483 305.805 71.7178 305.879C73.0679 305.573 74.4989 305.44 75.9805 305.485C76.3062 305.22 76.6079 304.926 76.8676 304.631C77.2094 304.238 77.5315 303.827 77.8321 303.401C78.1326 302.975 78.4117 302.534 78.6653 302.078C78.7548 301.922 78.8365 301.762 78.92 301.598C79.0105 301.419 79.101 301.24 79.1838 301.057C80.0925 299.103 80.5842 296.965 80.5906 294.803C80.5965 293.334 80.3695 291.863 79.9388 290.449C79.8776 290.243 79.8091 290.043 79.7423 289.84C79.678 289.651 79.6081 289.465 79.5325 289.28C78.9589 287.821 78.1618 286.451 77.1726 285.248C76.8452 287.396 76.6342 289.596 76.432 291.725C76.0833 295.386 75.722 299.168 74.7576 302.783L74.3703 302.678ZM84.0283 298.79C83.6652 293.747 83.2409 287.889 84.0962 282.233C82.7046 284.478 81.3751 286.804 80.3736 289.283C81.0292 291.047 81.3784 292.93 81.3707 294.805C81.3638 297.361 80.7186 299.879 79.5311 302.129C79.6081 302.299 79.6946 302.47 79.8015 302.626C79.8661 302.721 79.9325 302.812 80.0062 302.897C81.3557 302.118 82.8231 301.533 84.3397 301.138C84.5399 300.934 84.7397 300.72 84.9318 300.503C85.0963 300.315 85.2627 300.123 85.4174 299.926C86.5031 298.573 87.3566 297.029 87.946 295.408C88.0548 295.106 88.1541 294.805 88.2456 294.499C88.3656 294.09 88.4666 293.681 88.5559 293.267C88.6529 292.805 88.7271 292.342 88.7783 291.878C88.8845 290.9 88.8931 289.91 88.8047 288.929C88.7681 288.514 88.7164 288.101 88.6456 287.69C88.5893 287.359 88.5257 287.035 88.4486 286.71C87.9048 284.368 86.8296 282.147 85.305 280.297C85.0816 280.646 84.8604 281 84.6353 281.352C83.5907 287.251 84.0374 293.452 84.4197 298.752L84.0283 298.79ZM90.6779 294.015C90.9892 287.989 92.503 281.994 95.0219 276.455C94.5038 276.979 94.0058 277.531 93.5432 278.108C91.5032 280.659 90.0601 283.617 89.2615 286.723C89.6427 288.442 89.7534 290.221 89.5616 291.966C89.4325 293.15 89.1525 294.325 88.749 295.464C88.8705 296.311 89.0414 297.152 89.2595 297.982C89.5355 297.868 89.8116 297.755 90.0919 297.652C92.5412 296.097 94.6237 293.814 95.9985 291.223C96.1355 290.962 96.263 290.701 96.3867 290.438C96.542 290.106 96.6818 289.766 96.8121 289.427C96.9596 289.04 97.0994 288.648 97.2141 288.251C97.6061 286.91 97.813 285.514 97.846 284.109C97.8546 283.729 97.8498 283.347 97.8337 282.97C97.8201 282.659 97.8009 282.35 97.7721 282.042C97.5567 279.812 96.9079 277.62 95.8428 275.665C95.8354 275.671 95.8262 275.681 95.8188 275.687C93.062 281.442 91.3967 287.72 91.0715 294.034L90.6779 294.015ZM103.181 274.647C101.629 276.585 100.393 278.466 99.4071 280.385C99.1013 280.977 98.828 281.57 98.5759 282.168C98.7567 284.288 98.5668 286.442 97.9756 288.47C97.6853 289.472 97.2835 290.452 96.7946 291.397C96.8449 292.483 96.9955 293.545 97.2401 294.574C97.2691 294.686 97.2886 294.798 97.3214 294.911C97.9684 294.619 98.5987 294.291 99.2146 293.933C100.022 293.255 100.9 292.65 101.828 292.139C101.932 292.055 102.034 291.975 102.138 291.891C103.255 290.964 104.281 289.916 105.199 288.767C106.394 287.276 107.373 285.653 108.109 283.935C108.225 283.669 108.331 283.394 108.435 283.122C108.555 282.807 108.668 282.483 108.776 282.162C108.912 281.75 109.03 281.335 109.136 280.915C109.682 278.801 109.908 276.607 109.8 274.431C109.779 274.042 109.746 273.652 109.706 273.264C109.676 272.959 109.638 272.651 109.592 272.35C109.41 271.11 109.118 269.885 108.717 268.696C108.321 269.074 107.949 269.439 107.583 269.803C103.862 275.972 101.265 282.821 100.051 289.96L99.6614 289.891C100.799 283.219 103.128 276.797 106.452 270.948C105.208 272.249 104.136 273.458 103.181 274.647ZM110.404 272.437C110.904 276.061 110.517 279.808 109.241 283.244C109.297 284.09 109.382 284.967 109.493 285.889C109.556 286.41 109.659 286.925 109.988 287.14C110.021 287.16 110.05 287.178 110.081 287.192C110.564 287.406 111.251 287.006 111.634 286.739C112.422 286.187 113.156 285.546 113.824 284.837C114.097 284.544 114.364 284.243 114.615 283.926C115.909 282.311 116.846 280.468 117.379 278.517C117.538 277.928 117.663 277.334 117.749 276.731C117.886 275.748 117.917 274.75 117.847 273.757C117.666 271.163 116.803 268.607 115.358 266.457C113.094 272.116 111.966 278.221 112.206 284.267L111.81 284.284C111.564 278.095 112.735 271.845 115.085 266.07C115.006 265.964 114.934 265.856 114.851 265.749C112.913 267.395 111.379 269.726 110.404 272.437ZM124.469 260.947C121.486 264.673 119.493 269.153 118.638 273.807C118.703 274.821 118.671 275.842 118.531 276.842C118.445 277.445 118.325 278.041 118.166 278.63C118.151 279.715 118.201 280.802 118.318 281.876C118.348 282.162 118.382 282.449 118.421 282.734C120.629 281.557 122.626 279.895 124.225 277.893C124.3 277.801 124.372 277.702 124.445 277.604C125.276 276.524 125.978 275.376 126.547 274.172C126.731 273.787 126.903 273.397 127.054 273.001C127.15 272.759 127.238 272.513 127.322 272.265C127.48 271.803 127.613 271.334 127.733 270.863C127.919 270.132 128.057 269.394 128.153 268.645C128.244 267.927 128.293 267.2 128.302 266.478C128.306 266.057 128.299 265.637 128.276 265.214C128.148 262.916 127.601 260.644 126.642 258.536C126.525 258.651 126.409 258.772 126.295 258.889C123.889 264.779 122.559 271.102 122.498 277.41L122.103 277.404C122.159 271.375 123.373 265.328 125.565 259.654C125.19 260.079 124.823 260.508 124.469 260.947ZM129.685 263.642C129.464 264.193 129.264 264.758 129.07 265.331C129.188 267.756 128.86 270.203 128.072 272.521C127.855 273.154 127.602 273.775 127.322 274.383C127.302 274.622 127.285 274.868 127.273 275.111C128.449 274.135 129.749 273.31 131.13 272.648C131.667 272.391 132.217 272.158 132.774 271.951C133.088 271.611 133.397 271.259 133.686 270.898C133.837 270.709 133.986 270.514 134.13 270.322C134.3 270.09 134.473 269.854 134.632 269.617C134.856 269.287 135.064 268.951 135.267 268.607C135.484 268.242 135.688 267.875 135.877 267.497C136.023 267.207 136.163 266.919 136.293 266.622C136.377 266.426 136.455 266.232 136.536 266.034C137.506 263.602 137.966 260.966 137.906 258.343C137.894 257.883 137.865 257.42 137.821 256.959C137.787 256.602 137.749 256.252 137.695 255.895C137.57 255.046 137.388 254.209 137.149 253.384C137.099 253.422 137.053 253.462 137.003 253.5C134.6 259.082 132.744 264.894 131.482 270.817L131.098 270.736C132.31 265.035 134.075 259.435 136.344 254.045C133.526 256.477 131.219 259.793 129.685 263.642ZM139.843 264.414C139.408 259.404 139.911 254.351 141.245 249.526C140.123 251.331 139.217 253.455 138.499 255.96C139.016 259.662 138.516 263.521 137.016 266.936C136.779 267.48 136.509 268.013 136.221 268.534C136.425 268.406 136.626 268.282 136.829 268.163C137.846 267.561 138.888 267.036 139.942 266.591C140.515 266.059 141.052 265.482 141.546 264.877C141.63 264.775 141.71 264.67 141.79 264.566C141.87 264.462 141.954 264.359 142.03 264.253C142.233 263.98 142.426 263.698 142.61 263.416C142.628 263.386 142.648 263.353 142.666 263.324C142.855 263.03 143.031 262.725 143.2 262.423C143.34 262.167 143.475 261.91 143.598 261.648C143.878 261.062 144.13 260.464 144.328 259.851C144.472 259.41 144.594 258.964 144.701 258.512C144.82 258.012 144.907 257.509 144.978 257.002C145.112 256.004 145.152 254.996 145.098 253.991C145.068 253.448 145.015 252.904 144.931 252.365C144.646 250.497 144.038 248.679 143.117 247.025C142.715 247.47 142.33 247.947 141.968 248.448C140.391 253.58 139.771 259.006 140.236 264.381L139.843 264.414ZM150.758 241.56C148.466 244.419 146.538 248.436 145.747 252.496C146.024 254.496 145.952 256.544 145.516 258.52C145.606 259.138 145.731 259.738 145.906 260.323C146.073 260.244 146.241 260.171 146.41 260.098C147.058 259.815 147.724 259.574 148.403 259.376C148.785 259.039 149.153 258.681 149.505 258.306C149.596 258.207 149.684 258.107 149.776 258.008C149.867 257.909 149.955 257.808 150.043 257.707C150.191 257.535 150.335 257.362 150.475 257.186C150.973 256.564 151.425 255.916 151.833 255.244C151.838 255.232 151.845 255.226 151.851 255.214C152.436 254.243 152.926 253.223 153.313 252.162C153.41 251.897 153.501 251.633 153.58 251.365C153.635 251.183 153.685 251 153.735 250.817C154.165 249.25 154.372 247.624 154.363 245.994C154.357 245.499 154.333 245.006 154.29 244.513C154.126 242.686 153.692 240.886 152.982 239.2C152.598 239.542 152.217 239.908 151.847 240.302C149.662 245.702 148.177 251.387 147.483 257.131L147.092 257.085C147.747 251.665 149.101 246.3 151.08 241.168C150.975 241.298 150.865 241.426 150.758 241.56ZM155.76 251.046C155.625 246.843 156.1 242.635 157.123 238.568C156.285 240.428 155.596 242.476 155.083 244.559C155.277 246.929 155.038 249.336 154.331 251.598C154.256 251.835 154.177 252.071 154.091 252.304C154.093 252.577 154.096 252.85 154.106 253.117C154.112 253.237 154.115 253.355 154.123 253.471C154.545 253.283 154.973 253.112 155.404 252.956C156.003 252.74 156.612 252.553 157.226 252.405C157.247 252.401 157.267 252.396 157.284 252.39C157.345 252.286 157.408 252.188 157.469 252.085C157.539 251.971 157.61 251.858 157.674 251.746C157.926 251.336 158.183 250.923 158.442 250.516C158.601 250.269 158.755 250.021 158.914 249.774C158.941 249.735 158.962 249.698 158.99 249.658C159.03 249.559 159.068 249.464 159.108 249.365C159.133 249.301 159.155 249.241 159.179 249.177C159.337 248.757 159.479 248.329 159.594 247.89C159.738 247.346 159.845 246.79 159.917 246.227C160.376 242.644 159.544 238.945 158.633 235.668C158.427 236.001 158.228 236.347 158.033 236.704C156.651 241.334 155.991 246.179 156.144 251.024L155.76 251.046ZM171.995 247.57C167.852 247.021 163.541 247.811 159.828 249.739C159.492 250.584 159.073 251.383 158.582 252.116C158.594 252.122 158.607 252.123 158.619 252.128C160.568 251.813 162.532 251.824 164.394 252.186C164.634 252.121 164.877 252.049 165.12 251.967C167.419 251.178 169.449 249.752 171.122 248.341C168.73 248.83 166.17 249.009 163.524 248.675L163.574 248.285C166.435 248.641 169.194 248.394 171.75 247.801C171.825 247.718 171.91 247.644 171.995 247.57ZM166.344 253.539C165.716 253.306 165.066 253.128 164.403 252.991C164.048 252.919 163.692 252.856 163.334 252.811C162.106 252.651 160.839 252.639 159.572 252.781C159.232 252.819 158.891 252.87 158.556 252.929C158.326 252.97 158.097 253.012 157.868 253.062C157.645 253.111 157.418 253.167 157.196 253.226C156.935 253.295 156.677 253.37 156.42 253.45C155.668 253.685 154.926 253.972 154.2 254.313C154.075 254.373 153.949 254.433 153.822 254.497C153.804 254.507 153.781 254.516 153.762 254.526C153.658 254.582 153.551 254.632 153.45 254.689C153.254 254.792 153.059 254.901 152.867 255.015C152.717 255.284 152.559 255.55 152.398 255.814C151.909 256.604 151.363 257.355 150.76 258.065C151.352 258.339 151.969 258.557 152.604 258.724C153.976 258.69 155.287 258.822 156.562 259.044C157.098 258.997 157.638 258.919 158.174 258.801C161.079 258.16 163.834 256.458 165.855 254.133C162.751 254.809 159.584 255.223 156.389 255.357L156.372 254.961C159.714 254.823 163.025 254.371 166.269 253.632C166.293 253.6 166.32 253.571 166.344 253.539ZM149.773 261.844L149.806 261.451C153.603 261.754 157.43 261.589 161.179 260.984C159.666 260.556 158.121 260.126 156.523 259.842C155.229 259.611 153.895 259.478 152.51 259.52C152.377 259.525 152.24 259.529 152.106 259.534C150.984 259.596 149.856 259.792 148.76 260.105C148.42 260.204 148.081 260.313 147.746 260.432C147.535 260.505 147.331 260.586 147.124 260.67C146.677 260.851 146.236 261.05 145.808 261.272C145.692 261.332 145.574 261.396 145.456 261.46C145.036 261.686 144.629 261.933 144.229 262.196C143.856 262.959 143.414 263.696 142.916 264.403C142.846 264.507 142.775 264.61 142.703 264.709C143.076 264.939 143.463 265.138 143.868 265.317C147.197 264.546 150.482 264.574 153.338 265.458C155.829 264.658 158.363 263.277 160.643 261.467C157.049 261.997 153.398 262.135 149.773 261.844ZM143.556 268.845L143.58 268.452C147.672 268.702 151.808 268.339 155.824 267.425C155.05 266.956 154.221 266.576 153.342 266.285C153.111 266.208 152.875 266.138 152.638 266.073C152.363 265.999 152.08 265.932 151.797 265.874C149.768 265.45 147.551 265.437 145.285 265.824C145.016 265.871 144.745 265.921 144.476 265.977C144.244 266.026 144.009 266.079 143.771 266.14C142.651 266.414 141.526 266.79 140.411 267.249C139.962 267.434 139.519 267.636 139.077 267.848C138.922 267.923 138.766 267.997 138.613 268.078C137.578 268.606 136.562 269.218 135.571 269.907C135.449 269.992 135.324 270.081 135.202 270.166C135.093 270.323 134.982 270.474 134.87 270.629C134.848 270.657 134.828 270.69 134.807 270.718C134.922 270.793 135.037 270.869 135.154 270.941C135.279 271.017 135.406 271.088 135.533 271.16C136.492 270.962 137.466 270.837 138.444 270.794C141.262 270.676 144.101 271.224 146.691 272.343C149.851 271.584 153.051 270.014 155.934 267.803C151.876 268.726 147.694 269.097 143.556 268.845ZM136.117 274.682L136.198 274.297C140.744 275.268 145.453 275.572 150.121 275.254C149.035 274.428 147.855 273.729 146.61 273.173C146.4 273.078 146.193 272.989 145.978 272.905C145.746 272.809 145.506 272.719 145.268 272.635C143.097 271.861 140.778 271.487 138.478 271.587C137.895 271.613 137.314 271.668 136.737 271.753C136.502 271.787 136.271 271.823 136.04 271.868C135.83 271.908 135.619 271.949 135.411 271.995C134.668 272.159 133.934 272.374 133.218 272.635C133.129 272.665 133.044 272.697 132.954 272.731C132.751 272.807 132.552 272.886 132.357 272.966C131.953 273.134 131.554 273.323 131.161 273.52C129.778 274.218 128.479 275.091 127.322 276.117C127.206 276.219 127.091 276.317 126.983 276.422C127.086 276.474 127.185 276.523 127.288 276.575C127.437 276.647 127.585 276.724 127.737 276.792L127.741 276.794C128.253 277.036 128.772 277.253 129.304 277.452C130.032 277.394 130.767 277.394 131.502 277.465C133.241 277.631 135.005 278.137 136.752 278.948C141.351 279.133 146.011 278.028 149.949 275.663C145.309 275.962 140.635 275.644 136.117 274.682ZM136.564 279.725C136.222 279.56 135.873 279.412 135.517 279.269C134.789 278.976 134.025 278.732 133.238 278.548C133.001 278.492 132.761 278.444 132.523 278.402C132.164 278.337 131.805 278.282 131.432 278.249C131.042 278.212 130.65 278.199 130.261 278.2C129.905 278.203 129.548 278.214 129.191 278.249C126.035 278.546 123.112 280.083 121.5 282.453C122.19 282.912 122.913 283.319 123.659 283.677C125.228 283.962 126.816 284.472 128.404 285.211C132.101 285.891 136.005 285.512 139.463 284.054C135.067 284.092 130.669 283.526 126.428 282.314L126.536 281.932C131.029 283.216 135.711 283.776 140.371 283.641C140.756 283.45 141.138 283.248 141.507 283.032C140.204 281.892 138.52 280.664 136.564 279.725ZM116.432 287.258L116.555 286.882C121.971 288.693 127.731 289.484 133.474 289.302C131.694 287.904 129.913 286.786 128.144 285.96C126.558 285.217 124.979 284.707 123.418 284.434C123.34 284.422 123.263 284.406 123.184 284.394C120.807 284.013 118.426 284.231 116.323 284.959C114.668 285.534 113.189 286.423 112.03 287.589C111.927 287.692 111.824 287.805 111.73 287.921C111.711 287.941 111.702 287.96 111.688 287.982C111.435 288.312 111.324 288.609 111.352 288.879C111.4 289.299 111.784 289.68 112.556 290.072C112.739 290.164 112.927 290.255 113.112 290.343C114.509 290.635 115.872 291.117 117.155 291.765C122.441 293.044 128.207 292.338 132.986 289.708C127.372 289.832 121.739 289.028 116.432 287.258ZM116.891 292.512C115.618 291.864 114.261 291.38 112.867 291.099C112.408 291.008 111.944 290.928 111.479 290.881C109.807 290.708 108.103 290.825 106.452 291.206C105 291.54 103.588 292.076 102.28 292.794C101.34 293.31 100.453 293.915 99.6442 294.606C99.4151 294.802 99.192 295.006 98.9727 295.211C99.0486 295.25 99.1206 295.287 99.1982 295.322C99.9855 295.722 100.782 296.121 101.585 296.508C104.501 296.989 107.318 298.061 109.828 299.626C110.136 299.7 110.447 299.766 110.756 299.827C115.331 300.717 119.686 300.013 122.811 297.898C117.088 297.714 111.405 296.372 106.228 293.817L106.402 293.465C111.483 295.972 117.061 297.299 122.683 297.498C121.209 295.404 119.185 293.685 116.891 292.512ZM109.516 300.365C109.098 300.101 108.669 299.85 108.233 299.614C106.569 298.714 104.792 298.03 102.953 297.588C102.421 297.46 101.88 297.355 101.339 297.268C101.233 297.253 101.129 297.234 101.02 297.218C99.2849 296.969 97.5219 296.947 95.7799 297.126C93.9487 297.317 92.1451 297.736 90.4224 298.378C89.86 298.587 89.3044 298.822 88.7572 299.08C88.656 299.128 88.551 299.174 88.448 299.226C88.7984 299.567 89.1597 299.895 89.5263 300.212C89.6841 300.349 89.8474 300.484 90.0069 300.617C90.5863 300.66 91.1651 300.735 91.7354 300.839C95.0747 301.45 98.237 303.134 100.682 305.522C104.546 306.048 108.463 305.272 111.569 303.392C105.945 302.733 100.414 301.23 95.2111 298.888L95.3748 298.526C100.69 300.92 106.35 302.429 112.1 303.056C112.268 302.945 112.429 302.835 112.591 302.717C111.639 301.844 110.606 301.057 109.516 300.365ZM93.6361 314.115C87.7414 313.909 81.9244 312.324 76.7263 309.445L76.9154 309.1C81.8818 311.85 87.4212 313.408 93.0445 313.696C90.3716 311.79 87.6102 309.914 84.6245 308.512C84.5934 308.498 84.5624 308.484 84.5314 308.47C83.8015 308.129 83.0632 307.818 82.3034 307.543C80.2636 306.8 78.2112 306.384 76.2433 306.288C76.0197 306.276 75.7965 306.273 75.5733 306.27C75.4474 306.269 75.3158 306.27 75.1938 306.271C75.0394 306.271 74.887 306.277 74.7308 306.281C74.0262 306.308 73.3386 306.38 72.6679 306.498C72.4443 306.537 72.2246 306.578 72.0071 306.624C71.835 306.663 71.6629 306.702 71.4891 306.745C70.7148 306.947 69.9751 307.206 69.2742 307.535C69.4087 307.765 69.5527 307.994 69.6985 308.22C70.3099 309.162 71.0125 310.048 71.7928 310.866C74.8213 311.987 77.6334 313.69 80.0176 315.882C80.1005 315.906 80.1816 315.933 80.2645 315.957C84.7436 317.16 89.7675 316.521 93.8267 314.262C93.7674 314.207 93.7007 314.158 93.6361 314.115ZM78.8034 315.898C78.4548 315.604 78.0953 315.324 77.7301 315.046C76.4625 314.096 75.0982 313.266 73.6685 312.57C73.2392 312.361 72.8085 312.166 72.3669 311.984C72.0607 311.855 71.7471 311.731 71.4339 311.617C69.6063 310.942 67.701 310.481 65.7782 310.264C65.4565 310.231 65.1331 310.201 64.8101 310.181C64.4066 310.153 64.0057 310.139 63.6012 310.134C63.0803 310.127 62.5563 310.138 62.035 310.173C61.9532 310.178 61.8732 310.179 61.7896 310.188C61.8362 310.312 61.8828 310.437 61.9351 310.559C61.9415 310.576 61.9517 310.595 61.9563 310.615C61.9627 310.632 61.969 310.649 61.9754 310.666C62.6713 310.813 63.3563 311.026 64.0096 311.308C66.8358 312.525 69.1084 314.995 70.148 317.894C70.8403 318.503 71.5195 319.121 72.1966 319.733C72.8106 320.288 73.4383 320.854 74.0716 321.417C76.8214 322.122 79.7333 322.168 82.5108 321.531C78.1673 320.08 74.0839 317.838 70.5567 314.916L70.8065 314.613C74.452 317.635 78.6955 319.926 83.2135 321.353C83.3003 321.327 83.3873 321.31 83.4741 321.284C82.3978 319.54 81.0606 317.958 79.5398 316.565C79.308 316.334 79.0613 316.114 78.8034 315.898ZM70.4406 320.046C71.3292 320.501 72.2565 320.87 73.2078 321.166C72.7816 320.785 72.3571 320.4 71.9425 320.025C71.4274 319.562 70.914 319.094 70.391 318.627C70.4176 318.724 70.4479 318.822 70.4745 318.918L70.5399 319.187L70.3111 319.341C70.1345 319.462 69.9459 319.569 69.7551 319.67C69.9795 319.804 70.2092 319.927 70.4406 320.046ZM68.0037 319.498C68.1719 319.457 68.3341 319.409 68.4981 319.357C68.6525 319.305 68.7992 319.25 68.9494 319.187C69.1859 319.088 69.4162 318.972 69.6344 318.842C69.5114 318.411 69.362 317.987 69.1843 317.574C67.3298 315.978 65.3851 314.467 63.2539 313.275C63.176 313.231 63.098 313.186 63.02 313.141L63.0986 312.999L63.2092 312.796C65.2027 313.879 67.0275 315.241 68.7624 316.698C67.646 314.65 65.8451 312.956 63.7071 312.038C63.2728 311.85 62.8227 311.697 62.3681 311.575C62.2062 311.53 62.0464 311.49 61.881 311.453C61.7272 311.42 61.5696 311.386 61.414 311.358C60.8843 311.268 60.3486 311.221 59.8143 311.213C59.1788 311.201 58.5433 311.241 57.9178 311.341C57.5494 311.586 57.1726 311.809 56.7812 312.002C56.5454 312.12 56.3014 312.224 56.0553 312.324C56.3738 312.426 56.6909 312.542 56.9936 312.679C58.7132 313.478 60.1614 314.918 60.9697 316.634C61.1212 316.961 61.2985 317.468 61.2851 317.972C61.5592 318.162 61.8425 318.342 62.1328 318.507C64.0488 319.606 66.1857 319.938 68.0037 319.498ZM60.3998 318.316C60.4635 318.185 60.4885 318.037 60.4866 317.886C60.4826 317.678 60.4345 317.464 60.3766 317.293C60.3313 317.155 60.2812 317.039 60.2501 316.973C59.564 315.514 58.36 314.279 56.9267 313.539C56.8354 313.493 56.7514 313.441 56.6583 313.399C56.5031 313.328 56.3404 313.264 56.1817 313.201C56.0018 313.133 55.8184 313.074 55.6332 313.018C55.0336 312.844 54.4101 312.744 53.7837 312.722C53.7703 312.721 53.7569 312.719 53.7474 312.72C53.7248 312.728 53.7023 312.737 53.6797 312.745C53.233 312.936 52.7623 313.046 52.2975 313.06C52.1698 313.063 52.0422 313.066 51.9159 313.055C51.917 313.084 51.9181 313.113 51.9191 313.141C52.0469 314.511 52.8751 315.894 54.1773 316.851C55.3797 317.739 56.9226 318.298 59.0267 318.62C59.487 318.689 60.0473 318.732 60.3244 318.441C60.3244 318.441 60.3244 318.441 60.3261 318.437C60.3571 318.399 60.3804 318.358 60.3998 318.316ZM150.213 258.684C150.112 258.793 150.006 258.904 149.901 259.011C150.151 258.965 150.4 258.923 150.65 258.887C150.506 258.822 150.359 258.755 150.213 258.684ZM145.045 260.2C144.966 260.436 144.879 260.668 144.789 260.899C144.92 260.827 145.052 260.752 145.181 260.684C145.137 260.523 145.089 260.361 145.045 260.2ZM141.713 265.923C142.039 265.813 142.367 265.709 142.695 265.614C142.529 265.525 142.371 265.43 142.211 265.329C142.053 265.534 141.885 265.729 141.713 265.923ZM110.567 288.691C109.803 289.169 109.037 289.642 108.274 290.107C109.232 290.007 110.194 289.989 111.152 290.063C110.853 289.773 110.622 289.415 110.573 288.966C110.562 288.877 110.562 288.783 110.567 288.691ZM109.353 287.644C108.916 287.235 108.783 286.608 108.705 285.986C108.655 285.589 108.616 285.201 108.575 284.817C107.843 286.392 106.915 287.882 105.811 289.265C105.534 289.608 105.249 289.948 104.953 290.272C106.425 289.417 107.889 288.54 109.353 287.644ZM127.034 277.322C126.635 277.623 126.236 277.925 125.839 278.223C126.46 277.989 127.107 277.8 127.767 277.664C127.521 277.557 127.275 277.44 127.034 277.322ZM120.425 282.668L120.621 282.349C120.637 282.324 120.651 282.302 120.667 282.277C119.946 282.774 119.198 283.227 118.424 283.616C119.449 283.448 120.507 283.385 121.575 283.434C121.29 283.258 121.003 283.076 120.726 282.88L120.425 282.668ZM117.58 282.371C117.514 281.835 117.463 281.296 117.429 280.761C117.026 281.702 116.528 282.606 115.944 283.461C116.491 283.1 117.036 282.733 117.58 282.371ZM99.2229 305.263C97.0388 303.424 94.3793 302.128 91.5931 301.618C91.4682 301.594 91.3398 301.578 91.2132 301.558C90.9466 301.517 90.6782 301.479 90.4045 301.454C90.1728 301.428 89.9376 301.41 89.7044 301.398C88.7335 301.342 87.7581 301.368 86.7898 301.482C86.0969 301.565 85.4075 301.693 84.7291 301.859C84.4646 301.926 84.2002 301.993 83.9382 302.076C83.5987 302.175 83.2634 302.285 82.9323 302.407C82.1912 302.68 81.4691 303.003 80.7739 303.381C80.6188 303.466 80.4714 303.553 80.3184 303.643C80.1859 303.719 80.0572 303.797 79.9268 303.878C79.759 303.98 79.5933 304.087 79.4315 304.197C79.5402 304.298 79.6562 304.393 79.7667 304.489C81.2927 305.819 83.0158 306.91 84.8571 307.751C84.9309 307.784 85.0046 307.818 85.0783 307.851C89.7385 309.914 95.1355 310.372 100.039 309.007C94.869 308.255 89.8195 306.741 85.1591 304.472L85.3307 304.114C90.2104 306.487 95.5146 308.027 100.942 308.728C101.311 308.605 101.682 308.478 102.042 308.333C101.525 307.596 100.94 306.905 100.3 306.263C100.139 306.101 99.973 305.941 99.8051 305.785C99.6191 305.607 99.4219 305.433 99.2229 305.263ZM77.0794 305.547L77.0776 305.551C78.2467 305.655 79.4332 305.866 80.6314 306.185C80.0489 305.756 79.4921 305.302 78.9533 304.819C78.3275 305.064 77.7034 305.306 77.0794 305.547ZM88.5395 298.311C88.4091 297.835 88.2917 297.351 88.1973 296.867C87.7179 297.915 87.1321 298.919 86.4538 299.848C86.7989 299.696 87.1438 299.534 87.4868 299.375L87.1339 299.018L87.6053 298.773C87.9081 298.61 88.2247 298.459 88.5395 298.311ZM97.4986 296.224C98.0949 296.209 98.6884 296.22 99.2865 296.253C98.9736 296.097 98.6586 295.935 98.3457 295.779C98.0655 295.933 97.7809 296.076 97.4986 296.224ZM96.5259 294.953C96.3332 294.191 96.1934 293.415 96.1066 292.626C95.1088 294.24 93.8444 295.709 92.401 296.933C92.5653 296.891 92.7317 296.854 92.8943 296.815C94.1092 296.209 95.3198 295.592 96.5259 294.953ZM68.1443 308.728C67.7813 309.065 67.3995 309.36 67.0068 309.618C68.1213 309.791 69.2214 310.037 70.3014 310.358C69.8038 309.753 69.3436 309.127 68.9277 308.465C68.6661 308.557 68.408 308.641 68.1443 308.728ZM70.5394 305.579C70.452 305.741 70.3608 305.901 70.2657 306.059C70.4201 306.007 70.5784 305.957 70.7329 305.905C70.6679 305.801 70.6008 305.691 70.5394 305.579ZM112.428 309.344C108.927 309.657 105.388 309.621 101.89 309.238C97.7627 310.758 93.1909 310.947 88.8967 309.945C90.8198 311.131 92.6597 312.439 94.4668 313.737C96.7086 313.766 98.9525 313.594 101.179 313.213C105.124 312.538 108.927 311.218 112.428 309.344ZM112.814 303.525C109.683 305.717 105.608 306.75 101.524 306.41C102.054 307.007 102.541 307.636 102.979 308.299L103.24 308.693L102.805 308.88C102.765 308.895 102.73 308.912 102.69 308.927C106.22 309.263 109.785 309.241 113.306 308.861C115.81 307.434 118.145 305.719 120.264 303.747C117.776 303.837 115.289 303.763 112.814 303.525Z" fill="#ffffff"/>
</g>
</svg>
