<svg width="18" height="18" viewBox="0 0 18 18" fill="none" xmlns="http://www.w3.org/2000/svg">
<path d="M15.1429 4.85714L2.46429 17.5714C2.17857 17.8571 1.83905 18 1.44571 18C1.05333 18 0.714285 17.8571 0.428571 17.5714C0.142857 17.2857 0 16.9462 0 16.5529C0 16.1605 0.142857 15.8214 0.428571 15.5357L13.1429 2.85714H2.28571C1.88095 2.85714 1.54143 2.72048 1.26714 2.44714C0.99381 2.17286 0.857143 1.83333 0.857143 1.42857C0.857143 1.02381 0.99381 0.684286 1.26714 0.41C1.54143 0.136667 1.88095 0 2.28571 0H16.5714C16.9762 0 17.3152 0.136667 17.5886 0.41C17.8629 0.684286 18 1.02381 18 1.42857V15.7143C18 16.119 17.8629 16.4581 17.5886 16.7314C17.3152 17.0057 16.9762 17.1429 16.5714 17.1429C16.1667 17.1429 15.8276 17.0057 15.5543 16.7314C15.28 16.4581 15.1429 16.119 15.1429 15.7143V4.85714Z" fill="#321205"/>
</svg>
